<?xml version="1.0" encoding="utf-8"?>
<!-- Generator: Adobe Illustrator 27.0.0, SVG Export Plug-In . SVG Version: 6.00 Build 0)  -->
<svg version="1.1" id="Layer_1" xmlns="http://www.w3.org/2000/svg" xmlns:xlink="http://www.w3.org/1999/xlink" x="0px" y="0px"
	 viewBox="0 0 72 72" style="enable-background:new 0 0 72 72;" xml:space="preserve">
<style type="text/css">
	.st0{fill:none;stroke:#707070;stroke-linecap:round;stroke-miterlimit:10;}
	.st1{fill:none;stroke:#707070;stroke-linecap:round;stroke-linejoin:round;stroke-miterlimit:10;}
</style>
<g>
	<path class="st0" d="M29.5,33.9c1-0.9,2-1.7,2.9-2.2c1.4-0.9,3.8-2.1,4.6-2.3"/>
	<path class="st0" d="M18.4,54.3c0,0,0.7-7.7,5.8-14.6c1.1-1.5,2.9-4.2,4.9-5.5"/>
	<path class="st0" d="M39.4,54.3c0,0-1.7-7.8,1.6-14.8c2.8-5.9,7.6-9.4,9.2-10.4"/>
	<path class="st1" d="M42.4,54.2c0,0-1.1-4.2,1.8-9.9c2.7-5.2,6.2-8.8,8.3-10.3h0.1c-1.9,0.6-7.1,4.1-9.9,10
		c-3.3,6.9-2.5,10.3-2.5,10.3"/>
	<path class="st0" d="M42.9,47.4c0.3-0.3,0.9-1,1.2-1.3c3.2-3.1,6.2-4.6,8-5.1"/>
	<path class="st0" d="M38,54.3c0,0,0.7-2.2,2.6-4.8"/>
	<path class="st0" d="M49.5,36.9c2.2-0.4,4.8-0.6,7.6,0.3"/>
	<path class="st0" d="M33.7,54.2c0,0,0.5-5.7,4.9-10.8c2.1-2.4,4.8-4.4,8.4-5.6"/>
	<path class="st0" d="M26.3,54.3c0,0,0.8-13.4,4.2-24.5c3-9.6,7.6-15.8,9.3-18.1"/>
	<path class="st0" d="M27.7,54.3c0,0,0.8-12.4,4.2-23.5c3-9.6,6.4-14.7,8.2-17"/>
	<path class="st0" d="M29.7,54.3c0,0,0.3-7.6,4.3-16.4c4-8.9,11.3-14,20-14.9"/>
	<path class="st0" d="M27.7,54.3c0,0,1.6-11.7,6-22.7c3.8-9.3,10.1-15.5,12.2-17.1"/>
	<path class="st0" d="M21,54.2c0,0-0.9-11.8,3.6-22.8c3.8-9.3,10.1-12.8,12.3-14.3"/>
	<path class="st0" d="M24.2,54.3c0,0-2.2-12.3,1.7-23.5c3.3-9.5,6.4-14.5,8-16.6"/>
	<path class="st0" d="M37.3,32c0.4-1,1.1-2.3,1.9-4.3c4.1-9.2,9.8-12.9,13.1-13.9"/>
	<path class="st0" d="M35.4,54.3c0,0-0.8-1.9-0.9-5.7c0-2.7,0.1-5.7,1.1-9.9"/>
	<path class="st0" d="M40.3,28.8c3.6-9,6.6-12.7,11.8-15"/>
	<path class="st0" d="M36.7,54.4c0,0-0.7-1.8-1-4.7c-0.1-1.3,0-2.8,0.1-4.6c0.3-3,1.3-6.8,2.5-10.6"/>
	<path class="st0" d="M32.5,54.2c0,0-0.1-9.9,3.8-16.9c5.4-9.5,14.2-13.6,17.3-14.4"/>
	<path class="st0" d="M54.1,22.9"/>
	<path class="st0" d="M36.6,54.4"/>
	<line class="st0" x1="12.5" y1="56.9" x2="21.4" y2="56.9"/>
	<line class="st0" x1="43.8" y1="56.9" x2="53" y2="56.9"/>
	<line class="st0" x1="24.1" y1="57" x2="42.4" y2="57"/>
	<line class="st0" x1="9.2" y1="55.2" x2="56.5" y2="55.2"/>
</g>
</svg>
