<?xml version="1.0" encoding="utf-8"?>
<!-- Generator: Adobe Illustrator 27.0.0, SVG Export Plug-In . SVG Version: 6.00 Build 0)  -->
<svg version="1.1" id="Layer_1" xmlns="http://www.w3.org/2000/svg" xmlns:xlink="http://www.w3.org/1999/xlink" x="0px" y="0px"
	 viewBox="0 0 72 72" style="enable-background:new 0 0 72 72;" xml:space="preserve">
<style type="text/css">
	.st0{fill:none;stroke:#707070;stroke-linecap:round;stroke-linejoin:round;}
</style>
<g id="Group_2877" transform="translate(-4 -2)">
	<path id="Path_2365" class="st0" d="M54.4,22.9c0,1.5-2,2.8-5.2,3.6c0,0.4,0,2.5,0,2.5s-1.2,0.3-2.6,0.5c-1.4,0.2-2.8,0.4-2.8,0.4
		s0-1.4,0-2.5c-1.3,0.1-2.6,0.2-4,0.2c-8.1,0-14.7-2.1-14.7-4.8S31.7,18,39.8,18S54.4,20.3,54.4,22.9z M39.7,20.6
		c-8.1,0-14.7,2.1-14.7,4.8s6.6,4.8,14.7,4.8c1.4,0,4.1-0.2,4.1-0.2v20.8c1.1-0.1,2.2-0.2,3.2-0.4c1.3-0.3,2.3-0.5,2.3-0.5L49.2,29
		c3.2-0.9,5.2-2.2,5.2-3.6C54.4,22.8,47.8,20.6,39.7,20.6z M54.4,25.3c0-2.6-6.6-4.7-14.7-4.7S25,22.8,25,25.4c0,0.1,0,21.1,0,21.1
		c0.6,2.5,6.9,4.4,14.6,4.4s14.1-1.9,14.6-4.4C54.3,46.5,54.4,25.4,54.4,25.3z M43.9,33c0,0,1.4-0.2,2.8-0.4s2.6-0.5,2.6-0.5
		 M43.9,35.9c0,0,1.4-0.2,2.8-0.4s2.6-0.5,2.6-0.5 M43.9,38.9c0,0,1.4-0.2,2.8-0.4s2.6-0.5,2.6-0.5 M43.9,41.9c0,0,1.4-0.2,2.8-0.4
		s2.6-0.5,2.6-0.5 M43.9,44.7c0,0,1.4-0.2,2.8-0.4s2.6-0.5,2.6-0.5 M43.9,47.6c0,0,1.4-0.2,2.8-0.4s2.5-0.5,2.5-0.5 M43.9,50.7
		c0,0,1.4-0.2,2.8-0.4s2.6-0.5,2.6-0.5 M38.8,27.9v2.2 M32.5,27.1v2.4 M26.8,25.4v2.2 M26.2,21.2l0.1,2.2 M30.3,19.4l0.1,2.2
		 M36.1,18.5l0.1,2.2 M41.4,18.3v2.2 M47.2,18.9v2.4 M52,20.4v2.2 M54.4,22.9v2.4 M51.1,26v2.4"/>
</g>
</svg>
