<svg width="43" height="38" viewBox="0 0 43 38" fill="none" xmlns="http://www.w3.org/2000/svg">
<g clip-path="url(#clip0_100_10972)">
<path d="M34.723 7.08008C36.148 7.20408 36.993 7.79906 38.177 9.12006C39.361 10.4411 40.969 10.3421 41.894 12.3561C42.2863 13.4593 42.3448 14.6535 42.0624 15.7898C41.78 16.9261 41.1691 17.9539 40.306 18.7451C38.653 20.1621 39.675 22.5921 37.257 24.6981C34.839 26.8041 30.88 25.041 28.891 25.485C26.902 25.929 27.399 27.9331 25.14 29.0991C22.881 30.2651 21.202 27.931 20.14 29.952C19.078 31.973 17.828 31.5841 16.754 31.8761C15.68 32.1681 16.087 33.8091 15.298 34.5381C14.509 35.2671 13.949 34.9171 13.198 35.2461C12.447 35.5751 12.255 37.299 10.651 37.472C9.047 37.645 7.82202 35.9141 7.82202 35.9141" stroke="#5D5D5D" style="stroke:#5D5D5D;stroke:color(display-p3 0.3647 0.3647 0.3647);stroke-opacity:1;"/>
<path d="M9.17701 21.1151C6.75501 22.4071 4.45906 24.3061 3.85706 26.8681C3.25506 29.4301 3.73399 35.4031 6.03199 36.0061C8.32999 36.6091 8.64201 35.3401 9.17701 33.9821C9.71201 32.6241 10.5531 33.3131 11.3451 32.3651C12.1371 31.4171 11.5691 30.8081 12.2931 30.1651C13.0171 29.5221 13.8621 30.2031 14.7741 29.2281C15.6861 28.2531 15.3191 27.2121 16.4651 26.8651C17.6111 26.5181 19.376 27.0111 21.035 25.5921C22.694 24.1731 21.843 22.5021 24.035 21.7451C26.227 20.9881 30.128 22.7181 31.906 20.1681C33.684 17.6181 31.986 15.6251 33.349 13.4831C34.712 11.3411 35.6311 10.3051 35.2211 8.5691C34.8111 6.8331 34.365 5.6491 32.761 4.9991C31.157 4.3491 30.6121 4.24809 28.7111 3.33009C26.8101 2.41209 27.096 1.13908 25.135 0.591077C23.174 0.0430768 21.505 1.55411 19.219 1.39711C16.933 1.24011 15.312 0.0830773 13.286 0.604077C11.26 1.12508 10.6411 3.6781 9.36805 4.7361C8.09505 5.7941 4.93702 6.84411 3.85902 8.25911C3.47317 8.78588 3.20659 9.39027 3.07777 10.0304C2.94895 10.6705 2.961 11.3311 3.11305 11.9661C3.21305 13.0661 3.71307 14.4031 2.43507 16.3501C1.15707 18.2971 0.0500217 23.3331 0.713022 25.5051C1.0519 26.8916 1.73148 28.1716 2.69007 29.2291C3.14883 29.8004 3.48882 30.4576 3.69007 31.1621" stroke="#5D5D5D" style="stroke:#5D5D5D;stroke:color(display-p3 0.3647 0.3647 0.3647);stroke-opacity:1;" stroke-linecap="round"/>
<path d="M10.6841 20.1582C11.4611 19.9892 11.5421 20.3832 13.1411 20.2582C14.7401 20.1332 15.9311 19.5582 16.9711 19.7672C18.5141 20.0752 19.099 21.1992 18.821 22.0942C18.7618 22.3652 18.6353 22.6169 18.4531 22.8261C18.2709 23.0352 18.039 23.1952 17.7787 23.291C17.5184 23.3869 17.2382 23.4156 16.9639 23.3746C16.6895 23.3335 16.4299 23.2241 16.2091 23.0562" stroke="#5D5D5D" style="stroke:#5D5D5D;stroke:color(display-p3 0.3647 0.3647 0.3647);stroke-opacity:1;" stroke-linecap="round"/>
<path d="M7.51409 26.5339C6.61153 27.4846 6.01057 28.6813 5.78704 29.973C5.64704 31.234 5.52405 33.548 6.76605 33.793C8.00805 34.038 8.4281 31.555 7.2951 31.293" stroke="#5D5D5D" style="stroke:#5D5D5D;stroke:color(display-p3 0.3647 0.3647 0.3647);stroke-opacity:1;" stroke-linecap="round"/>
<path d="M38.632 12.0581C38.977 12.7243 39.1011 13.4831 38.9862 14.2245C38.8713 14.9659 38.5234 15.6516 37.9929 16.1821" stroke="#5D5D5D" style="stroke:#5D5D5D;stroke:color(display-p3 0.3647 0.3647 0.3647);stroke-opacity:1;" stroke-linecap="round"/>
<path d="M21.251 6.16508C23.914 6.50508 26.521 5.41309 29.619 7.30009C32.717 9.18709 32.819 11.5001 32.736 12.7391C32.6841 13.4675 32.6841 14.1987 32.736 14.9271" stroke="#5D5D5D" style="stroke:#5D5D5D;stroke:color(display-p3 0.3647 0.3647 0.3647);stroke-opacity:1;" stroke-linecap="round"/>
<path d="M13.734 6.51405C12.383 5.99905 8.35399 7.58804 6.69299 8.56404C5.03199 9.54004 4.56804 11.53 4.16504 12.598C3.76204 13.666 3.17505 15.158 3.17505 15.158" stroke="#5D5D5D" style="stroke:#5D5D5D;stroke:color(display-p3 0.3647 0.3647 0.3647);stroke-opacity:1;" stroke-linecap="round"/>
<path d="M25.0771 8.15601C28.3401 8.34301 29.9291 9.60601 30.2911 11.825" stroke="#5D5D5D" style="stroke:#5D5D5D;stroke:color(display-p3 0.3647 0.3647 0.3647);stroke-opacity:1;" stroke-linecap="round"/>
<path d="M18.9172 8.87801C15.7933 8.44869 12.6115 8.81962 9.67009 9.95601C6.46009 11.356 6.8261 12.975 6.8261 12.975" stroke="#5D5D5D" style="stroke:#5D5D5D;stroke:color(display-p3 0.3647 0.3647 0.3647);stroke-opacity:1;" stroke-linecap="round"/>
<path d="M30.5232 17.8237C30.1052 18.6807 28.9907 19.4937 28.2947 19.2437" stroke="#5D5D5D" style="stroke:#5D5D5D;stroke:color(display-p3 0.3647 0.3647 0.3647);stroke-opacity:1;" stroke-linecap="round"/>
</g>
<defs>
<clipPath id="clip0_100_10972">
<rect width="42.783" height="37.99" fill="white" style="fill:white;fill-opacity:1;"/>
</clipPath>
</defs>
</svg>
