<?xml version="1.0" encoding="utf-8"?>
<!-- Generator: Adobe Illustrator 27.9.4, SVG Export Plug-In . SVG Version: 9.03 Build 54784)  -->
<svg version="1.1" id="Layer_2" xmlns="http://www.w3.org/2000/svg" xmlns:xlink="http://www.w3.org/1999/xlink" x="0px" y="0px"
	 viewBox="0 0 48 29" style="enable-background:new 0 0 48 29;" xml:space="preserve">
<style type="text/css">
	.st0{fill:none;stroke:#70AC00;stroke-width:0.5;stroke-linecap:round;stroke-miterlimit:10;}
</style>
<line class="st0" x1="1.7" y1="12.3" x2="22.4" y2="12.3"/>
<path class="st0" d="M5.1,7.3c2.7,0,4.4,2.6,4.4,5"/>
<path class="st0" d="M6.6,3.8c2.8,1.6,4.2,4.3,4.2,8.6"/>
<path class="st0" d="M18.8,7.3c-2.7,0-4.4,2.6-4.4,5"/>
<path class="st0" d="M17.1,3.8C14.3,5.3,13,8,13,12.3"/>
<line class="st0" x1="12" y1="1" x2="12" y2="12.3"/>
<line class="st0" x1="25.7" y1="12.3" x2="46.4" y2="12.3"/>
<path class="st0" d="M29.2,7.3c2.7,0,4.4,2.6,4.4,5"/>
<path class="st0" d="M30.6,3.8c2.8,1.6,4.2,4.3,4.2,8.6"/>
<path class="st0" d="M42.8,7.3c-2.7,0-4.4,2.6-4.4,5"/>
<path class="st0" d="M41.1,3.8c-2.8,1.6-4.1,4.3-4.1,8.6"/>
<line class="st0" x1="36" y1="1" x2="36" y2="12.3"/>
<line class="st0" x1="-10" y1="26.8" x2="10.7" y2="26.8"/>
<path class="st0" d="M-6.6,21.7c2.6,0,4.3,2.6,4.3,5"/>
<path class="st0" d="M-5.1,18.3c2.8,1.6,4.2,4.3,4.2,8.6"/>
<path class="st0" d="M6.9,21.8c-2.7,0-4.4,2.6-4.4,5"/>
<path class="st0" d="M5.3,18.3c-2.8,1.6-4.1,4.3-4.1,8.6"/>
<line class="st0" x1="0" y1="15.5" x2="0" y2="26.8"/>
<line class="st0" x1="37.7" y1="26.8" x2="58.4" y2="26.8"/>
<path class="st0" d="M41.1,21.8c2.7,0,4.4,2.6,4.4,5"/>
<path class="st0" d="M42.6,18.3c2.8,1.6,4.2,4.3,4.2,8.6"/>
<path class="st0" d="M54.5,21.7c-2.6,0-4.3,2.6-4.3,5"/>
<path class="st0" d="M52.8,18.2c-2.7,1.6-4.1,4.2-4.1,8.5"/>
<line class="st0" x1="48" y1="15.5" x2="48" y2="26.8"/>
<line class="st0" x1="14" y1="26.8" x2="34.7" y2="26.8"/>
<path class="st0" d="M17.4,21.8c2.7,0,4.4,2.6,4.4,5"/>
<path class="st0" d="M18.9,18.3c2.8,1.6,4.2,4.3,4.2,8.6"/>
<path class="st0" d="M31.1,21.8c-2.7,0-4.4,2.6-4.4,5"/>
<path class="st0" d="M29.4,18.3c-2.8,1.6-4.1,4.3-4.1,8.6"/>
<line class="st0" x1="24.3" y1="15.5" x2="24.3" y2="26.8"/>
</svg>
