<?xml version="1.0" encoding="utf-8"?>
<!-- Generator: Adobe Illustrator 27.0.0, SVG Export Plug-In . SVG Version: 6.00 Build 0)  -->
<svg version="1.1" id="Layer_1" xmlns="http://www.w3.org/2000/svg" xmlns:xlink="http://www.w3.org/1999/xlink" x="0px" y="0px"
	 viewBox="0 0 72 72" style="enable-background:new 0 0 72 72;" xml:space="preserve">
<style type="text/css">
	.st0{fill:none;stroke:#5D5D5D;}
	.st1{fill:none;stroke:#5D5D5D;stroke-linecap:round;}
</style>
<g>
	<g id="Group_2786_00000168816524569539681940000015785036886008298916_" transform="translate(-1319.634 -989.132)">
		<path id="Path_2535_00000160903050104430389100000007056426270852201128_" class="st0" d="M1372.7,1013.6c1.6,0.1,2.4-0.1,3.8,1.4
			s3,1.7,4.1,4.1c1.1,2.3,0.1,5.7-1.8,7.3c-1.9,1.6-1.5,4.7-4.3,7.1s-6.2,0.8-8.5,1.3s-1.7,2.8-4.3,4.2c-2.6,1.3-4.5-1.3-5.8,1
			c-1.2,2.3-2.7,1.9-3.9,2.2c-1.2,0.3-0.8,2.2-1.7,3.1c-0.9,0.8-1.6,0.4-2.4,0.8c-0.9,0.4-1.1,2.4-2.9,2.6c-1.9,0.2-3.3-1.8-3.3-1.8
			"/>
		<path id="Path_2536_00000173118517836384527810000004179047721916467076_" class="st1" d="M1343.2,1029.8
			c-2.8,1.5-5.4,3.7-6.1,6.6c-0.7,3-0.1,9.9,2.5,10.6s3-0.8,3.6-2.3c0.6-1.6,1.6-0.8,2.5-1.9s0.3-1.8,1.1-2.5c0.8-0.7,1.8,0,2.9-1.1
			s0.6-2.3,2-2.7c1.3-0.4,3.4,0.2,5.3-1.5s0.9-3.6,3.5-4.4c2.5-0.9,7,1.1,9.1-1.8s0.1-5.2,1.7-7.7s2.6-3.7,2.2-5.7
			c-0.5-2-1-3.4-2.8-4.1c-1.9-0.8-2.5-0.9-4.7-1.9s-1.9-2.5-4.1-3.2c-2.3-0.6-4.2,1.1-6.8,0.9s-4.5-1.5-6.9-0.9
			c-2.3,0.6-3.1,3.5-4.5,4.8c-1.5,1.2-5.1,2.4-6.4,4.1c-1.2,1.6-1,3-0.9,4.3s0.7,2.8-0.8,5.1c-1.5,2.2-2.8,8.1-2,10.6
			c0.4,1.6,1.2,3.1,2.3,4.3c0.5,0.7,0.9,1.4,1.2,2.2"/>
		<path id="Path_2537_00000133492708626798545980000012929717823555007123_" class="st1" d="M1345,1028.7c0.9-0.2,1,0.3,2.8,0.1
			c1.8-0.1,3.2-0.8,4.4-0.6c1.8,0.4,2.5,1.7,2.1,2.7c-0.2,1-1.2,1.7-2.3,1.5c-0.3-0.1-0.5-0.2-0.7-0.3"/>
		<path id="Path_2538_00000039831693712035156520000016276718709038054541_" class="st1" d="M1341.3,1036c-1,1.1-1.7,2.5-2,4
			c-0.2,1.5-0.3,4.1,1.1,4.4s1.9-2.6,0.6-2.9"/>
		<path id="Path_2540_00000165936202226987338480000018020164366522610859_" class="st1" d="M1357.2,1012.5c3.1,0.4,6.1-0.9,9.7,1.3
			s3.7,4.8,3.6,6.3c-0.1,0.8-0.1,1.7,0,2.5"/>
		<path id="Path_2541_00000046305358440545239300000016021355825073970817_" class="st1" d="M1348.5,1012.9
			c-1.6-0.6-6.2,1.2-8.1,2.4c-1.9,1.1-2.5,3.4-2.9,4.7c-0.5,1.2-1.1,3-1.1,3"/>
		<path id="Path_2542_00000070838656076392324400000011794393327019864982_" class="st1" d="M1361.9,1014.8c3.5,0.2,5.2,1.3,5.6,3.2
			"/>
		<path id="Path_2543_00000044879648871224305310000002600869766310121905_" class="st1" d="M1354.3,1015.2c-3-0.3-7-0.4-10.7,1.2
			s-3.3,3.5-3.3,3.5"/>
	</g>
	<path id="Path_2544_00000134248823741529301800000004176465531873680514_" class="st1" d="M48.1,36.5c-0.5,1-1.8,1.9-2.6,1.6"/>
</g>
</svg>
