<?xml version="1.0" encoding="utf-8"?>
<!-- Generator: Adobe Illustrator 27.0.0, SVG Export Plug-In . SVG Version: 6.00 Build 0)  -->
<svg version="1.1" id="Layer_1" xmlns="http://www.w3.org/2000/svg" xmlns:xlink="http://www.w3.org/1999/xlink" x="0px" y="0px"
	 viewBox="0 0 72 72" style="enable-background:new 0 0 72 72;" xml:space="preserve">
<style type="text/css">
	.st0{fill:#FFFFFF;stroke:#E36900;stroke-linecap:round;stroke-linejoin:round;stroke-miterlimit:10;}
	.st1{fill:none;stroke:#E36900;stroke-miterlimit:10;}
	.st2{fill:none;stroke:#E36900;stroke-linecap:round;stroke-linejoin:round;stroke-miterlimit:10;}
	.st3{fill:none;stroke:#E36900;stroke-width:1.0001;stroke-linecap:round;stroke-linejoin:round;stroke-miterlimit:4.001;}
	.st4{fill:none;stroke:#E36900;stroke-width:1.0001;stroke-linecap:round;stroke-linejoin:round;stroke-miterlimit:4.0013;}
	.st5{fill:none;stroke:#E36900;stroke-linecap:round;stroke-linejoin:round;}
	.st6{fill:none;stroke:#E36900;stroke-linecap:round;stroke-linejoin:round;stroke-miterlimit:4.0005;}
	.st7{fill:none;stroke:#E36900;stroke-linecap:round;stroke-linejoin:round;stroke-miterlimit:4.0004;}
</style>
<g>
	<path class="st0" d="M31,36.8"/>
	<path class="st1" d="M29,26.3c0.3,1.2,0.6,3.5,0.6,7.9s0.3,16.7,0,22.1s-0.8,8.3-0.8,8.3"/>
	<path class="st2" d="M36.5,26.7c-0.4,3.5-3.4,13.8-3.3,17.1c0.1,3.2-0.7,14.8-0.7,15.8S31,64.5,31,64.5"/>
	<path class="st1" d="M46.2,39.5c-0.1,0.1-0.6,0.7-1.4,1.3c-1.4,1-8,5-9.1,9c-1.1,4-4.1,12.9-4.3,13.7c-0.3,0.8-0.6,3-0.6,3"/>
	<path class="st2" d="M25.8,49.9c1.2,1.3,2.2,4,2.2,6.1s0.9,5.5,0.9,5.5"/>
	
		<g id="Group_2811_00000138550519364072374860000011002988273704667812_" transform="matrix(0.588, 0.809, -0.809, 0.588, -71.274, -1787.698)">
		<path id="Path_1760_00000118355742627704365780000014179537116866511796_" class="st3" d="M1543.8,974.5c0.6,0.2,0.9,0.4,0.9,0.4
			s-0.9,0.1-1.3,0s-0.9,0-1.3,0c-0.4-0.1-1.4,0-1.7,0c-0.8,0.1-1.4,0.4-2.1,0.2c-0.5-0.3-0.9-1,0.4-1.7c0.9-0.7,2.5-0.7,3.5-0.3
			C1543.3,973.5,1543.2,974.3,1543.8,974.5z"/>
		<path id="Path_2070_00000054232726806151225050000001184690897795598236_" class="st4" d="M1543.3,974.8c0.4,0,0.9-0.1,0.9-0.1
			s-0.2,0.1-0.7,0.2s-0.9,0.8-1.4,1s-1.7,1.1-2.1,1.3c-0.8,0.4-1.7,0.7-2.6,0.9c-0.7,0-1.5-0.2-0.3-1.5c0.8-1,2-1.7,3.3-1.9
			C1541.5,974.8,1542.9,974.9,1543.3,974.8z"/>
		<path id="Path_2072_00000173854235951958298170000000181615091560671629_" class="st3" d="M1546.2,974.8c-0.8,0.3-0.8,0.3-0.8,0.2
			s0.4-0.7,0.9-0.9c0.4-0.2,0.9-0.6,1.4-0.7c0.6-0.2,1.4-0.3,1.8-0.4c0.8-0.5,1.7-0.8,2.6-1c0.6-0.2,1.5,0.3,0.4,1.6
			c-0.8,1.1-1.7,1.4-3.3,1.5C1547.9,974.9,1547.4,974.6,1546.2,974.8z"/>
		<path id="Path_2073_00000132073667340939140030000002758559724717447336_" class="st4" d="M1547.1,973.5c-0.7,0.3-1.4,1.4-1.9,1.3
			c0.4-0.3,0.6-0.7,0.9-1s0.3-0.6,0.5-0.8c0.2-0.3,0.7-0.6,1-1c0.3-0.3,0.5-1,1.1-1.5c0.6-0.4,1.4,0,1.3,1c0,0.8-0.8,1.3-1.5,1.4
			C1548.1,973.2,1547.8,973.2,1547.1,973.5z"/>
		<path id="Path_2074_00000011714953060623367170000004499413892723337383_" class="st3" d="M1545.5,974.6c-0.3,0.5-0.6,0.3-0.8,0
			c-0.2-0.3-0.3-0.8-0.3-1.1c0-0.2,0-0.4,0.1-1.1c0.1-0.7,0.3-0.9,0.5-1.3c0.2-0.4,0.7-1,1.3-0.5c0.6,0.3,0.8,1,0.4,1.6
			c-0.2,0.4-0.3,1-0.6,1.4C1546,974.1,1545.7,974.3,1545.5,974.6z"/>
		<path id="Path_2075_00000065778785013920395850000010060733411016608919_" class="st4" d="M1544.5,974.3c0.1,0.4,0.1,0.4,0.3,0.6
			c-0.3-0.1-0.5-0.1-0.8-0.2c-0.2-0.1-0.4-0.2-0.6-0.4s-0.2-0.4-0.5-0.8c-0.3-0.4-0.7-0.6-0.9-1c-0.2-0.4-0.2-1,0.5-1
			c0.6-0.1,2.1,0.3,2,1.2C1544.5,973.6,1544.5,974,1544.5,974.3z"/>
		<path id="Path_2076_00000173870578392930505730000000586807489828094378_" class="st3" d="M1544.4,976.1c0.2-0.5,0.3-1.3,0.3-1.3
			c0.1,0.1,1.2,0.6,1.6,0.9c0.2,0.2,0.5,0.4,0.6,0.8c0.2,0.4,0.2,0.7,0.3,0.9c0.1,0.2,0.5,0.5,0.5,1.1c0,0.5-0.4,1.1-1.5,0.9
			c-0.8-0.1-1.5-0.3-1.8-1.2C1544,977.4,1544.2,976.6,1544.4,976.1z"/>
		<path id="Path_2077_00000055707011020646834750000009721670524380667548_" class="st3" d="M1543.6,975.2c0.6-0.3,1-0.5,1.1-0.4
			c0.2,0.1-0.2,0.8-0.3,1.2c-0.1,0.3-0.3,0.9-0.5,1.2s-0.7,0.5-1.1,1s-0.4,1-1.1,1.3c-0.5,0.2-1.4,0.3-1.4-1c0-0.9,0.3-1.5,1.2-2.1
			S1543.1,975.5,1543.6,975.2z"/>
		<path id="Path_2071_00000018922840894289130980000009271857860815619222_" class="st3" d="M1546.1,975.5c-0.5-0.5-0.6-0.4-0.3-0.5
			c0.5-0.2,1.1-0.2,1.8-0.2c0.6,0,1.6,0.2,2,0.2s1-0.3,1.7,0c0.5,0.3,0.9,0.7-0.4,1.5c-0.9,0.7-2,1-3,0.7
			C1546.8,976.7,1546.7,976,1546.1,975.5z"/>
	</g>
	<g id="Group_2812_00000152977303496231622900000017467069306224060039_" transform="translate(-1205.084 -1320.238) rotate(14)">
		<path id="Path_1760_00000106114139504730558470000015022421130712342151_" class="st5" d="M1520.5,1000.7c0.6,0.1,1.1,0.9,1.1,0.9
			l0,0c-0.6-0.1-1.5,0.2-2,0.2c-0.4,0-0.7-0.1-1.2-0.1s-1.5,0-2.2,0c-0.8,0-1.3-0.1-2.2-0.6c-0.9-0.4-0.6-1.7,0.4-1.8
			c1-0.2,2.4-0.9,3.6-0.5C1519.2,999.5,1519.7,1000.6,1520.5,1000.7z"/>
		<path id="Path_2070_00000062899647406336851990000010230284553384404671_" class="st6" d="M1520.5,1001.7c0.9-0.2,1.4,0,1.5,0.2
			c0,0.2-1.1,0.6-2,0.9c-0.5,0.2-1.1,0.4-1.7,0.6c-0.6,0.2-1.6,0.7-2.4,1.1c-0.5,0.2-2.2,1.1-3.1,1c-0.8-0.1-1-1.2-0.3-1.9
			c1-1.1,2.4-1.8,3.8-1.9C1518.1,1001.6,1519.5,1001.9,1520.5,1001.7z"/>
		<path id="Path_2072_00000152238176157391313340000012428233323096401048_" class="st5" d="M1522.7,1001.7
			c-0.9,0.3-1.3-0.2-1.3-0.4s1.5-0.2,2.1-0.4c0.5-0.2,1-0.4,1.6-0.6c0.6-0.2,0.9-0.5,1.3-0.6c1.1-1.1,2.7-1.5,3.7-1.7
			c0.8,0,1.8,0.2,0.5,1.5c-0.9,1.1-2.3,1.9-3.7,2.1C1525.1,1001.7,1523.7,1001.4,1522.7,1001.7z"/>
		<path id="Path_2073_00000111873729348823361150000012136219713671028609_" class="st7" d="M1523.5,1001.1
			c-0.3,0.3-1.6,0.3-1.6,0.3s0.7-1.1,0.8-1.4c0.2-0.6,0.6-0.8,0.8-1.1c0.3-0.3,0.7-0.3,1.2-0.7s0.9-0.9,1.4-1.3
			c0.5-0.2,1.3-0.4,1.2,0.8c0,0.9-0.4,1.7-1.2,2.2C1525.2,1000.2,1524.3,1000.6,1523.5,1001.1z"/>
		<path id="Path_2074_00000075162885467610328290000011577731273240337073_" class="st5" d="M1522.4,1000.5c0,0.4-0.6,0.9-0.6,0.9
			s-0.1-0.6-0.3-1c-0.1-0.2-0.1-0.5-0.2-0.8c-0.2-0.5,0-1,0.1-1.3s0.2-1,0.4-1.5c0.3-0.5,0.8-1,1.6-0.5c0.7,0.3,1,1.1,0.6,1.7l0,0
			C1523,999.3,1522.4,1000.3,1522.4,1000.5z"/>
		<path id="Path_2075_00000147179028393077050380000009684488771320674707_" class="st6" d="M1521.4,1000.4c0.2,0.2,0.6,1,0.5,1.3
			c-0.1,0.1-0.6-0.7-1.1-1s-1-0.4-1.2-0.7c-0.2-0.2-0.4-0.5-0.7-0.8c-0.3-0.3-0.4-0.7-0.7-1.2c-0.2-0.4-0.3-1,0.6-1
			c0.7,0,1.4,0.3,1.7,0.9C1520.7,998.8,1521.1,999.7,1521.4,1000.4z"/>
		<path id="Path_2076_00000021836378012965792220000017916917269603834259_" class="st5" d="M1521.5,1003.7c0.1-0.8,0-1,0.2-1.2
			c0.2-0.1,1.5,0.8,1.7,1c0.3,0.3,0.6,0.5,0.8,0.8c0.2,0.3,0.2,1.1,0.3,1.3c0.2,0.3,1,0.9,1.1,1.7c0,0.6-0.3,1.3-1.8,0.9
			c-1-0.3-2.1-0.7-2.3-1.8C1521.4,1005.3,1521.5,1004.3,1521.5,1003.7z"/>
		<path id="Path_2077_00000005232379696585629380000008368424398908073901_" class="st5" d="M1520.5,1002.5c0.4-0.1,0.8-0.2,1.2-0.3
			c0.1,0,0.1,0.1,0.1,0.1c-0.2,0.4-0.2,0.8-0.3,1.5c-0.2,0.8-0.5,1-0.8,1.2s-0.8,0.3-1.3,0.8c-0.6,0.8-0.6,1.2-1.3,1.5
			c-0.5,0.2-1.4,0.2-1.5-1.1c-0.1-1-0.1-2,1-2.5C1518.6,1003.1,1519.9,1002.7,1520.5,1002.5z"/>
		<path id="Path_2071_00000079471747573812583100000007565796218986539441_" class="st5" d="M1522.8,1003c-0.7-0.4-1.1-1.2-1.1-1.2
			l-0.1-0.1c0,0,0.7,0,1.7-0.3c0.4-0.1,1.6,0,2.1,0c0.5,0.1,1.3,0,1.6,0.1c0.9-0.1,1.5-0.1,2.6,0.5s0.2,1.4-0.6,1.7
			c-0.7,0.2-2.1,1.8-3.5,0.8S1523.5,1003.5,1522.8,1003z"/>
	</g>
</g>
</svg>
