<?xml version="1.0" encoding="UTF-8"?>
<svg xmlns="http://www.w3.org/2000/svg" version="1.1" viewBox="0 0 41.9 40">
  <defs>
    <style>
      .cls-1 {
        fill: none;
        stroke: #34a6ce;
        stroke-linecap: round;
        stroke-width: .6px;
      }
    </style>
  </defs>
  <!-- Generator: Adobe Illustrator 28.7.1, SVG Export Plug-In . SVG Version: 1.2.0 Build 142)  -->
  <g>
    <g id="Layer_1">
      <g>
        <path class="cls-1" d="M41.9,6.8c-3.4,0-3.8-2.4-6.7-2.4s-3.9,2.4-7.3,2.4-3.5-2.4-6.8-2.4-3.6,2.4-7.1,2.4-3.9-2.4-7.1-2.4c-3.6.1-3.4,2.4-6.8,2.4,3.5,0,3.2-2.4,6.7-2.4s3.5,2.4,7.1,2.4,3.6-2.4,7.1-2.4,3.9,2.4,6.8,2.4,3.6-2.4,7.3-2.4c3.1.1,3.5,2.4,6.8,2.4"/>
        <path class="cls-1" d="M41.9,3.2c-3.4,0-3.8-2.4-6.7-2.4s-3.9,2.4-7.3,2.4-3.5-2.4-6.8-2.4-3.6,2.4-7.1,2.4S10.1.8,6.8.8c-3.6,0-3.4,2.4-6.8,2.4C3.5,3.2,3.2.8,6.7.8s3.5,2.4,7.1,2.4,3.6-2.4,7.1-2.4,3.9,2.4,6.8,2.4,3.6-2.4,7.3-2.4c3.1,0,3.5,2.4,6.8,2.4"/>
        <path class="cls-1" d="M41.9,10.9c-3.4,0-3.8-2.4-6.7-2.4s-3.9,2.4-7.3,2.4-3.5-2.4-6.8-2.4-3.6,2.4-7.1,2.4-3.9-2.4-7.1-2.4-3.4,2.4-6.8,2.4c3.5,0,3.2-2.4,6.7-2.4s3.5,2.4,7.1,2.4,3.6-2.4,7.1-2.4,3.9,2.4,6.8,2.4,3.6-2.4,7.3-2.4,3.5,2.4,6.8,2.4"/>
        <path class="cls-1" d="M41.9,34.8c-3.4,0-3.8-2.4-6.7-2.4s-3.9,2.4-7.3,2.4-3.5-2.4-6.8-2.4-3.6,2.4-7.1,2.4-3.9-2.4-7.1-2.4-3.2,2.4-6.7,2.4c3.5,0,3.2-2.4,6.7-2.4s3.5,2.4,7.1,2.4,3.6-2.4,7.1-2.4,3.9,2.4,6.8,2.4,3.6-2.4,7.3-2.4,3.4,2.4,6.7,2.4"/>
        <path class="cls-1" d="M41.9,38.7c-3.4,0-3.8-2.4-6.7-2.4s-3.9,2.4-7.3,2.4-3.5-2.4-6.8-2.4-3.6,2.4-7.1,2.4-3.9-2.4-7.1-2.4-3.2,2.4-6.7,2.4c3.5,0,3.2-2.4,6.7-2.4s3.5,2.4,7.1,2.4,3.6-2.4,7.1-2.4,3.9,2.4,6.8,2.4,3.6-2.4,7.3-2.4c2.9.1,3.4,2.4,6.7,2.4"/>
        <path class="cls-1" d="M41.9,14.9c-3.4,0-3.8-2.4-6.7-2.4s-3.9,2.4-7.3,2.4-3.5-2.4-6.8-2.4-3.6,2.4-7.1,2.4-3.9-2.4-7.1-2.4S3.6,14.9.1,14.9c3.5,0,3.2-2.4,6.7-2.4s3.5,2.4,7.1,2.4,3.6-2.4,7.1-2.4,3.9,2.4,6.8,2.4,3.6-2.4,7.3-2.4,3.4,2.4,6.7,2.4"/>
        <path class="cls-1" d="M41.9,18.7c-3.4,0-3.8-2.4-6.7-2.4s-3.9,2.4-7.3,2.4-3.5-2.4-6.8-2.4-3.6,2.4-7.1,2.4-3.9-2.4-7.1-2.4-3.2,2.4-6.7,2.4c3.5,0,3.2-2.4,6.7-2.4s3.5,2.4,7.1,2.4,3.6-2.4,7.1-2.4,3.9,2.4,6.8,2.4,3.6-2.4,7.3-2.4c2.9.1,3.4,2.4,6.7,2.4"/>
        <path class="cls-1" d="M41.9,22.8c-3.4,0-3.8-2.4-6.7-2.4s-3.9,2.4-7.3,2.4-3.5-2.4-6.8-2.4-3.6,2.4-7.1,2.4-3.9-2.4-7.1-2.4-3.2,2.4-6.7,2.4c3.5,0,3.2-2.4,6.7-2.4s3.5,2.4,7.1,2.4,3.6-2.4,7.1-2.4,3.9,2.4,6.8,2.4,3.6-2.4,7.3-2.4,3.4,2.4,6.7,2.4"/>
        <path class="cls-1" d="M41.9,26.6c-3.4,0-3.8-2.4-6.7-2.4s-3.9,2.4-7.3,2.4-3.5-2.4-6.8-2.4-3.6,2.4-7.1,2.4-3.9-2.4-7.1-2.4-3.2,2.4-6.7,2.4c3.5,0,3.2-2.4,6.7-2.4s3.5,2.4,7.1,2.4,3.6-2.4,7.1-2.4,3.9,2.4,6.8,2.4,3.6-2.4,7.3-2.4c2.9.1,3.4,2.4,6.7,2.4"/>
        <path class="cls-1" d="M41.9,30.7c-3.4,0-3.8-2.4-6.7-2.4s-3.9,2.4-7.3,2.4-3.5-2.4-6.8-2.4-3.6,2.4-7.1,2.4-3.9-2.4-7.1-2.4-3.2,2.4-6.7,2.4c3.5,0,3.2-2.4,6.7-2.4s3.5,2.4,7.1,2.4,3.6-2.4,7.1-2.4,3.9,2.4,6.8,2.4,3.6-2.4,7.3-2.4c2.9,0,3.4,2.4,6.7,2.4"/>
      </g>
    </g>
  </g>
</svg>