<?xml version="1.0" encoding="UTF-8"?>
<svg xmlns="http://www.w3.org/2000/svg" xmlns:xlink="http://www.w3.org/1999/xlink" version="1.1" viewBox="0 0 21.4 19.2">
  <defs>
    <style>
      .cls-1, .cls-2 {
        fill: none;
      }

      .cls-2 {
        stroke: #3397cf;
        stroke-linecap: round;
        stroke-miterlimit: 10;
        stroke-width: .5px;
      }

      .cls-3 {
        clip-path: url(#clippath);
      }
    </style>
    <clipPath id="clippath">
      <rect class="cls-1" x="0" y="0" width="21.3" height="19.2"/>
    </clipPath>
  </defs>
  <!-- Generator: Adobe Illustrator 28.7.1, SVG Export Plug-In . SVG Version: 1.2.0 Build 142)  -->
  <g>
    <g id="Layer_1">
      <path class="cls-2" d="M9,3.5c-1.4,0-2.3,1.1-2.3,2.2"/>
      <path class="cls-2" d="M8.2,1.9c-1.4.7-2.1,1.8-2.1,3.7"/>
      <line class="cls-2" x1="5.5" y1=".7" x2="5.5" y2="5.6"/>
      <line class="cls-2" x1="6.5" y1="12" x2="15.5" y2="12"/>
      <path class="cls-2" d="M7.4,9.9c1.4,0,2.3,1.1,2.3,2.2"/>
      <path class="cls-2" d="M8.1,8.3c1.4.7,2.2,1.8,2.2,3.7"/>
      <path class="cls-2" d="M14.4,9.9c-1.4,0-2.3,1.1-2.3,2.2"/>
      <path class="cls-2" d="M13.6,8.3c-1.4.7-2.1,1.8-2.1,3.7"/>
      <line class="cls-2" x1="10.9" y1="7.1" x2="10.9" y2="12"/>
      <path class="cls-2" d="M12.6,3.5c1.4,0,2.3,1.1,2.3,2.2"/>
      <path class="cls-2" d="M13.4,1.9c1.4.7,2.2,1.8,2.2,3.7"/>
      <path class="cls-2" d="M9,16.4c-1.4,0-2.3,1.1-2.3,2.2"/>
      <path class="cls-2" d="M8.2,14.8c-1.4.7-2.1,1.8-2.1,3.7"/>
      <line class="cls-2" x1="5.5" y1="13.6" x2="5.5" y2="18.5"/>
      <path class="cls-2" d="M12.6,16.4c1.4,0,2.3,1.1,2.3,2.2"/>
      <path class="cls-2" d="M13.4,14.8c1.4.7,2.2,1.8,2.2,3.7"/>
      <path class="cls-2" d="M17.8,9.9c1.4,0,2.3,1.1,2.3,2.2"/>
      <line class="cls-2" x1="11.7" y1="5.6" x2="20.7" y2="5.6"/>
      <path class="cls-2" d="M19.7,3.5c-1.4,0-2.3,1.1-2.3,2.2"/>
      <path class="cls-2" d="M18.8,1.9c-1.4.7-2.1,1.8-2.1,3.7"/>
      <line class="cls-2" x1="16.2" y1=".7" x2="16.2" y2="5.6"/>
      <line class="cls-2" x1="1.1" y1="18.5" x2="10.1" y2="18.5"/>
      <path class="cls-2" d="M2,16.4c1.4,0,2.3,1.1,2.3,2.2"/>
      <path class="cls-2" d="M2.7,14.8c1.4.7,2.2,1.8,2.2,3.7"/>
      <line class="cls-2" x1="11.7" y1="18.5" x2="20.7" y2="18.5"/>
      <path class="cls-2" d="M19.7,16.4c-1.4,0-2.3,1.1-2.3,2.2"/>
      <path class="cls-2" d="M18.8,14.8c-1.4.7-2.1,1.8-2.1,3.7"/>
      <line class="cls-2" x1="16.2" y1="13.6" x2="16.2" y2="18.5"/>
      <g class="cls-3">
        <line class="cls-2" x1="16.8" y1="12" x2="25.8" y2="12"/>
        <path class="cls-2" d="M18.5,8.3c1.4.7,2.2,1.8,2.2,3.7"/>
        <path class="cls-2" d="M24,8.3c-1.4.7-2.1,1.8-2.1,3.7"/>
        <line class="cls-2" x1="21.3" y1="7.1" x2="21.3" y2="12"/>
        <line class="cls-2" x1="1.1" y1="5.6" x2="10.1" y2="5.6"/>
        <path class="cls-2" d="M2,3.5c1.4,0,2.3,1.1,2.3,2.2"/>
        <path class="cls-2" d="M2.7,1.9c1.4.7,2.2,1.8,2.2,3.7"/>
        <path class="cls-2" d="M24.8,9.9c-1.4,0-2.3,1.1-2.3,2.2"/>
        <line class="cls-2" x1="-4.4" y1="12" x2="4.6" y2="12"/>
        <path class="cls-2" d="M-3.5,9.9c1.4,0,2.3,1.1,2.3,2.2"/>
        <path class="cls-2" d="M-2.8,8.3c1.4.7,2.2,1.8,2.2,3.7"/>
        <path class="cls-2" d="M3.6,9.9c-1.4,0-2.3,1.1-2.3,2.2"/>
        <path class="cls-2" d="M2.7,8.3c-1.4.7-2.1,1.8-2.1,3.7"/>
        <line class="cls-2" x1="0" y1="7.1" x2="0" y2="12"/>
      </g>
    </g>
  </g>
</svg>