<?xml version="1.0" encoding="utf-8"?>
<!-- Generator: Adobe Illustrator 27.9.4, SVG Export Plug-In . SVG Version: 9.03 Build 54784)  -->
<svg version="1.1" id="Layer_1" xmlns="http://www.w3.org/2000/svg" xmlns:xlink="http://www.w3.org/1999/xlink" x="0px" y="0px"
	 viewBox="0 0 47 50" style="enable-background:new 0 0 47 50;" xml:space="preserve">
<style type="text/css">
	.st0{fill:#9762AF;}
	.st1{fill:none;stroke:#9762AF;stroke-width:0.65;stroke-miterlimit:10;}
</style>
<g>
	<path class="st0" d="M21.1,0.9c0.1,0,0.2,0.1,0.2,0.2v9c0,0.2-0.1,0.2-0.2,0.2H1.4c-0.1,0-0.2-0.1-0.2-0.2v-9
		c0-0.1,0.1-0.2,0.2-0.2H21.1 M21.1,0.2H1.4c-0.5,0-0.9,0.4-0.9,0.9v9C0.5,10.6,1,11,1.4,11h19.7c0.5,0,0.9-0.4,0.9-0.9v-9
		C22,0.6,21.6,0.2,21.1,0.2L21.1,0.2z"/>
</g>
<g>
	<path class="st0" d="M44.7,0.9c0.1,0,0.2,0.1,0.2,0.2v9c0,0.2-0.1,0.2-0.2,0.2H24.9c-0.1,0-0.2-0.1-0.2-0.2v-9
		c0-0.1,0.1-0.2,0.2-0.2H44.7 M44.7,0.2H24.9c-0.5,0-0.9,0.4-0.9,0.9v9c0,0.5,0.4,0.9,0.9,0.9h19.7c0.5,0,0.9-0.4,0.9-0.9v-9
		C45.5,0.6,45.1,0.2,44.7,0.2L44.7,0.2z"/>
</g>
<g>
	<path class="st0" d="M21.1,26.2c0.1,0,0.2,0.1,0.2,0.2v9c0,0.2-0.1,0.2-0.2,0.2H1.4c-0.1,0-0.2-0.1-0.2-0.2v-9
		c0-0.1,0.1-0.2,0.2-0.2H21.1 M21.1,25.5H1.4c-0.5,0-0.9,0.4-0.9,0.9v9c0,0.5,0.4,0.9,0.9,0.9h19.7c0.5,0,0.9-0.4,0.9-0.9v-9
		C22,25.9,21.6,25.5,21.1,25.5L21.1,25.5z"/>
</g>
<g>
	<path class="st0" d="M44.7,26.2c0.1,0,0.2,0.1,0.2,0.2v9c0,0.2-0.1,0.2-0.2,0.2H24.9c-0.1,0-0.2-0.1-0.2-0.2v-9
		c0-0.1,0.1-0.2,0.2-0.2H44.7 M44.7,25.5H24.9c-0.5,0-0.9,0.4-0.9,0.9v9c0,0.5,0.4,0.9,0.9,0.9h19.7c0.5,0,0.9-0.4,0.9-0.9v-9
		C45.5,25.9,45.1,25.5,44.7,25.5L44.7,25.5z"/>
</g>
<g>
	<path class="st0" d="M32.9,13.5c0.1,0,0.2,0.1,0.2,0.2v9c0,0.2-0.1,0.2-0.2,0.2H13.2c-0.1,0-0.2-0.1-0.2-0.2v-9
		c0-0.1,0.1-0.2,0.2-0.2H32.9 M32.9,12.9H13.2c-0.5,0-0.9,0.4-0.9,0.9v9c0,0.5,0.4,0.9,0.9,0.9h19.7c0.5,0,0.9-0.4,0.9-0.9v-9
		C33.8,13.2,33.3,12.9,32.9,12.9L32.9,12.9z"/>
</g>
<g>
	<path class="st0" d="M32.9,38.8c0.1,0,0.2,0.1,0.2,0.2v9c0,0.2-0.1,0.2-0.2,0.2H13.2c-0.1,0-0.2-0.1-0.2-0.2v-9
		c0-0.1,0.1-0.2,0.2-0.2H32.9 M32.9,38.2H13.2c-0.5,0-0.9,0.4-0.9,0.9v9c0,0.5,0.4,0.9,0.9,0.9h19.7c0.5,0,0.9-0.4,0.9-0.9v-9
		C33.8,38.5,33.3,38.2,32.9,38.2L32.9,38.2z"/>
</g>
<g>
	<path class="st1" d="M0,23.6h9.4c0.5,0,0.9-0.4,0.9-0.9v-9c0-0.5-0.5-0.9-0.9-0.9H0"/>
	<path class="st1" d="M0,48.9h9.4c0.5,0,0.9-0.4,0.9-0.9v-9c0-0.5-0.5-0.9-0.9-0.9H0"/>
	<path class="st1" d="M0,12.9"/>
	<path class="st1" d="M0,23.6"/>
</g>
<g>
	<path class="st1" d="M46.8,12.9H36.7c-0.5,0-0.9,0.4-0.9,0.9v9c0,0.5,0.4,0.9,0.9,0.9h10.1"/>
	<path class="st1" d="M46.8,38.2H36.7c-0.5,0-0.9,0.4-0.9,0.9v9c0,0.5,0.4,0.9,0.9,0.9h10.1"/>
	<path class="st1" d="M51.7,23.6"/>
	<path class="st1" d="M51.7,12.9"/>
	<path class="st1" d="M51.7,48.9"/>
	<path class="st1" d="M51.7,38.2"/>
</g>
</svg>
