<?xml version="1.0" encoding="utf-8"?>
<!-- Generator: Adobe Illustrator 27.9.4, SVG Export Plug-In . SVG Version: 9.03 Build 54784)  -->
<svg version="1.1" id="Layer_1" xmlns="http://www.w3.org/2000/svg" xmlns:xlink="http://www.w3.org/1999/xlink" x="0px" y="0px"
	 viewBox="0 0 48.2 48.1" style="enable-background:new 0 0 48.2 48.1;" xml:space="preserve">
<style type="text/css">
	.st0{fill:#D0B000;}
</style>
<circle class="st0" cx="0.7" cy="0.6" r="0.8"/>
<circle class="st0" cx="6.7" cy="0.6" r="0.8"/>
<circle class="st0" cx="3.7" cy="3.6" r="0.8"/>
<circle class="st0" cx="0.7" cy="6.6" r="0.8"/>
<circle class="st0" cx="6.7" cy="6.6" r="0.8"/>
<circle class="st0" cx="12.7" cy="0.6" r="0.8"/>
<circle class="st0" cx="18.7" cy="0.6" r="0.8"/>
<circle class="st0" cx="15.7" cy="3.6" r="0.8"/>
<circle class="st0" cx="9.7" cy="3.6" r="0.8"/>
<circle class="st0" cx="12.7" cy="6.6" r="0.8"/>
<circle class="st0" cx="18.7" cy="6.6" r="0.8"/>
<circle class="st0" cx="24.7" cy="0.6" r="0.8"/>
<circle class="st0" cx="30.7" cy="0.6" r="0.8"/>
<circle class="st0" cx="27.7" cy="3.6" r="0.8"/>
<circle class="st0" cx="21.7" cy="3.6" r="0.8"/>
<circle class="st0" cx="24.7" cy="6.6" r="0.8"/>
<circle class="st0" cx="30.7" cy="6.6" r="0.8"/>
<circle class="st0" cx="36.7" cy="0.6" r="0.8"/>
<circle class="st0" cx="42.7" cy="0.6" r="0.8"/>
<circle class="st0" cx="39.7" cy="3.6" r="0.8"/>
<circle class="st0" cx="45.7" cy="3.6" r="0.8"/>
<circle class="st0" cx="33.7" cy="3.6" r="0.8"/>
<circle class="st0" cx="36.7" cy="6.6" r="0.8"/>
<circle class="st0" cx="42.7" cy="6.6" r="0.8"/>
<circle class="st0" cx="3.7" cy="9.6" r="0.8"/>
<circle class="st0" cx="9.7" cy="9.6" r="0.8"/>
<circle class="st0" cx="6.7" cy="12.6" r="0.8"/>
<circle class="st0" cx="0.7" cy="12.6" r="0.8"/>
<circle class="st0" cx="3.7" cy="15.6" r="0.8"/>
<circle class="st0" cx="9.7" cy="15.6" r="0.8"/>
<circle class="st0" cx="15.7" cy="9.6" r="0.8"/>
<circle class="st0" cx="21.7" cy="9.6" r="0.8"/>
<circle class="st0" cx="18.7" cy="12.6" r="0.8"/>
<circle class="st0" cx="12.7" cy="12.6" r="0.8"/>
<circle class="st0" cx="15.7" cy="15.6" r="0.8"/>
<circle class="st0" cx="21.7" cy="15.6" r="0.8"/>
<circle class="st0" cx="27.7" cy="9.6" r="0.8"/>
<circle class="st0" cx="33.7" cy="9.6" r="0.8"/>
<circle class="st0" cx="30.7" cy="12.6" r="0.8"/>
<circle class="st0" cx="24.7" cy="12.6" r="0.8"/>
<circle class="st0" cx="27.7" cy="15.6" r="0.8"/>
<circle class="st0" cx="33.6" cy="15.6" r="0.8"/>
<circle class="st0" cx="39.7" cy="9.6" r="0.8"/>
<circle class="st0" cx="45.7" cy="9.6" r="0.8"/>
<circle class="st0" cx="42.7" cy="12.6" r="0.8"/>
<circle class="st0" cx="36.7" cy="12.6" r="0.8"/>
<circle class="st0" cx="39.6" cy="15.6" r="0.8"/>
<circle class="st0" cx="45.7" cy="15.6" r="0.8"/>
<circle class="st0" cx="0.7" cy="18.6" r="0.8"/>
<circle class="st0" cx="6.7" cy="18.6" r="0.8"/>
<circle class="st0" cx="3.7" cy="21.5" r="0.8"/>
<circle class="st0" cx="0.7" cy="24.6" r="0.8"/>
<circle class="st0" cx="6.7" cy="24.6" r="0.8"/>
<circle class="st0" cx="12.7" cy="18.6" r="0.8"/>
<circle class="st0" cx="18.7" cy="18.6" r="0.8"/>
<circle class="st0" cx="15.6" cy="21.5" r="0.8"/>
<circle class="st0" cx="9.7" cy="21.5" r="0.8"/>
<circle class="st0" cx="12.7" cy="24.6" r="0.8"/>
<circle class="st0" cx="18.7" cy="24.6" r="0.8"/>
<circle class="st0" cx="24.7" cy="18.6" r="0.8"/>
<circle class="st0" cx="30.7" cy="18.6" r="0.8"/>
<circle class="st0" cx="27.7" cy="21.6" r="0.8"/>
<circle class="st0" cx="21.7" cy="21.6" r="0.8"/>
<circle class="st0" cx="24.7" cy="24.6" r="0.8"/>
<circle class="st0" cx="30.7" cy="24.6" r="0.8"/>
<circle class="st0" cx="36.7" cy="18.6" r="0.8"/>
<circle class="st0" cx="42.7" cy="18.6" r="0.8"/>
<circle class="st0" cx="39.7" cy="21.6" r="0.8"/>
<circle class="st0" cx="33.7" cy="21.6" r="0.8"/>
<circle class="st0" cx="36.7" cy="24.6" r="0.8"/>
<circle class="st0" cx="42.7" cy="24.6" r="0.8"/>
<circle class="st0" cx="3.7" cy="27.6" r="0.8"/>
<circle class="st0" cx="9.7" cy="27.6" r="0.8"/>
<circle class="st0" cx="6.7" cy="30.6" r="0.8"/>
<circle class="st0" cx="0.7" cy="30.6" r="0.8"/>
<circle class="st0" cx="3.7" cy="33.6" r="0.8"/>
<circle class="st0" cx="9.7" cy="33.6" r="0.8"/>
<circle class="st0" cx="15.7" cy="27.6" r="0.8"/>
<circle class="st0" cx="21.7" cy="27.6" r="0.8"/>
<circle class="st0" cx="18.7" cy="30.6" r="0.8"/>
<circle class="st0" cx="12.7" cy="30.6" r="0.8"/>
<circle class="st0" cx="15.7" cy="33.6" r="0.8"/>
<circle class="st0" cx="21.7" cy="33.6" r="0.8"/>
<circle class="st0" cx="27.7" cy="27.6" r="0.8"/>
<circle class="st0" cx="33.7" cy="27.6" r="0.8"/>
<circle class="st0" cx="30.7" cy="30.6" r="0.8"/>
<circle class="st0" cx="24.7" cy="30.6" r="0.8"/>
<circle class="st0" cx="27.7" cy="33.6" r="0.8"/>
<circle class="st0" cx="33.7" cy="33.6" r="0.8"/>
<circle class="st0" cx="39.7" cy="27.6" r="0.8"/>
<circle class="st0" cx="45.7" cy="27.6" r="0.8"/>
<circle class="st0" cx="45.7" cy="21.6" r="0.8"/>
<circle class="st0" cx="42.7" cy="30.6" r="0.8"/>
<circle class="st0" cx="36.7" cy="30.6" r="0.8"/>
<circle class="st0" cx="39.7" cy="33.6" r="0.8"/>
<circle class="st0" cx="45.7" cy="33.6" r="0.8"/>
<circle class="st0" cx="0.7" cy="36.5" r="0.8"/>
<circle class="st0" cx="6.7" cy="36.5" r="0.8"/>
<circle class="st0" cx="12.7" cy="36.5" r="0.8"/>
<circle class="st0" cx="18.7" cy="36.5" r="0.8"/>
<circle class="st0" cx="24.7" cy="36.5" r="0.8"/>
<circle class="st0" cx="30.7" cy="36.5" r="0.8"/>
<circle class="st0" cx="36.7" cy="36.5" r="0.8"/>
<circle class="st0" cx="42.7" cy="36.6" r="0.8"/>
<circle class="st0" cx="3.7" cy="39.6" r="0.8"/>
<circle class="st0" cx="9.7" cy="39.6" r="0.8"/>
<circle class="st0" cx="6.7" cy="42.5" r="0.8"/>
<circle class="st0" cx="0.7" cy="42.5" r="0.8"/>
<circle class="st0" cx="3.7" cy="45.6" r="0.8"/>
<circle class="st0" cx="9.7" cy="45.6" r="0.8"/>
<circle class="st0" cx="15.7" cy="39.6" r="0.8"/>
<circle class="st0" cx="21.7" cy="39.6" r="0.8"/>
<circle class="st0" cx="18.7" cy="42.6" r="0.8"/>
<circle class="st0" cx="12.7" cy="42.6" r="0.8"/>
<circle class="st0" cx="15.7" cy="45.6" r="0.8"/>
<circle class="st0" cx="21.7" cy="45.6" r="0.8"/>
<circle class="st0" cx="27.7" cy="39.6" r="0.8"/>
<circle class="st0" cx="33.7" cy="39.6" r="0.8"/>
<circle class="st0" cx="30.7" cy="42.5" r="0.8"/>
<circle class="st0" cx="24.7" cy="42.5" r="0.8"/>
<circle class="st0" cx="27.7" cy="45.6" r="0.8"/>
<circle class="st0" cx="33.7" cy="45.6" r="0.8"/>
<circle class="st0" cx="39.7" cy="39.6" r="0.8"/>
<circle class="st0" cx="45.7" cy="39.6" r="0.8"/>
<circle class="st0" cx="42.7" cy="42.6" r="0.8"/>
<circle class="st0" cx="36.7" cy="42.5" r="0.8"/>
<circle class="st0" cx="39.7" cy="45.6" r="0.8"/>
<circle class="st0" cx="45.7" cy="45.6" r="0.8"/>
</svg>
