<?xml version="1.0" encoding="UTF-8"?>
<svg id="Layer_1" data-name="Layer 1" xmlns="http://www.w3.org/2000/svg" viewBox="0 0 129.6 129.6">
  <defs>
    <style>
      .cls-1 {
        fill: none;
        stroke-width: 0px;
      }

      .cls-2 {
        fill: #fff;
        stroke: #ff2a00;
        stroke-miterlimit: 10;
        stroke-width: .5px;
      }
    </style>
  </defs>
  <rect class="cls-1" width="129.6" height="129.6"/>
  <g>
    <path class="cls-2" d="m-2.16,2.43c-2.26-.73-4.68.5-5.42,2.76-.14.43-.21.86-.21,1.28h0s0,3.12,0,3.12c0,0,.97,0,1.75.6s.97,1.38.97,1.38l2.95-.98c1.24-.42,2.28-1.4,2.72-2.74C1.34,5.59.1,3.17-2.16,2.43Z"/>
    <path class="cls-2" d="m3.5,14.72c0-2.37-1.92-4.3-4.3-4.3-.45,0-.88.07-1.29.2h0s-2.97.96-2.97.96c0,0,.31.92-.03,1.85s-1.01,1.35-1.01,1.35l1.84,2.5c.78,1.05,2.03,1.74,3.45,1.74,2.37,0,4.3-1.92,4.3-4.3Z"/>
  </g>
  <g>
    <circle class="cls-2" cx="18.14" cy="12.46" r="2.86"/>
    <path class="cls-2" d="m23.76,2.43c-2.26-.73-4.68.5-5.42,2.76-.14.43-.21.86-.21,1.28h0s0,3.12,0,3.12c0,0,.97,0,1.75.6s.97,1.38.97,1.38l2.95-.98c1.24-.42,2.28-1.4,2.72-2.74.73-2.26-.5-4.68-2.76-5.42Z"/>
    <path class="cls-2" d="m10.34,4c-1.4,1.92-.97,4.61.95,6,.36.26.75.46,1.16.6h0s2.97.97,2.97.97c0,0,.29-.92,1.11-1.48s1.61-.49,1.61-.49l-.02-3.11c-.01-1.31-.62-2.6-1.77-3.44-1.92-1.4-4.61-.97-6,.95Z"/>
    <path class="cls-2" d="m7.69,17.24c1.4,1.92,4.08,2.35,6,.95.36-.26.67-.57.93-.91h0s1.83-2.52,1.83-2.52c0,0-.79-.57-1.07-1.51s.03-1.68.03-1.68l-2.96-.94c-1.25-.39-2.67-.21-3.81.62-1.92,1.4-2.35,4.08-.95,6Z"/>
    <path class="cls-2" d="m19.47,23.86c2.26-.73,3.49-3.16,2.76-5.42-.14-.43-.34-.82-.58-1.16h0s-1.83-2.53-1.83-2.53c0,0-.78.58-1.77.55s-1.59-.55-1.59-.55l-1.81,2.53c-.76,1.07-1.03,2.47-.59,3.82.73,2.26,3.16,3.49,5.42,2.76Z"/>
    <path class="cls-2" d="m29.42,14.72c0-2.37-1.92-4.3-4.3-4.3-.45,0-.88.07-1.29.2h0s-2.97.96-2.97.96c0,0,.31.92-.03,1.85s-1.01,1.35-1.01,1.35l1.84,2.5c.78,1.05,2.03,1.74,3.45,1.74,2.37,0,4.3-1.92,4.3-4.3Z"/>
    <circle class="cls-2" cx="18.14" cy="12.46" r="3.5"/>
  </g>
  <g>
    <circle class="cls-2" cx="44.06" cy="12.46" r="2.86"/>
    <path class="cls-2" d="m49.68,2.43c-2.26-.73-4.68.5-5.42,2.76-.14.43-.21.86-.21,1.28h0s0,3.12,0,3.12c0,0,.97,0,1.75.6s.97,1.38.97,1.38l2.95-.98c1.24-.42,2.28-1.4,2.72-2.74.73-2.26-.5-4.68-2.76-5.42Z"/>
    <path class="cls-2" d="m36.26,4c-1.4,1.92-.97,4.61.95,6,.36.26.75.46,1.16.6h0s2.97.97,2.97.97c0,0,.29-.92,1.11-1.48s1.61-.49,1.61-.49l-.02-3.11c-.01-1.31-.62-2.6-1.77-3.44-1.92-1.4-4.61-.97-6,.95Z"/>
    <path class="cls-2" d="m33.61,17.24c1.4,1.92,4.08,2.35,6,.95.36-.26.67-.57.93-.91h0s1.83-2.52,1.83-2.52c0,0-.79-.57-1.07-1.51s.03-1.68.03-1.68l-2.96-.94c-1.25-.39-2.67-.21-3.81.62-1.92,1.4-2.35,4.08-.95,6Z"/>
    <path class="cls-2" d="m45.39,23.86c2.26-.73,3.49-3.16,2.76-5.42-.14-.43-.34-.82-.58-1.16h0s-1.83-2.53-1.83-2.53c0,0-.78.58-1.77.55s-1.59-.55-1.59-.55l-1.81,2.53c-.76,1.07-1.03,2.47-.59,3.82.73,2.26,3.16,3.49,5.42,2.76Z"/>
    <path class="cls-2" d="m55.34,14.72c0-2.37-1.92-4.3-4.3-4.3-.45,0-.88.07-1.29.2h0s-2.97.96-2.97.96c0,0,.31.92-.03,1.85s-1.01,1.35-1.01,1.35l1.84,2.5c.78,1.05,2.03,1.74,3.45,1.74,2.37,0,4.3-1.92,4.3-4.3Z"/>
    <circle class="cls-2" cx="44.06" cy="12.46" r="3.5"/>
  </g>
  <g>
    <circle class="cls-2" cx="69.98" cy="12.46" r="2.86"/>
    <path class="cls-2" d="m75.6,2.43c-2.26-.73-4.68.5-5.42,2.76-.14.43-.21.86-.21,1.28h0s0,3.12,0,3.12c0,0,.97,0,1.75.6s.97,1.38.97,1.38l2.95-.98c1.24-.42,2.28-1.4,2.72-2.74.73-2.26-.5-4.68-2.76-5.42Z"/>
    <path class="cls-2" d="m62.18,4c-1.4,1.92-.97,4.61.95,6,.36.26.75.46,1.16.6h0s2.97.97,2.97.97c0,0,.29-.92,1.11-1.48s1.61-.49,1.61-.49l-.02-3.11c-.01-1.31-.62-2.6-1.77-3.44-1.92-1.4-4.61-.97-6,.95Z"/>
    <path class="cls-2" d="m59.53,17.24c1.4,1.92,4.08,2.35,6,.95.36-.26.67-.57.93-.91h0s1.83-2.52,1.83-2.52c0,0-.79-.57-1.07-1.51s.03-1.68.03-1.68l-2.96-.94c-1.25-.39-2.67-.21-3.81.62-1.92,1.4-2.35,4.08-.95,6Z"/>
    <path class="cls-2" d="m71.31,23.86c2.26-.73,3.49-3.16,2.76-5.42-.14-.43-.34-.82-.58-1.16h0s-1.83-2.53-1.83-2.53c0,0-.78.58-1.77.55s-1.59-.55-1.59-.55l-1.81,2.53c-.76,1.07-1.03,2.47-.59,3.82.73,2.26,3.16,3.49,5.42,2.76Z"/>
    <path class="cls-2" d="m81.26,14.72c0-2.37-1.92-4.3-4.3-4.3-.45,0-.88.07-1.29.2h0s-2.97.96-2.97.96c0,0,.31.92-.03,1.85s-1.01,1.35-1.01,1.35l1.84,2.5c.78,1.05,2.03,1.74,3.45,1.74,2.37,0,4.3-1.92,4.3-4.3Z"/>
    <circle class="cls-2" cx="69.98" cy="12.46" r="3.5"/>
  </g>
  <g>
    <circle class="cls-2" cx="95.9" cy="12.46" r="2.86"/>
    <path class="cls-2" d="m101.52,2.43c-2.26-.73-4.68.5-5.42,2.76-.14.43-.21.86-.21,1.28h0s0,3.12,0,3.12c0,0,.97,0,1.75.6s.97,1.38.97,1.38l2.95-.98c1.24-.42,2.28-1.4,2.72-2.74.73-2.26-.5-4.68-2.76-5.42Z"/>
    <path class="cls-2" d="m88.1,4c-1.4,1.92-.97,4.61.95,6,.36.26.75.46,1.16.6h0s2.97.97,2.97.97c0,0,.29-.92,1.11-1.48s1.61-.49,1.61-.49l-.02-3.11c-.01-1.31-.62-2.6-1.77-3.44-1.92-1.4-4.61-.97-6,.95Z"/>
    <path class="cls-2" d="m85.45,17.24c1.4,1.92,4.08,2.35,6,.95.36-.26.67-.57.93-.91h0s1.83-2.52,1.83-2.52c0,0-.79-.57-1.07-1.51s.03-1.68.03-1.68l-2.96-.94c-1.25-.39-2.67-.21-3.81.62-1.92,1.4-2.35,4.08-.95,6Z"/>
    <path class="cls-2" d="m97.23,23.86c2.26-.73,3.49-3.16,2.76-5.42-.14-.43-.34-.82-.58-1.16h0s-1.83-2.53-1.83-2.53c0,0-.78.58-1.77.55s-1.59-.55-1.59-.55l-1.81,2.53c-.76,1.07-1.03,2.47-.59,3.82.73,2.26,3.16,3.49,5.42,2.76Z"/>
    <path class="cls-2" d="m107.18,14.72c0-2.37-1.92-4.3-4.3-4.3-.45,0-.88.07-1.29.2h0s-2.97.96-2.97.96c0,0,.31.92-.03,1.85s-1.01,1.35-1.01,1.35l1.84,2.5c.78,1.05,2.03,1.74,3.45,1.74,2.37,0,4.3-1.92,4.3-4.3Z"/>
    <circle class="cls-2" cx="95.9" cy="12.46" r="3.5"/>
  </g>
  <g>
    <circle class="cls-2" cx="121.82" cy="12.46" r="2.86"/>
    <path class="cls-2" d="m127.44,2.43c-2.26-.73-4.68.5-5.42,2.76-.14.43-.21.86-.21,1.28h0s0,3.12,0,3.12c0,0,.97,0,1.75.6s.97,1.38.97,1.38l2.95-.98c1.24-.42,2.28-1.4,2.72-2.74.73-2.26-.5-4.68-2.76-5.42Z"/>
    <path class="cls-2" d="m114.02,4c-1.4,1.92-.97,4.61.95,6,.36.26.75.46,1.16.6h0s2.97.97,2.97.97c0,0,.29-.92,1.11-1.48s1.61-.49,1.61-.49l-.02-3.11c-.01-1.31-.62-2.6-1.77-3.44-1.92-1.4-4.61-.97-6,.95Z"/>
    <path class="cls-2" d="m111.37,17.24c1.4,1.92,4.08,2.35,6,.95.36-.26.67-.57.93-.91h0s1.83-2.52,1.83-2.52c0,0-.79-.57-1.07-1.51s.03-1.68.03-1.68l-2.96-.94c-1.25-.39-2.67-.21-3.81.62-1.92,1.4-2.35,4.08-.95,6Z"/>
    <path class="cls-2" d="m123.15,23.86c2.26-.73,3.49-3.16,2.76-5.42-.14-.43-.34-.82-.58-1.16h0s-1.83-2.53-1.83-2.53c0,0-.78.58-1.77.55s-1.59-.55-1.59-.55l-1.81,2.53c-.76,1.07-1.03,2.47-.59,3.82.73,2.26,3.16,3.49,5.42,2.76Z"/>
    <path class="cls-2" d="m133.1,14.72c0-2.37-1.92-4.3-4.3-4.3-.45,0-.88.07-1.29.2h0s-2.97.96-2.97.96c0,0,.31.92-.03,1.85s-1.01,1.35-1.01,1.35l1.84,2.5c.78,1.05,2.03,1.74,3.45,1.74,2.37,0,4.3-1.92,4.3-4.3Z"/>
    <circle class="cls-2" cx="121.82" cy="12.46" r="3.5"/>
  </g>
  <g>
    <circle class="cls-2" cx="2.59" cy="38.38" r="2.86"/>
    <path class="cls-2" d="m8.21,28.35c-2.26-.73-4.68.5-5.42,2.76-.14.43-.21.86-.21,1.28h0s0,3.12,0,3.12c0,0,.97,0,1.75.6s.97,1.38.97,1.38l2.95-.98c1.24-.42,2.28-1.4,2.72-2.74.73-2.26-.5-4.68-2.76-5.42Z"/>
    <path class="cls-2" d="m-5.21,29.92c-1.4,1.92-.97,4.61.95,6,.36.26.75.46,1.16.6h0s2.97.97,2.97.97c0,0,.29-.92,1.11-1.48s1.61-.49,1.61-.49l-.02-3.11c-.01-1.31-.62-2.6-1.77-3.44-1.92-1.4-4.61-.97-6,.95Z"/>
    <path class="cls-2" d="m-7.87,43.16c1.4,1.92,4.08,2.35,6,.95.36-.26.67-.57.93-.91h0s1.83-2.52,1.83-2.52c0,0-.79-.57-1.07-1.51s.03-1.68.03-1.68l-2.96-.94c-1.25-.39-2.67-.21-3.81.62-1.92,1.4-2.35,4.08-.95,6Z"/>
    <path class="cls-2" d="m3.91,49.78c2.26-.73,3.49-3.16,2.76-5.42-.14-.43-.34-.82-.58-1.16h0s-1.83-2.53-1.83-2.53c0,0-.78.58-1.77.55s-1.59-.55-1.59-.55l-1.81,2.53c-.76,1.07-1.03,2.47-.59,3.82.73,2.26,3.16,3.49,5.42,2.76Z"/>
    <path class="cls-2" d="m13.87,40.64c0-2.37-1.92-4.3-4.3-4.3-.45,0-.88.07-1.29.2h0s-2.97.96-2.97.96c0,0,.31.92-.03,1.85s-1.01,1.35-1.01,1.35l1.84,2.5c.78,1.05,2.03,1.74,3.45,1.74,2.37,0,4.3-1.92,4.3-4.3Z"/>
    <circle class="cls-2" cx="2.59" cy="38.38" r="3.5"/>
  </g>
  <g>
    <circle class="cls-2" cx="28.51" cy="38.38" r="2.86"/>
    <path class="cls-2" d="m34.13,28.35c-2.26-.73-4.68.5-5.42,2.76-.14.43-.21.86-.21,1.28h0s0,3.12,0,3.12c0,0,.97,0,1.75.6s.97,1.38.97,1.38l2.95-.98c1.24-.42,2.28-1.4,2.72-2.74.73-2.26-.5-4.68-2.76-5.42Z"/>
    <path class="cls-2" d="m20.71,29.92c-1.4,1.92-.97,4.61.95,6,.36.26.75.46,1.16.6h0s2.97.97,2.97.97c0,0,.29-.92,1.11-1.48s1.61-.49,1.61-.49l-.02-3.11c-.01-1.31-.62-2.6-1.77-3.44-1.92-1.4-4.61-.97-6,.95Z"/>
    <path class="cls-2" d="m18.05,43.16c1.4,1.92,4.08,2.35,6,.95.36-.26.67-.57.93-.91h0s1.83-2.52,1.83-2.52c0,0-.79-.57-1.07-1.51s.03-1.68.03-1.68l-2.96-.94c-1.25-.39-2.67-.21-3.81.62-1.92,1.4-2.35,4.08-.95,6Z"/>
    <path class="cls-2" d="m29.83,49.78c2.26-.73,3.49-3.16,2.76-5.42-.14-.43-.34-.82-.58-1.16h0s-1.83-2.53-1.83-2.53c0,0-.78.58-1.77.55s-1.59-.55-1.59-.55l-1.81,2.53c-.76,1.07-1.03,2.47-.59,3.82.73,2.26,3.16,3.49,5.42,2.76Z"/>
    <path class="cls-2" d="m39.79,40.64c0-2.37-1.92-4.3-4.3-4.3-.45,0-.88.07-1.29.2h0s-2.97.96-2.97.96c0,0,.31.92-.03,1.85s-1.01,1.35-1.01,1.35l1.84,2.5c.78,1.05,2.03,1.74,3.45,1.74,2.37,0,4.3-1.92,4.3-4.3Z"/>
    <circle class="cls-2" cx="28.51" cy="38.38" r="3.5"/>
  </g>
  <g>
    <circle class="cls-2" cx="54.43" cy="38.38" r="2.86"/>
    <path class="cls-2" d="m60.05,28.35c-2.26-.73-4.68.5-5.42,2.76-.14.43-.21.86-.21,1.28h0s0,3.12,0,3.12c0,0,.97,0,1.75.6s.97,1.38.97,1.38l2.95-.98c1.24-.42,2.28-1.4,2.72-2.74.73-2.26-.5-4.68-2.76-5.42Z"/>
    <path class="cls-2" d="m46.63,29.92c-1.4,1.92-.97,4.61.95,6,.36.26.75.46,1.16.6h0s2.97.97,2.97.97c0,0,.29-.92,1.11-1.48s1.61-.49,1.61-.49l-.02-3.11c-.01-1.31-.62-2.6-1.77-3.44-1.92-1.4-4.61-.97-6,.95Z"/>
    <path class="cls-2" d="m43.97,43.16c1.4,1.92,4.08,2.35,6,.95.36-.26.67-.57.93-.91h0s1.83-2.52,1.83-2.52c0,0-.79-.57-1.07-1.51s.03-1.68.03-1.68l-2.96-.94c-1.25-.39-2.67-.21-3.81.62-1.92,1.4-2.35,4.08-.95,6Z"/>
    <path class="cls-2" d="m55.75,49.78c2.26-.73,3.49-3.16,2.76-5.42-.14-.43-.34-.82-.58-1.16h0s-1.83-2.53-1.83-2.53c0,0-.78.58-1.77.55s-1.59-.55-1.59-.55l-1.81,2.53c-.76,1.07-1.03,2.47-.59,3.82.73,2.26,3.16,3.49,5.42,2.76Z"/>
    <path class="cls-2" d="m65.71,40.64c0-2.37-1.92-4.3-4.3-4.3-.45,0-.88.07-1.29.2h0s-2.97.96-2.97.96c0,0,.31.92-.03,1.85s-1.01,1.35-1.01,1.35l1.84,2.5c.78,1.05,2.03,1.74,3.45,1.74,2.37,0,4.3-1.92,4.3-4.3Z"/>
    <circle class="cls-2" cx="54.43" cy="38.38" r="3.5"/>
  </g>
  <g>
    <circle class="cls-2" cx="80.35" cy="38.38" r="2.86"/>
    <path class="cls-2" d="m85.97,28.35c-2.26-.73-4.68.5-5.42,2.76-.14.43-.21.86-.21,1.28h0s0,3.12,0,3.12c0,0,.97,0,1.75.6s.97,1.38.97,1.38l2.95-.98c1.24-.42,2.28-1.4,2.72-2.74.73-2.26-.5-4.68-2.76-5.42Z"/>
    <path class="cls-2" d="m72.55,29.92c-1.4,1.92-.97,4.61.95,6,.36.26.75.46,1.16.6h0s2.97.97,2.97.97c0,0,.29-.92,1.11-1.48s1.61-.49,1.61-.49l-.02-3.11c-.01-1.31-.62-2.6-1.77-3.44-1.92-1.4-4.61-.97-6,.95Z"/>
    <path class="cls-2" d="m69.89,43.16c1.4,1.92,4.08,2.35,6,.95.36-.26.67-.57.93-.91h0s1.83-2.52,1.83-2.52c0,0-.79-.57-1.07-1.51s.03-1.68.03-1.68l-2.96-.94c-1.25-.39-2.67-.21-3.81.62-1.92,1.4-2.35,4.08-.95,6Z"/>
    <path class="cls-2" d="m81.67,49.78c2.26-.73,3.49-3.16,2.76-5.42-.14-.43-.34-.82-.58-1.16h0s-1.83-2.53-1.83-2.53c0,0-.78.58-1.77.55s-1.59-.55-1.59-.55l-1.81,2.53c-.76,1.07-1.03,2.47-.59,3.82.73,2.26,3.16,3.49,5.42,2.76Z"/>
    <path class="cls-2" d="m91.63,40.64c0-2.37-1.92-4.3-4.3-4.3-.45,0-.88.07-1.29.2h0s-2.97.96-2.97.96c0,0,.31.92-.03,1.85s-1.01,1.35-1.01,1.35l1.84,2.5c.78,1.05,2.03,1.74,3.45,1.74,2.37,0,4.3-1.92,4.3-4.3Z"/>
    <circle class="cls-2" cx="80.35" cy="38.38" r="3.5"/>
  </g>
  <g>
    <circle class="cls-2" cx="106.27" cy="38.38" r="2.86"/>
    <path class="cls-2" d="m111.89,28.35c-2.26-.73-4.68.5-5.42,2.76-.14.43-.21.86-.21,1.28h0s0,3.12,0,3.12c0,0,.97,0,1.75.6s.97,1.38.97,1.38l2.95-.98c1.24-.42,2.28-1.4,2.72-2.74.73-2.26-.5-4.68-2.76-5.42Z"/>
    <path class="cls-2" d="m98.47,29.92c-1.4,1.92-.97,4.61.95,6,.36.26.75.46,1.16.6h0s2.97.97,2.97.97c0,0,.29-.92,1.11-1.48s1.61-.49,1.61-.49l-.02-3.11c-.01-1.31-.62-2.6-1.77-3.44-1.92-1.4-4.61-.97-6,.95Z"/>
    <path class="cls-2" d="m95.81,43.16c1.4,1.92,4.08,2.35,6,.95.36-.26.67-.57.93-.91h0s1.83-2.52,1.83-2.52c0,0-.79-.57-1.07-1.51s.03-1.68.03-1.68l-2.96-.94c-1.25-.39-2.67-.21-3.81.62-1.92,1.4-2.35,4.08-.95,6Z"/>
    <path class="cls-2" d="m107.59,49.78c2.26-.73,3.49-3.16,2.76-5.42-.14-.43-.34-.82-.58-1.16h0s-1.83-2.53-1.83-2.53c0,0-.78.58-1.77.55s-1.59-.55-1.59-.55l-1.81,2.53c-.76,1.07-1.03,2.47-.59,3.82.73,2.26,3.16,3.49,5.42,2.76Z"/>
    <path class="cls-2" d="m117.55,40.64c0-2.37-1.92-4.3-4.3-4.3-.45,0-.88.07-1.29.2h0s-2.97.96-2.97.96c0,0,.31.92-.03,1.85s-1.01,1.35-1.01,1.35l1.84,2.5c.78,1.05,2.03,1.74,3.45,1.74,2.37,0,4.3-1.92,4.3-4.3Z"/>
    <circle class="cls-2" cx="106.27" cy="38.38" r="3.5"/>
  </g>
  <g>
    <circle class="cls-2" cx="132.19" cy="38.38" r="2.86"/>
    <path class="cls-2" d="m124.39,29.92c-1.4,1.92-.97,4.61.95,6,.36.26.75.46,1.16.6h0s2.97.97,2.97.97c0,0,.29-.92,1.11-1.48s1.61-.49,1.61-.49l-.02-3.11c-.01-1.31-.62-2.6-1.77-3.44-1.92-1.4-4.61-.97-6,.95Z"/>
    <path class="cls-2" d="m121.73,43.16c1.4,1.92,4.08,2.35,6,.95.36-.26.67-.57.93-.91h0s1.83-2.52,1.83-2.52c0,0-.79-.57-1.07-1.51s.03-1.68.03-1.68l-2.96-.94c-1.25-.39-2.67-.21-3.81.62-1.92,1.4-2.35,4.08-.95,6Z"/>
    <path class="cls-2" d="m133.51,49.78c2.26-.73,3.49-3.16,2.76-5.42-.14-.43-.34-.82-.58-1.16h0s-1.83-2.53-1.83-2.53c0,0-.78.58-1.77.55s-1.59-.55-1.59-.55l-1.81,2.53c-.76,1.07-1.03,2.47-.59,3.82.73,2.26,3.16,3.49,5.42,2.76Z"/>
    <circle class="cls-2" cx="132.19" cy="38.38" r="3.5"/>
  </g>
  <g>
    <circle class="cls-2" cx="12.95" cy="64.3" r="2.86"/>
    <path class="cls-2" d="m18.58,54.27c-2.26-.73-4.68.5-5.42,2.76-.14.43-.21.86-.21,1.28h0s0,3.12,0,3.12c0,0,.97,0,1.75.6s.97,1.38.97,1.38l2.95-.98c1.24-.42,2.28-1.4,2.72-2.74.73-2.26-.5-4.68-2.76-5.42Z"/>
    <path class="cls-2" d="m5.16,55.84c-1.4,1.92-.97,4.61.95,6,.36.26.75.46,1.16.6h0s2.97.97,2.97.97c0,0,.29-.92,1.11-1.48s1.61-.49,1.61-.49l-.02-3.11c-.01-1.31-.62-2.6-1.77-3.44-1.92-1.4-4.61-.97-6,.95Z"/>
    <path class="cls-2" d="m2.5,69.08c1.4,1.92,4.08,2.35,6,.95.36-.26.67-.57.93-.91h0s1.83-2.52,1.83-2.52c0,0-.79-.57-1.07-1.51s.03-1.68.03-1.68l-2.96-.94c-1.25-.39-2.67-.21-3.81.62-1.92,1.4-2.35,4.08-.95,6Z"/>
    <path class="cls-2" d="m14.28,75.7c2.26-.73,3.49-3.16,2.76-5.42-.14-.43-.34-.82-.58-1.16h0s-1.83-2.53-1.83-2.53c0,0-.78.58-1.77.55s-1.59-.55-1.59-.55l-1.81,2.53c-.76,1.07-1.03,2.47-.59,3.82.73,2.26,3.16,3.49,5.42,2.76Z"/>
    <path class="cls-2" d="m24.24,66.56c0-2.37-1.92-4.3-4.3-4.3-.45,0-.88.07-1.29.2h0s-2.97.96-2.97.96c0,0,.31.92-.03,1.85s-1.01,1.35-1.01,1.35l1.84,2.5c.78,1.05,2.03,1.74,3.45,1.74,2.37,0,4.3-1.92,4.3-4.3Z"/>
    <circle class="cls-2" cx="12.95" cy="64.3" r="3.5"/>
  </g>
  <g>
    <circle class="cls-2" cx="38.87" cy="64.3" r="2.86"/>
    <path class="cls-2" d="m44.5,54.27c-2.26-.73-4.68.5-5.42,2.76-.14.43-.21.86-.21,1.28h0s0,3.12,0,3.12c0,0,.97,0,1.75.6s.97,1.38.97,1.38l2.95-.98c1.24-.42,2.28-1.4,2.72-2.74.73-2.26-.5-4.68-2.76-5.42Z"/>
    <path class="cls-2" d="m31.08,55.84c-1.4,1.92-.97,4.61.95,6,.36.26.75.46,1.16.6h0s2.97.97,2.97.97c0,0,.29-.92,1.11-1.48s1.61-.49,1.61-.49l-.02-3.11c-.01-1.31-.62-2.6-1.77-3.44-1.92-1.4-4.61-.97-6,.95Z"/>
    <path class="cls-2" d="m28.42,69.08c1.4,1.92,4.08,2.35,6,.95.36-.26.67-.57.93-.91h0s1.83-2.52,1.83-2.52c0,0-.79-.57-1.07-1.51s.03-1.68.03-1.68l-2.96-.94c-1.25-.39-2.67-.21-3.81.62-1.92,1.4-2.35,4.08-.95,6Z"/>
    <path class="cls-2" d="m40.2,75.7c2.26-.73,3.49-3.16,2.76-5.42-.14-.43-.34-.82-.58-1.16h0s-1.83-2.53-1.83-2.53c0,0-.78.58-1.77.55s-1.59-.55-1.59-.55l-1.81,2.53c-.76,1.07-1.03,2.47-.59,3.82.73,2.26,3.16,3.49,5.42,2.76Z"/>
    <path class="cls-2" d="m50.16,66.56c0-2.37-1.92-4.3-4.3-4.3-.45,0-.88.07-1.29.2h0s-2.97.96-2.97.96c0,0,.31.92-.03,1.85s-1.01,1.35-1.01,1.35l1.84,2.5c.78,1.05,2.03,1.74,3.45,1.74,2.37,0,4.3-1.92,4.3-4.3Z"/>
    <circle class="cls-2" cx="38.87" cy="64.3" r="3.5"/>
  </g>
  <g>
    <circle class="cls-2" cx="64.79" cy="64.3" r="2.86"/>
    <path class="cls-2" d="m70.42,54.27c-2.26-.73-4.68.5-5.42,2.76-.14.43-.21.86-.21,1.28h0s0,3.12,0,3.12c0,0,.97,0,1.75.6s.97,1.38.97,1.38l2.95-.98c1.24-.42,2.28-1.4,2.72-2.74.73-2.26-.5-4.68-2.76-5.42Z"/>
    <path class="cls-2" d="m57,55.84c-1.4,1.92-.97,4.61.95,6,.36.26.75.46,1.16.6h0s2.97.97,2.97.97c0,0,.29-.92,1.11-1.48s1.61-.49,1.61-.49l-.02-3.11c-.01-1.31-.62-2.6-1.77-3.44-1.92-1.4-4.61-.97-6,.95Z"/>
    <path class="cls-2" d="m54.34,69.08c1.4,1.92,4.08,2.35,6,.95.36-.26.67-.57.93-.91h0s1.83-2.52,1.83-2.52c0,0-.79-.57-1.07-1.51s.03-1.68.03-1.68l-2.96-.94c-1.25-.39-2.67-.21-3.81.62-1.92,1.4-2.35,4.08-.95,6Z"/>
    <path class="cls-2" d="m66.12,75.7c2.26-.73,3.49-3.16,2.76-5.42-.14-.43-.34-.82-.58-1.16h0s-1.83-2.53-1.83-2.53c0,0-.78.58-1.77.55s-1.59-.55-1.59-.55l-1.81,2.53c-.76,1.07-1.03,2.47-.59,3.82.73,2.26,3.16,3.49,5.42,2.76Z"/>
    <path class="cls-2" d="m76.08,66.56c0-2.37-1.92-4.3-4.3-4.3-.45,0-.88.07-1.29.2h0s-2.97.96-2.97.96c0,0,.31.92-.03,1.85s-1.01,1.35-1.01,1.35l1.84,2.5c.78,1.05,2.03,1.74,3.45,1.74,2.37,0,4.3-1.92,4.3-4.3Z"/>
    <circle class="cls-2" cx="64.79" cy="64.3" r="3.5"/>
  </g>
  <g>
    <circle class="cls-2" cx="90.71" cy="64.3" r="2.86"/>
    <path class="cls-2" d="m96.34,54.27c-2.26-.73-4.68.5-5.42,2.76-.14.43-.21.86-.21,1.28h0s0,3.12,0,3.12c0,0,.97,0,1.75.6s.97,1.38.97,1.38l2.95-.98c1.24-.42,2.28-1.4,2.72-2.74.73-2.26-.5-4.68-2.76-5.42Z"/>
    <path class="cls-2" d="m82.92,55.84c-1.4,1.92-.97,4.61.95,6,.36.26.75.46,1.16.6h0s2.97.97,2.97.97c0,0,.29-.92,1.11-1.48s1.61-.49,1.61-.49l-.02-3.11c-.01-1.31-.62-2.6-1.77-3.44-1.92-1.4-4.61-.97-6,.95Z"/>
    <path class="cls-2" d="m80.26,69.08c1.4,1.92,4.08,2.35,6,.95.36-.26.67-.57.93-.91h0s1.83-2.52,1.83-2.52c0,0-.79-.57-1.07-1.51s.03-1.68.03-1.68l-2.96-.94c-1.25-.39-2.67-.21-3.81.62-1.92,1.4-2.35,4.08-.95,6Z"/>
    <path class="cls-2" d="m92.04,75.7c2.26-.73,3.49-3.16,2.76-5.42-.14-.43-.34-.82-.58-1.16h0s-1.83-2.53-1.83-2.53c0,0-.78.58-1.77.55s-1.59-.55-1.59-.55l-1.81,2.53c-.76,1.07-1.03,2.47-.59,3.82.73,2.26,3.16,3.49,5.42,2.76Z"/>
    <path class="cls-2" d="m102,66.56c0-2.37-1.92-4.3-4.3-4.3-.45,0-.88.07-1.29.2h0s-2.97.96-2.97.96c0,0,.31.92-.03,1.85s-1.01,1.35-1.01,1.35l1.84,2.5c.78,1.05,2.03,1.74,3.45,1.74,2.37,0,4.3-1.92,4.3-4.3Z"/>
    <circle class="cls-2" cx="90.71" cy="64.3" r="3.5"/>
  </g>
  <g>
    <circle class="cls-2" cx="116.63" cy="64.3" r="2.86"/>
    <path class="cls-2" d="m122.26,54.27c-2.26-.73-4.68.5-5.42,2.76-.14.43-.21.86-.21,1.28h0s0,3.12,0,3.12c0,0,.97,0,1.75.6s.97,1.38.97,1.38l2.95-.98c1.24-.42,2.28-1.4,2.72-2.74.73-2.26-.5-4.68-2.76-5.42Z"/>
    <path class="cls-2" d="m108.84,55.84c-1.4,1.92-.97,4.61.95,6,.36.26.75.46,1.16.6h0s2.97.97,2.97.97c0,0,.29-.92,1.11-1.48s1.61-.49,1.61-.49l-.02-3.11c-.01-1.31-.62-2.6-1.77-3.44-1.92-1.4-4.61-.97-6,.95Z"/>
    <path class="cls-2" d="m106.18,69.08c1.4,1.92,4.08,2.35,6,.95.36-.26.67-.57.93-.91h0s1.83-2.52,1.83-2.52c0,0-.79-.57-1.07-1.51s.03-1.68.03-1.68l-2.96-.94c-1.25-.39-2.67-.21-3.81.62-1.92,1.4-2.35,4.08-.95,6Z"/>
    <path class="cls-2" d="m117.96,75.7c2.26-.73,3.49-3.16,2.76-5.42-.14-.43-.34-.82-.58-1.16h0s-1.83-2.53-1.83-2.53c0,0-.78.58-1.77.55s-1.59-.55-1.59-.55l-1.81,2.53c-.76,1.07-1.03,2.47-.59,3.82.73,2.26,3.16,3.49,5.42,2.76Z"/>
    <path class="cls-2" d="m127.92,66.56c0-2.37-1.92-4.3-4.3-4.3-.45,0-.88.07-1.29.2h0s-2.97.96-2.97.96c0,0,.31.92-.03,1.85s-1.01,1.35-1.01,1.35l1.84,2.5c.78,1.05,2.03,1.74,3.45,1.74,2.37,0,4.3-1.92,4.3-4.3Z"/>
    <circle class="cls-2" cx="116.63" cy="64.3" r="3.5"/>
  </g>
  <g>
    <circle class="cls-2" cx="-2.6" cy="90.22" r="2.86"/>
    <path class="cls-2" d="m3.03,80.19c-2.26-.73-4.68.5-5.42,2.76-.14.43-.21.86-.21,1.28h0s0,3.12,0,3.12c0,0,.97,0,1.75.6s.97,1.38.97,1.38l2.95-.98c1.24-.42,2.28-1.4,2.72-2.74.73-2.26-.5-4.68-2.76-5.42Z"/>
    <path class="cls-2" d="m-1.27,101.62c2.26-.73,3.49-3.16,2.76-5.42-.14-.43-.34-.82-.58-1.16h0s-1.83-2.53-1.83-2.53c0,0-.78.58-1.77.55s-1.59-.55-1.59-.55l-1.81,2.53c-.76,1.07-1.03,2.47-.59,3.82.73,2.26,3.16,3.49,5.42,2.76Z"/>
    <path class="cls-2" d="m8.69,92.48c0-2.37-1.92-4.3-4.3-4.3-.45,0-.88.07-1.29.2h0s-2.97.96-2.97.96c0,0,.31.92-.03,1.85s-1.01,1.35-1.01,1.35l1.84,2.5c.78,1.05,2.03,1.74,3.45,1.74,2.37,0,4.3-1.92,4.3-4.3Z"/>
    <circle class="cls-2" cx="-2.6" cy="90.22" r="3.5"/>
  </g>
  <g>
    <circle class="cls-2" cx="23.32" cy="90.22" r="2.86"/>
    <path class="cls-2" d="m28.95,80.19c-2.26-.73-4.68.5-5.42,2.76-.14.43-.21.86-.21,1.28h0s0,3.12,0,3.12c0,0,.97,0,1.75.6s.97,1.38.97,1.38l2.95-.98c1.24-.42,2.28-1.4,2.72-2.74.73-2.26-.5-4.68-2.76-5.42Z"/>
    <path class="cls-2" d="m15.53,81.76c-1.4,1.92-.97,4.61.95,6,.36.26.75.46,1.16.6h0s2.97.97,2.97.97c0,0,.29-.92,1.11-1.48s1.61-.49,1.61-.49l-.02-3.11c-.01-1.31-.62-2.6-1.77-3.44-1.92-1.4-4.61-.97-6,.95Z"/>
    <path class="cls-2" d="m12.87,95c1.4,1.92,4.08,2.35,6,.95.36-.26.67-.57.93-.91h0s1.83-2.52,1.83-2.52c0,0-.79-.57-1.07-1.51s.03-1.68.03-1.68l-2.96-.94c-1.25-.39-2.67-.21-3.81.62-1.92,1.4-2.35,4.08-.95,6Z"/>
    <path class="cls-2" d="m24.65,101.62c2.26-.73,3.49-3.16,2.76-5.42-.14-.43-.34-.82-.58-1.16h0s-1.83-2.53-1.83-2.53c0,0-.78.58-1.77.55s-1.59-.55-1.59-.55l-1.81,2.53c-.76,1.07-1.03,2.47-.59,3.82.73,2.26,3.16,3.49,5.42,2.76Z"/>
    <path class="cls-2" d="m34.61,92.48c0-2.37-1.92-4.3-4.3-4.3-.45,0-.88.07-1.29.2h0s-2.97.96-2.97.96c0,0,.31.92-.03,1.85s-1.01,1.35-1.01,1.35l1.84,2.5c.78,1.05,2.03,1.74,3.45,1.74,2.37,0,4.3-1.92,4.3-4.3Z"/>
    <circle class="cls-2" cx="23.32" cy="90.22" r="3.5"/>
  </g>
  <g>
    <circle class="cls-2" cx="49.24" cy="90.22" r="2.86"/>
    <path class="cls-2" d="m54.87,80.19c-2.26-.73-4.68.5-5.42,2.76-.14.43-.21.86-.21,1.28h0s0,3.12,0,3.12c0,0,.97,0,1.75.6s.97,1.38.97,1.38l2.95-.98c1.24-.42,2.28-1.4,2.72-2.74.73-2.26-.5-4.68-2.76-5.42Z"/>
    <path class="cls-2" d="m41.45,81.76c-1.4,1.92-.97,4.61.95,6,.36.26.75.46,1.16.6h0s2.97.97,2.97.97c0,0,.29-.92,1.11-1.48s1.61-.49,1.61-.49l-.02-3.11c-.01-1.31-.62-2.6-1.77-3.44-1.92-1.4-4.61-.97-6,.95Z"/>
    <path class="cls-2" d="m38.79,95c1.4,1.92,4.08,2.35,6,.95.36-.26.67-.57.93-.91h0s1.83-2.52,1.83-2.52c0,0-.79-.57-1.07-1.51s.03-1.68.03-1.68l-2.96-.94c-1.25-.39-2.67-.21-3.81.62-1.92,1.4-2.35,4.08-.95,6Z"/>
    <path class="cls-2" d="m50.57,101.62c2.26-.73,3.49-3.16,2.76-5.42-.14-.43-.34-.82-.58-1.16h0s-1.83-2.53-1.83-2.53c0,0-.78.58-1.77.55s-1.59-.55-1.59-.55l-1.81,2.53c-.76,1.07-1.03,2.47-.59,3.82.73,2.26,3.16,3.49,5.42,2.76Z"/>
    <path class="cls-2" d="m60.53,92.48c0-2.37-1.92-4.3-4.3-4.3-.45,0-.88.07-1.29.2h0s-2.97.96-2.97.96c0,0,.31.92-.03,1.85s-1.01,1.35-1.01,1.35l1.84,2.5c.78,1.05,2.03,1.74,3.45,1.74,2.37,0,4.3-1.92,4.3-4.3Z"/>
    <circle class="cls-2" cx="49.24" cy="90.22" r="3.5"/>
  </g>
  <g>
    <circle class="cls-2" cx="75.16" cy="90.22" r="2.86"/>
    <path class="cls-2" d="m80.79,80.19c-2.26-.73-4.68.5-5.42,2.76-.14.43-.21.86-.21,1.28h0s0,3.12,0,3.12c0,0,.97,0,1.75.6s.97,1.38.97,1.38l2.95-.98c1.24-.42,2.28-1.4,2.72-2.74.73-2.26-.5-4.68-2.76-5.42Z"/>
    <path class="cls-2" d="m67.37,81.76c-1.4,1.92-.97,4.61.95,6,.36.26.75.46,1.16.6h0s2.97.97,2.97.97c0,0,.29-.92,1.11-1.48s1.61-.49,1.61-.49l-.02-3.11c-.01-1.31-.62-2.6-1.77-3.44-1.92-1.4-4.61-.97-6,.95Z"/>
    <path class="cls-2" d="m64.71,95c1.4,1.92,4.08,2.35,6,.95.36-.26.67-.57.93-.91h0s1.83-2.52,1.83-2.52c0,0-.79-.57-1.07-1.51s.03-1.68.03-1.68l-2.96-.94c-1.25-.39-2.67-.21-3.81.62-1.92,1.4-2.35,4.08-.95,6Z"/>
    <path class="cls-2" d="m76.49,101.62c2.26-.73,3.49-3.16,2.76-5.42-.14-.43-.34-.82-.58-1.16h0s-1.83-2.53-1.83-2.53c0,0-.78.58-1.77.55s-1.59-.55-1.59-.55l-1.81,2.53c-.76,1.07-1.03,2.47-.59,3.82.73,2.26,3.16,3.49,5.42,2.76Z"/>
    <path class="cls-2" d="m86.45,92.48c0-2.37-1.92-4.3-4.3-4.3-.45,0-.88.07-1.29.2h0s-2.97.96-2.97.96c0,0,.31.92-.03,1.85s-1.01,1.35-1.01,1.35l1.84,2.5c.78,1.05,2.03,1.74,3.45,1.74,2.37,0,4.3-1.92,4.3-4.3Z"/>
    <circle class="cls-2" cx="75.16" cy="90.22" r="3.5"/>
  </g>
  <g>
    <circle class="cls-2" cx="101.08" cy="90.22" r="2.86"/>
    <path class="cls-2" d="m106.71,80.19c-2.26-.73-4.68.5-5.42,2.76-.14.43-.21.86-.21,1.28h0s0,3.12,0,3.12c0,0,.97,0,1.75.6s.97,1.38.97,1.38l2.95-.98c1.24-.42,2.28-1.4,2.72-2.74.73-2.26-.5-4.68-2.76-5.42Z"/>
    <path class="cls-2" d="m93.29,81.76c-1.4,1.92-.97,4.61.95,6,.36.26.75.46,1.16.6h0s2.97.97,2.97.97c0,0,.29-.92,1.11-1.48s1.61-.49,1.61-.49l-.02-3.11c-.01-1.31-.62-2.6-1.77-3.44-1.92-1.4-4.61-.97-6,.95Z"/>
    <path class="cls-2" d="m90.63,95c1.4,1.92,4.08,2.35,6,.95.36-.26.67-.57.93-.91h0s1.83-2.52,1.83-2.52c0,0-.79-.57-1.07-1.51s.03-1.68.03-1.68l-2.96-.94c-1.25-.39-2.67-.21-3.81.62-1.92,1.4-2.35,4.08-.95,6Z"/>
    <path class="cls-2" d="m102.41,101.62c2.26-.73,3.49-3.16,2.76-5.42-.14-.43-.34-.82-.58-1.16h0s-1.83-2.53-1.83-2.53c0,0-.78.58-1.77.55s-1.59-.55-1.59-.55l-1.81,2.53c-.76,1.07-1.03,2.47-.59,3.82.73,2.26,3.16,3.49,5.42,2.76Z"/>
    <path class="cls-2" d="m112.37,92.48c0-2.37-1.92-4.3-4.3-4.3-.45,0-.88.07-1.29.2h0s-2.97.96-2.97.96c0,0,.31.92-.03,1.85s-1.01,1.35-1.01,1.35l1.84,2.5c.78,1.05,2.03,1.74,3.45,1.74,2.37,0,4.3-1.92,4.3-4.3Z"/>
    <circle class="cls-2" cx="101.08" cy="90.22" r="3.5"/>
  </g>
  <g>
    <circle class="cls-2" cx="127" cy="90.22" r="2.86"/>
    <path class="cls-2" d="m132.63,80.19c-2.26-.73-4.68.5-5.42,2.76-.14.43-.21.86-.21,1.28h0s0,3.12,0,3.12c0,0,.97,0,1.75.6s.97,1.38.97,1.38l2.95-.98c1.24-.42,2.28-1.4,2.72-2.74.73-2.26-.5-4.68-2.76-5.42Z"/>
    <path class="cls-2" d="m119.21,81.76c-1.4,1.92-.97,4.61.95,6,.36.26.75.46,1.16.6h0s2.97.97,2.97.97c0,0,.29-.92,1.11-1.48s1.61-.49,1.61-.49l-.02-3.11c-.01-1.31-.62-2.6-1.77-3.44-1.92-1.4-4.61-.97-6,.95Z"/>
    <path class="cls-2" d="m116.55,95c1.4,1.92,4.08,2.35,6,.95.36-.26.67-.57.93-.91h0s1.83-2.52,1.83-2.52c0,0-.79-.57-1.07-1.51s.03-1.68.03-1.68l-2.96-.94c-1.25-.39-2.67-.21-3.81.62-1.92,1.4-2.35,4.08-.95,6Z"/>
    <path class="cls-2" d="m128.33,101.62c2.26-.73,3.49-3.16,2.76-5.42-.14-.43-.34-.82-.58-1.16h0s-1.83-2.53-1.83-2.53c0,0-.78.58-1.77.55s-1.59-.55-1.59-.55l-1.81,2.53c-.76,1.07-1.03,2.47-.59,3.82.73,2.26,3.16,3.49,5.42,2.76Z"/>
    <path class="cls-2" d="m138.29,92.48c0-2.37-1.92-4.3-4.3-4.3-.45,0-.88.07-1.29.2h0s-2.97.96-2.97.96c0,0,.31.92-.03,1.85s-1.01,1.35-1.01,1.35l1.84,2.5c.78,1.05,2.03,1.74,3.45,1.74,2.37,0,4.3-1.92,4.3-4.3Z"/>
    <circle class="cls-2" cx="127" cy="90.22" r="3.5"/>
  </g>
  <g>
    <circle class="cls-2" cx="7.77" cy="116.14" r="2.86"/>
    <path class="cls-2" d="m13.4,106.11c-2.26-.73-4.68.5-5.42,2.76-.14.43-.21.86-.21,1.28h0s0,3.12,0,3.12c0,0,.97,0,1.75.6s.97,1.38.97,1.38l2.95-.98c1.24-.42,2.28-1.4,2.72-2.74.73-2.26-.5-4.68-2.76-5.42Z"/>
    <path class="cls-2" d="m-.02,107.68c-1.4,1.92-.97,4.61.95,6,.36.26.75.46,1.16.6h0s2.97.97,2.97.97c0,0,.29-.92,1.11-1.48s1.61-.49,1.61-.49l-.02-3.11c-.01-1.31-.62-2.6-1.77-3.44-1.92-1.4-4.61-.97-6,.95Z"/>
    <path class="cls-2" d="m-2.68,120.92c1.4,1.92,4.08,2.35,6,.95.36-.26.67-.57.93-.91h0s1.83-2.52,1.83-2.52c0,0-.79-.57-1.07-1.51s.03-1.68.03-1.68l-2.96-.94c-1.25-.39-2.67-.21-3.81.62-1.92,1.4-2.35,4.08-.95,6Z"/>
    <path class="cls-2" d="m9.1,127.54c2.26-.73,3.49-3.16,2.76-5.42-.14-.43-.34-.82-.58-1.16h0s-1.83-2.53-1.83-2.53c0,0-.78.58-1.77.55s-1.59-.55-1.59-.55l-1.81,2.53c-.76,1.07-1.03,2.47-.59,3.82.73,2.26,3.16,3.49,5.42,2.76Z"/>
    <path class="cls-2" d="m19.05,118.4c0-2.37-1.92-4.3-4.3-4.3-.45,0-.88.07-1.29.2h0s-2.97.96-2.97.96c0,0,.31.92-.03,1.85s-1.01,1.35-1.01,1.35l1.84,2.5c.78,1.05,2.03,1.74,3.45,1.74,2.37,0,4.3-1.92,4.3-4.3Z"/>
    <circle class="cls-2" cx="7.77" cy="116.14" r="3.5"/>
  </g>
  <g>
    <circle class="cls-2" cx="33.69" cy="116.14" r="2.86"/>
    <path class="cls-2" d="m39.32,106.11c-2.26-.73-4.68.5-5.42,2.76-.14.43-.21.86-.21,1.28h0s0,3.12,0,3.12c0,0,.97,0,1.75.6s.97,1.38.97,1.38l2.95-.98c1.24-.42,2.28-1.4,2.72-2.74.73-2.26-.5-4.68-2.76-5.42Z"/>
    <path class="cls-2" d="m25.9,107.68c-1.4,1.92-.97,4.61.95,6,.36.26.75.46,1.16.6h0s2.97.97,2.97.97c0,0,.29-.92,1.11-1.48s1.61-.49,1.61-.49l-.02-3.11c-.01-1.31-.62-2.6-1.77-3.44-1.92-1.4-4.61-.97-6,.95Z"/>
    <path class="cls-2" d="m23.24,120.92c1.4,1.92,4.08,2.35,6,.95.36-.26.67-.57.93-.91h0s1.83-2.52,1.83-2.52c0,0-.79-.57-1.07-1.51s.03-1.68.03-1.68l-2.96-.94c-1.25-.39-2.67-.21-3.81.62-1.92,1.4-2.35,4.08-.95,6Z"/>
    <path class="cls-2" d="m35.02,127.54c2.26-.73,3.49-3.16,2.76-5.42-.14-.43-.34-.82-.58-1.16h0s-1.83-2.53-1.83-2.53c0,0-.78.58-1.77.55s-1.59-.55-1.59-.55l-1.81,2.53c-.76,1.07-1.03,2.47-.59,3.82.73,2.26,3.16,3.49,5.42,2.76Z"/>
    <path class="cls-2" d="m44.97,118.4c0-2.37-1.92-4.3-4.3-4.3-.45,0-.88.07-1.29.2h0s-2.97.96-2.97.96c0,0,.31.92-.03,1.85s-1.01,1.35-1.01,1.35l1.84,2.5c.78,1.05,2.03,1.74,3.45,1.74,2.37,0,4.3-1.92,4.3-4.3Z"/>
    <circle class="cls-2" cx="33.69" cy="116.14" r="3.5"/>
  </g>
  <g>
    <circle class="cls-2" cx="59.61" cy="116.14" r="2.86"/>
    <path class="cls-2" d="m65.24,106.11c-2.26-.73-4.68.5-5.42,2.76-.14.43-.21.86-.21,1.28h0s0,3.12,0,3.12c0,0,.97,0,1.75.6s.97,1.38.97,1.38l2.95-.98c1.24-.42,2.28-1.4,2.72-2.74.73-2.26-.5-4.68-2.76-5.42Z"/>
    <path class="cls-2" d="m51.82,107.68c-1.4,1.92-.97,4.61.95,6,.36.26.75.46,1.16.6h0s2.97.97,2.97.97c0,0,.29-.92,1.11-1.48s1.61-.49,1.61-.49l-.02-3.11c-.01-1.31-.62-2.6-1.77-3.44-1.92-1.4-4.61-.97-6,.95Z"/>
    <path class="cls-2" d="m49.16,120.92c1.4,1.92,4.08,2.35,6,.95.36-.26.67-.57.93-.91h0s1.83-2.52,1.83-2.52c0,0-.79-.57-1.07-1.51s.03-1.68.03-1.68l-2.96-.94c-1.25-.39-2.67-.21-3.81.62-1.92,1.4-2.35,4.08-.95,6Z"/>
    <path class="cls-2" d="m60.94,127.54c2.26-.73,3.49-3.16,2.76-5.42-.14-.43-.34-.82-.58-1.16h0s-1.83-2.53-1.83-2.53c0,0-.78.58-1.77.55s-1.59-.55-1.59-.55l-1.81,2.53c-.76,1.07-1.03,2.47-.59,3.82.73,2.26,3.16,3.49,5.42,2.76Z"/>
    <path class="cls-2" d="m70.89,118.4c0-2.37-1.92-4.3-4.3-4.3-.45,0-.88.07-1.29.2h0s-2.97.96-2.97.96c0,0,.31.92-.03,1.85s-1.01,1.35-1.01,1.35l1.84,2.5c.78,1.05,2.03,1.74,3.45,1.74,2.37,0,4.3-1.92,4.3-4.3Z"/>
    <circle class="cls-2" cx="59.61" cy="116.14" r="3.5"/>
  </g>
  <g>
    <circle class="cls-2" cx="85.53" cy="116.14" r="2.86"/>
    <path class="cls-2" d="m91.16,106.11c-2.26-.73-4.68.5-5.42,2.76-.14.43-.21.86-.21,1.28h0s0,3.12,0,3.12c0,0,.97,0,1.75.6s.97,1.38.97,1.38l2.95-.98c1.24-.42,2.28-1.4,2.72-2.74.73-2.26-.5-4.68-2.76-5.42Z"/>
    <path class="cls-2" d="m77.74,107.68c-1.4,1.92-.97,4.61.95,6,.36.26.75.46,1.16.6h0s2.97.97,2.97.97c0,0,.29-.92,1.11-1.48s1.61-.49,1.61-.49l-.02-3.11c-.01-1.31-.62-2.6-1.77-3.44-1.92-1.4-4.61-.97-6,.95Z"/>
    <path class="cls-2" d="m75.08,120.92c1.4,1.92,4.08,2.35,6,.95.36-.26.67-.57.93-.91h0s1.83-2.52,1.83-2.52c0,0-.79-.57-1.07-1.51s.03-1.68.03-1.68l-2.96-.94c-1.25-.39-2.67-.21-3.81.62-1.92,1.4-2.35,4.08-.95,6Z"/>
    <path class="cls-2" d="m86.86,127.54c2.26-.73,3.49-3.16,2.76-5.42-.14-.43-.34-.82-.58-1.16h0s-1.83-2.53-1.83-2.53c0,0-.78.58-1.77.55s-1.59-.55-1.59-.55l-1.81,2.53c-.76,1.07-1.03,2.47-.59,3.82.73,2.26,3.16,3.49,5.42,2.76Z"/>
    <path class="cls-2" d="m96.81,118.4c0-2.37-1.92-4.3-4.3-4.3-.45,0-.88.07-1.29.2h0s-2.97.96-2.97.96c0,0,.31.92-.03,1.85s-1.01,1.35-1.01,1.35l1.84,2.5c.78,1.05,2.03,1.74,3.45,1.74,2.37,0,4.3-1.92,4.3-4.3Z"/>
    <circle class="cls-2" cx="85.53" cy="116.14" r="3.5"/>
  </g>
  <g>
    <circle class="cls-2" cx="111.45" cy="116.14" r="2.86"/>
    <path class="cls-2" d="m117.08,106.11c-2.26-.73-4.68.5-5.42,2.76-.14.43-.21.86-.21,1.28h0s0,3.12,0,3.12c0,0,.97,0,1.75.6s.97,1.38.97,1.38l2.95-.98c1.24-.42,2.28-1.4,2.72-2.74.73-2.26-.5-4.68-2.76-5.42Z"/>
    <path class="cls-2" d="m103.66,107.68c-1.4,1.92-.97,4.61.95,6,.36.26.75.46,1.16.6h0s2.97.97,2.97.97c0,0,.29-.92,1.11-1.48s1.61-.49,1.61-.49l-.02-3.11c-.01-1.31-.62-2.6-1.77-3.44-1.92-1.4-4.61-.97-6,.95Z"/>
    <path class="cls-2" d="m101,120.92c1.4,1.92,4.08,2.35,6,.95.36-.26.67-.57.93-.91h0s1.83-2.52,1.83-2.52c0,0-.79-.57-1.07-1.51s.03-1.68.03-1.68l-2.96-.94c-1.25-.39-2.67-.21-3.81.62-1.92,1.4-2.35,4.08-.95,6Z"/>
    <path class="cls-2" d="m112.78,127.54c2.26-.73,3.49-3.16,2.76-5.42-.14-.43-.34-.82-.58-1.16h0s-1.83-2.53-1.83-2.53c0,0-.78.58-1.77.55s-1.59-.55-1.59-.55l-1.81,2.53c-.76,1.07-1.03,2.47-.59,3.82.73,2.26,3.16,3.49,5.42,2.76Z"/>
    <path class="cls-2" d="m122.73,118.4c0-2.37-1.92-4.3-4.3-4.3-.45,0-.88.07-1.29.2h0s-2.97.96-2.97.96c0,0,.31.92-.03,1.85s-1.01,1.35-1.01,1.35l1.84,2.5c.78,1.05,2.03,1.74,3.45,1.74,2.37,0,4.3-1.92,4.3-4.3Z"/>
    <circle class="cls-2" cx="111.45" cy="116.14" r="3.5"/>
  </g>
  <g>
    <path class="cls-2" d="m129.58,107.68c-1.4,1.92-.97,4.61.95,6,.36.26.75.46,1.16.6h0s2.97.97,2.97.97c0,0,.29-.92,1.11-1.48s1.61-.49,1.61-.49l-.02-3.11c-.01-1.31-.62-2.6-1.77-3.44-1.92-1.4-4.61-.97-6,.95Z"/>
    <path class="cls-2" d="m126.92,120.92c1.4,1.92,4.08,2.35,6,.95.36-.26.67-.57.93-.91h0s1.83-2.52,1.83-2.52c0,0-.79-.57-1.07-1.51s.03-1.68.03-1.68l-2.96-.94c-1.25-.39-2.67-.21-3.81.62-1.92,1.4-2.35,4.08-.95,6Z"/>
  </g>
</svg>