<?xml version="1.0" encoding="utf-8"?>
<!-- Generator: Adobe Illustrator 27.9.4, SVG Export Plug-In . SVG Version: 9.03 Build 54784)  -->
<svg version="1.1" id="Layer_1" xmlns="http://www.w3.org/2000/svg" xmlns:xlink="http://www.w3.org/1999/xlink" x="0px" y="0px"
	 viewBox="0 0 130 130" style="enable-background:new 0 0 130 130;" xml:space="preserve">
<style type="text/css">
	.st0{fill:none;}
	.st1{fill:#FFFFFF;stroke:#FF2A00;stroke-width:0.5;stroke-miterlimit:10;}
</style>
<rect x="0.2" y="0.2" class="st0" width="129.6" height="129.6"/>
<g>
	<path class="st1" d="M-2,2.6c-2.3-0.7-4.7,0.5-5.4,2.8c-0.1,0.4-0.2,0.9-0.2,1.3l0,0v3.1c0,0,1,0,1.8,0.6s1,1.4,1,1.4l3-1
		c1.2-0.4,2.3-1.4,2.7-2.7C1.5,5.8,0.3,3.4-2,2.6z"/>
	<path class="st1" d="M3.7,14.9c0-2.4-1.9-4.3-4.3-4.3c-0.5,0-0.9,0.1-1.3,0.2l0,0l-3,1c0,0,0.3,0.9,0,1.9s-1,1.4-1,1.4l1.8,2.5
		c0.8,1,2,1.7,3.5,1.7C1.8,19.2,3.7,17.3,3.7,14.9L3.7,14.9z"/>
</g>
<g>
	<circle class="st1" cx="18.3" cy="12.7" r="2.9"/>
	<path class="st1" d="M24,2.6c-2.3-0.7-4.7,0.5-5.4,2.8c-0.1,0.4-0.2,0.9-0.2,1.3l0,0v3.1c0,0,1,0,1.8,0.6s1,1.4,1,1.4l3-1
		c1.2-0.4,2.3-1.4,2.7-2.7C27.4,5.8,26.2,3.4,24,2.6z"/>
	<path class="st1" d="M10.5,4.2c-1.4,1.9-1,4.6,0.9,6c0.4,0.3,0.8,0.5,1.2,0.6l0,0l3,1c0,0,0.3-0.9,1.1-1.5c0.8-0.6,1.6-0.5,1.6-0.5
		l0-3.1c0-1.3-0.6-2.6-1.8-3.4C14.6,1.8,11.9,2.3,10.5,4.2L10.5,4.2z"/>
	<path class="st1" d="M7.9,17.4c1.4,1.9,4.1,2.4,6,1c0.4-0.3,0.7-0.6,0.9-0.9l0,0l1.8-2.5c0,0-0.8-0.6-1.1-1.5s0-1.7,0-1.7l-3-0.9
		c-1.2-0.4-2.7-0.2-3.8,0.6C6.9,12.8,6.5,15.5,7.9,17.4L7.9,17.4z"/>
	<path class="st1" d="M19.7,24.1c2.3-0.7,3.5-3.2,2.8-5.4c-0.1-0.4-0.3-0.8-0.6-1.2l0,0L20,14.9c0,0-0.8,0.6-1.8,0.6
		s-1.6-0.6-1.6-0.6l-1.8,2.5c-0.8,1.1-1,2.5-0.6,3.8C15,23.6,17.4,24.8,19.7,24.1L19.7,24.1z"/>
	<path class="st1" d="M29.6,14.9c0-2.4-1.9-4.3-4.3-4.3c-0.5,0-0.9,0.1-1.3,0.2l0,0l-3,1c0,0,0.3,0.9,0,1.9S20,15,20,15l1.8,2.5
		c0.8,1,2,1.7,3.5,1.7C27.7,19.2,29.6,17.3,29.6,14.9L29.6,14.9z"/>
	<circle class="st1" cx="18.3" cy="12.7" r="3.5"/>
</g>
<g>
	<circle class="st1" cx="44.3" cy="12.7" r="2.9"/>
	<path class="st1" d="M49.9,2.6c-2.3-0.7-4.7,0.5-5.4,2.8c-0.1,0.4-0.2,0.9-0.2,1.3l0,0v3.1c0,0,1,0,1.8,0.6s1,1.4,1,1.4l3-1
		c1.2-0.4,2.3-1.4,2.7-2.7C53.4,5.8,52.1,3.4,49.9,2.6z"/>
	<path class="st1" d="M36.5,4.2c-1.4,1.9-1,4.6,1,6c0.4,0.3,0.8,0.5,1.2,0.6l0,0l3,1c0,0,0.3-0.9,1.1-1.5s1.6-0.5,1.6-0.5l0-3.1
		c0-1.3-0.6-2.6-1.8-3.4C40.5,1.8,37.9,2.3,36.5,4.2L36.5,4.2z"/>
	<path class="st1" d="M33.8,17.4c1.4,1.9,4.1,2.4,6,1c0.4-0.3,0.7-0.6,0.9-0.9l0,0l1.8-2.5c0,0-0.8-0.6-1.1-1.5s0-1.7,0-1.7l-3-0.9
		c-1.2-0.4-2.7-0.2-3.8,0.6C32.8,12.8,32.4,15.5,33.8,17.4L33.8,17.4z"/>
	<path class="st1" d="M45.6,24.1c2.3-0.7,3.5-3.2,2.8-5.4c-0.1-0.4-0.3-0.8-0.6-1.2l0,0l-1.8-2.5c0,0-0.8,0.6-1.8,0.6
		s-1.6-0.6-1.6-0.6l-1.8,2.5c-0.8,1.1-1,2.5-0.6,3.8C40.9,23.6,43.3,24.8,45.6,24.1L45.6,24.1z"/>
	<path class="st1" d="M55.5,14.9c0-2.4-1.9-4.3-4.3-4.3c-0.5,0-0.9,0.1-1.3,0.2l0,0l-3,1c0,0,0.3,0.9,0,1.9s-1,1.4-1,1.4l1.8,2.5
		c0.8,1,2,1.7,3.5,1.7C53.6,19.2,55.5,17.3,55.5,14.9L55.5,14.9z"/>
	<circle class="st1" cx="44.3" cy="12.7" r="3.5"/>
</g>
<g>
	<circle class="st1" cx="70.2" cy="12.7" r="2.9"/>
	<path class="st1" d="M75.8,2.6c-2.3-0.7-4.7,0.5-5.4,2.8c-0.1,0.4-0.2,0.9-0.2,1.3l0,0v3.1c0,0,1,0,1.8,0.6s1,1.4,1,1.4l2.9-1
		c1.2-0.4,2.3-1.4,2.7-2.7C79.3,5.8,78.1,3.4,75.8,2.6z"/>
	<path class="st1" d="M62.4,4.2c-1.4,1.9-1,4.6,1,6c0.4,0.3,0.8,0.5,1.2,0.6l0,0l3,1c0,0,0.3-0.9,1.1-1.5s1.6-0.5,1.6-0.5l0-3.1
		c0-1.3-0.6-2.6-1.8-3.4C66.5,1.8,63.8,2.3,62.4,4.2L62.4,4.2z"/>
	<path class="st1" d="M59.7,17.4c1.4,1.9,4.1,2.4,6,1c0.4-0.3,0.7-0.6,0.9-0.9l0,0l1.8-2.5c0,0-0.8-0.6-1.1-1.5s0-1.7,0-1.7l-3-0.9
		c-1.2-0.4-2.7-0.2-3.8,0.6C58.8,12.8,58.3,15.5,59.7,17.4L59.7,17.4z"/>
	<path class="st1" d="M71.5,24.1c2.3-0.7,3.5-3.2,2.8-5.4c-0.1-0.4-0.3-0.8-0.6-1.2l0,0l-1.8-2.5c0,0-0.8,0.6-1.8,0.6
		s-1.6-0.6-1.6-0.6l-1.8,2.5c-0.8,1.1-1,2.5-0.6,3.8C66.8,23.6,69.3,24.8,71.5,24.1L71.5,24.1z"/>
	<path class="st1" d="M81.5,14.9c0-2.4-1.9-4.3-4.3-4.3c-0.4,0-0.9,0.1-1.3,0.2l0,0l-3,1c0,0,0.3,0.9,0,1.9s-1,1.4-1,1.4l1.8,2.5
		c0.8,1,2,1.7,3.4,1.7C79.5,19.2,81.4,17.3,81.5,14.9L81.5,14.9z"/>
	<circle class="st1" cx="70.2" cy="12.7" r="3.5"/>
</g>
<g>
	<circle class="st1" cx="96.1" cy="12.7" r="2.9"/>
	<path class="st1" d="M101.7,2.6c-2.3-0.7-4.7,0.5-5.4,2.8c-0.1,0.4-0.2,0.9-0.2,1.3l0,0v3.1c0,0,1,0,1.8,0.6s1,1.4,1,1.4l2.9-1
		c1.2-0.4,2.3-1.4,2.7-2.7C105.2,5.8,104,3.4,101.7,2.6z"/>
	<path class="st1" d="M88.3,4.2c-1.4,1.9-1,4.6,0.9,6c0.4,0.3,0.8,0.5,1.2,0.6l0,0l3,1c0,0,0.3-0.9,1.1-1.5s1.6-0.5,1.6-0.5l0-3.1
		c0-1.3-0.6-2.6-1.8-3.4C92.4,1.8,89.7,2.3,88.3,4.2L88.3,4.2z"/>
	<path class="st1" d="M85.6,17.4c1.4,1.9,4.1,2.4,6,1c0.4-0.3,0.7-0.6,0.9-0.9l0,0l1.8-2.5c0,0-0.8-0.6-1.1-1.5s0-1.7,0-1.7l-3-0.9
		c-1.2-0.4-2.7-0.2-3.8,0.6C84.7,12.8,84.2,15.5,85.6,17.4L85.6,17.4z"/>
	<path class="st1" d="M97.4,24.1c2.3-0.7,3.5-3.2,2.8-5.4c-0.1-0.4-0.3-0.8-0.6-1.2l0,0l-1.8-2.5c0,0-0.8,0.6-1.8,0.6
		s-1.6-0.6-1.6-0.6l-1.8,2.5c-0.8,1.1-1,2.5-0.6,3.8C92.8,23.6,95.2,24.8,97.4,24.1L97.4,24.1z"/>
	<path class="st1" d="M107.4,14.9c0-2.4-1.9-4.3-4.3-4.3c-0.4,0-0.9,0.1-1.3,0.2l0,0l-3,1c0,0,0.3,0.9,0,1.9s-1,1.4-1,1.4l1.8,2.5
		c0.8,1,2,1.7,3.4,1.7C105.4,19.2,107.4,17.3,107.4,14.9L107.4,14.9z"/>
	<circle class="st1" cx="96.1" cy="12.7" r="3.5"/>
</g>
<g>
	<circle class="st1" cx="122" cy="12.7" r="2.9"/>
	<path class="st1" d="M127.6,2.6c-2.3-0.7-4.7,0.5-5.4,2.8c-0.1,0.4-0.2,0.9-0.2,1.3l0,0v3.1c0,0,1,0,1.8,0.6s1,1.4,1,1.4l2.9-1
		c1.2-0.4,2.3-1.4,2.7-2.7C131.1,5.8,129.9,3.4,127.6,2.6z"/>
	<path class="st1" d="M114.2,4.2c-1.4,1.9-1,4.6,0.9,6c0.4,0.3,0.8,0.5,1.2,0.6l0,0l3,1c0,0,0.3-0.9,1.1-1.5s1.6-0.5,1.6-0.5l0-3.1
		c0-1.3-0.6-2.6-1.8-3.4C118.3,1.8,115.6,2.3,114.2,4.2L114.2,4.2z"/>
	<path class="st1" d="M111.6,17.4c1.4,1.9,4.1,2.4,6,1c0.4-0.3,0.7-0.6,0.9-0.9l0,0l1.8-2.5c0,0-0.8-0.6-1.1-1.5s0-1.7,0-1.7l-3-0.9
		c-1.2-0.4-2.7-0.2-3.8,0.6C110.6,12.8,110.2,15.5,111.6,17.4L111.6,17.4z"/>
	<path class="st1" d="M123.3,24.1c2.3-0.7,3.5-3.2,2.8-5.4c-0.1-0.4-0.3-0.8-0.6-1.2l0,0l-1.8-2.5c0,0-0.8,0.6-1.8,0.6
		s-1.6-0.6-1.6-0.6l-1.8,2.5c-0.8,1.1-1,2.5-0.6,3.8C118.7,23.6,121.1,24.8,123.3,24.1L123.3,24.1z"/>
	<path class="st1" d="M133.3,14.9c0-2.4-1.9-4.3-4.3-4.3c-0.4,0-0.9,0.1-1.3,0.2l0,0l-3,1c0,0,0.3,0.9,0,1.9s-1,1.4-1,1.4l1.8,2.5
		c0.8,1,2,1.7,3.4,1.7C131.4,19.2,133.3,17.3,133.3,14.9L133.3,14.9z"/>
	<circle class="st1" cx="122" cy="12.7" r="3.5"/>
</g>
<g>
	<circle class="st1" cx="2.8" cy="38.6" r="2.9"/>
	<path class="st1" d="M8.4,28.5C6.1,27.8,3.7,29,3,31.3c-0.1,0.4-0.2,0.9-0.2,1.3l0,0v3.1c0,0,1,0,1.8,0.6s1,1.4,1,1.4l2.9-1
		c1.2-0.4,2.3-1.4,2.7-2.7C11.9,31.7,10.7,29.3,8.4,28.5z"/>
	<path class="st1" d="M-5,30.1c-1.4,1.9-1,4.6,0.9,6c0.4,0.3,0.8,0.5,1.2,0.6l0,0l3,1c0,0,0.3-0.9,1.1-1.5s1.6-0.5,1.6-0.5l0-3.1
		c0-1.3-0.6-2.6-1.8-3.4C-0.9,27.8-3.6,28.2-5,30.1L-5,30.1z"/>
	<path class="st1" d="M-7.7,43.4c1.4,1.9,4.1,2.3,6,1c0.4-0.3,0.7-0.6,0.9-0.9l0,0l1.8-2.5c0,0-0.8-0.6-1.1-1.5s0-1.7,0-1.7l-3-0.9
		c-1.2-0.4-2.7-0.2-3.8,0.6C-8.6,38.8-9.1,41.4-7.7,43.4L-7.7,43.4z"/>
	<path class="st1" d="M4.1,50c2.3-0.7,3.5-3.2,2.8-5.4c-0.1-0.4-0.3-0.8-0.6-1.2l0,0l-1.8-2.5c0,0-0.8,0.6-1.8,0.5s-1.6-0.5-1.6-0.5
		l-1.8,2.5c-0.8,1.1-1,2.5-0.6,3.8C-0.6,49.5,1.9,50.7,4.1,50L4.1,50z"/>
	<path class="st1" d="M14.1,40.8c0-2.4-1.9-4.3-4.3-4.3c-0.4,0-0.9,0.1-1.3,0.2l0,0l-3,1c0,0,0.3,0.9,0,1.8s-1,1.3-1,1.3l1.8,2.5
		c0.8,1,2,1.7,3.4,1.7C12.1,45.1,14.1,43.2,14.1,40.8L14.1,40.8z"/>
	<circle class="st1" cx="2.8" cy="38.6" r="3.5"/>
</g>
<g>
	<circle class="st1" cx="28.7" cy="38.6" r="2.9"/>
	<path class="st1" d="M34.3,28.5c-2.3-0.7-4.7,0.5-5.4,2.8c-0.1,0.4-0.2,0.9-0.2,1.3l0,0v3.1c0,0,1,0,1.8,0.6s1,1.4,1,1.4l3-1
		c1.2-0.4,2.3-1.4,2.7-2.7C37.8,31.7,36.6,29.3,34.3,28.5z"/>
	<path class="st1" d="M20.9,30.1c-1.4,1.9-1,4.6,1,6c0.4,0.3,0.8,0.5,1.2,0.6l0,0l3,1c0,0,0.3-0.9,1.1-1.5s1.6-0.5,1.6-0.5l0-3.1
		c0-1.3-0.6-2.6-1.8-3.4C25,27.8,22.3,28.2,20.9,30.1L20.9,30.1z"/>
	<path class="st1" d="M18.2,43.4c1.4,1.9,4.1,2.3,6,1c0.4-0.3,0.7-0.6,0.9-0.9l0,0l1.8-2.5c0,0-0.8-0.6-1.1-1.5s0-1.7,0-1.7l-3-0.9
		c-1.2-0.4-2.7-0.2-3.8,0.6C17.3,38.8,16.8,41.4,18.2,43.4L18.2,43.4z"/>
	<path class="st1" d="M30,50c2.3-0.7,3.5-3.2,2.8-5.4c-0.1-0.4-0.3-0.8-0.6-1.2l0,0l-1.8-2.5c0,0-0.8,0.6-1.8,0.5S27,40.9,27,40.9
		l-1.8,2.5c-0.8,1.1-1,2.5-0.6,3.8C25.3,49.5,27.8,50.7,30,50L30,50z"/>
	<path class="st1" d="M40,40.8c0-2.4-1.9-4.3-4.3-4.3c-0.5,0-0.9,0.1-1.3,0.2l0,0l-3,1c0,0,0.3,0.9,0,1.8s-1,1.3-1,1.3l1.8,2.5
		c0.8,1,2,1.7,3.5,1.7C38,45.1,40,43.2,40,40.8L40,40.8z"/>
	<circle class="st1" cx="28.7" cy="38.6" r="3.5"/>
</g>
<g>
	<circle class="st1" cx="54.6" cy="38.6" r="2.9"/>
	<path class="st1" d="M60.2,28.5c-2.3-0.7-4.7,0.5-5.4,2.8c-0.1,0.4-0.2,0.9-0.2,1.3l0,0v3.1c0,0,1,0,1.8,0.6s1,1.4,1,1.4l3-1
		c1.2-0.4,2.3-1.4,2.7-2.7C63.7,31.7,62.5,29.3,60.2,28.5z"/>
	<path class="st1" d="M46.8,30.1c-1.4,1.9-1,4.6,1,6c0.4,0.3,0.8,0.5,1.2,0.6l0,0l3,1c0,0,0.3-0.9,1.1-1.5s1.6-0.5,1.6-0.5l0-3.1
		c0-1.3-0.6-2.6-1.8-3.4C50.9,27.8,48.2,28.2,46.8,30.1L46.8,30.1z"/>
	<path class="st1" d="M44.2,43.4c1.4,1.9,4.1,2.3,6,1c0.4-0.3,0.7-0.6,0.9-0.9l0,0l1.8-2.5c0,0-0.8-0.6-1.1-1.5s0-1.7,0-1.7l-3-0.9
		c-1.2-0.4-2.7-0.2-3.8,0.6C43.2,38.8,42.8,41.4,44.2,43.4L44.2,43.4z"/>
	<path class="st1" d="M55.9,50c2.3-0.7,3.5-3.2,2.8-5.4c-0.1-0.4-0.3-0.8-0.6-1.2l0,0l-1.8-2.5c0,0-0.8,0.6-1.8,0.5
		s-1.6-0.5-1.6-0.5l-1.8,2.5c-0.8,1.1-1,2.5-0.6,3.8C51.3,49.5,53.7,50.7,55.9,50L55.9,50z"/>
	<path class="st1" d="M65.9,40.8c0-2.4-1.9-4.3-4.3-4.3c-0.5,0-0.9,0.1-1.3,0.2l0,0l-3,1c0,0,0.3,0.9,0,1.8s-1,1.3-1,1.3l1.8,2.5
		c0.8,1,2,1.7,3.5,1.7C64,45.1,65.9,43.2,65.9,40.8L65.9,40.8z"/>
	<circle class="st1" cx="54.6" cy="38.6" r="3.5"/>
</g>
<g>
	<circle class="st1" cx="80.5" cy="38.6" r="2.9"/>
	<path class="st1" d="M86.2,28.5c-2.3-0.7-4.7,0.5-5.4,2.8c-0.1,0.4-0.2,0.9-0.2,1.3l0,0v3.1c0,0,1,0,1.8,0.6s1,1.4,1,1.4l2.9-1
		c1.2-0.4,2.3-1.4,2.7-2.7C89.7,31.7,88.4,29.3,86.2,28.5z"/>
	<path class="st1" d="M72.8,30.1c-1.4,1.9-1,4.6,0.9,6c0.4,0.3,0.8,0.5,1.2,0.6l0,0l3,1c0,0,0.3-0.9,1.1-1.5s1.6-0.5,1.6-0.5l0-3.1
		c0-1.3-0.6-2.6-1.8-3.4C76.8,27.8,74.2,28.2,72.8,30.1L72.8,30.1z"/>
	<path class="st1" d="M70.1,43.4c1.4,1.9,4.1,2.3,6,1c0.4-0.3,0.7-0.6,0.9-0.9l0,0l1.8-2.5c0,0-0.8-0.6-1.1-1.5s0-1.7,0-1.7l-3-0.9
		c-1.2-0.4-2.7-0.2-3.8,0.6C69.1,38.8,68.7,41.4,70.1,43.4L70.1,43.4z"/>
	<path class="st1" d="M81.9,50c2.3-0.7,3.5-3.2,2.8-5.4c-0.1-0.4-0.3-0.8-0.6-1.2l0,0l-1.8-2.5c0,0-0.8,0.6-1.8,0.5
		s-1.6-0.5-1.6-0.5l-1.8,2.5c-0.8,1.1-1,2.5-0.6,3.8C77.2,49.5,79.6,50.7,81.9,50L81.9,50z"/>
	<path class="st1" d="M91.8,40.8c0-2.4-1.9-4.3-4.3-4.3c-0.4,0-0.9,0.1-1.3,0.2l0,0l-3,1c0,0,0.3,0.9,0,1.8s-1,1.3-1,1.3l1.8,2.5
		c0.8,1,2,1.7,3.4,1.7C89.9,45.1,91.8,43.2,91.8,40.8L91.8,40.8z"/>
	<circle class="st1" cx="80.5" cy="38.6" r="3.5"/>
</g>
<g>
	<circle class="st1" cx="106.5" cy="38.6" r="2.9"/>
	<path class="st1" d="M112.1,28.5c-2.3-0.7-4.7,0.5-5.4,2.8c-0.1,0.4-0.2,0.9-0.2,1.3l0,0v3.1c0,0,1,0,1.8,0.6s1,1.4,1,1.4l2.9-1
		c1.2-0.4,2.3-1.4,2.7-2.7C115.6,31.7,114.3,29.3,112.1,28.5z"/>
	<path class="st1" d="M98.7,30.1c-1.4,1.9-1,4.6,0.9,6c0.4,0.3,0.8,0.5,1.2,0.6l0,0l3,1c0,0,0.3-0.9,1.1-1.5s1.6-0.5,1.6-0.5l0-3.1
		c0-1.3-0.6-2.6-1.8-3.4C102.8,27.8,100.1,28.2,98.7,30.1L98.7,30.1z"/>
	<path class="st1" d="M96,43.4c1.4,1.9,4.1,2.3,6,1c0.4-0.3,0.7-0.6,0.9-0.9l0,0l1.8-2.5c0,0-0.8-0.6-1.1-1.5s0-1.7,0-1.7l-3-0.9
		c-1.2-0.4-2.7-0.2-3.8,0.6C95,38.8,94.6,41.4,96,43.4L96,43.4z"/>
	<path class="st1" d="M107.8,50c2.3-0.7,3.5-3.2,2.8-5.4c-0.1-0.4-0.3-0.8-0.6-1.2l0,0l-1.8-2.5c0,0-0.8,0.6-1.8,0.5
		s-1.6-0.5-1.6-0.5l-1.8,2.5c-0.8,1.1-1,2.5-0.6,3.8C103.1,49.5,105.5,50.7,107.8,50L107.8,50z"/>
	<path class="st1" d="M117.8,40.8c0-2.4-1.9-4.3-4.3-4.3c-0.4,0-0.9,0.1-1.3,0.2l0,0l-3,1c0,0,0.3,0.9,0,1.8s-1,1.3-1,1.3l1.8,2.5
		c0.8,1,2,1.7,3.4,1.7C115.8,45.1,117.7,43.2,117.8,40.8L117.8,40.8z"/>
	<circle class="st1" cx="106.5" cy="38.6" r="3.5"/>
</g>
<g>
	<circle class="st1" cx="132.4" cy="38.6" r="2.9"/>
	<path class="st1" d="M124.6,30.1c-1.4,1.9-1,4.6,0.9,6c0.4,0.3,0.8,0.5,1.2,0.6l0,0l3,1c0,0,0.3-0.9,1.1-1.5s1.6-0.5,1.6-0.5l0-3.1
		c0-1.3-0.6-2.6-1.8-3.4C128.7,27.8,126,28.2,124.6,30.1L124.6,30.1z"/>
	<path class="st1" d="M121.9,43.4c1.4,1.9,4.1,2.3,6,1c0.4-0.3,0.7-0.6,0.9-0.9l0,0l1.8-2.5c0,0-0.8-0.6-1.1-1.5s0-1.7,0-1.7l-3-0.9
		c-1.2-0.4-2.7-0.2-3.8,0.6C121,38.8,120.5,41.4,121.9,43.4L121.9,43.4z"/>
	<path class="st1" d="M133.7,50c2.3-0.7,3.5-3.2,2.8-5.4c-0.1-0.4-0.3-0.8-0.6-1.2l0,0l-1.8-2.5c0,0-0.8,0.6-1.8,0.5
		s-1.6-0.5-1.6-0.5l-1.8,2.5c-0.8,1.1-1,2.5-0.6,3.8C129,49.5,131.5,50.7,133.7,50L133.7,50z"/>
	<circle class="st1" cx="132.4" cy="38.6" r="3.5"/>
</g>
<g>
	<circle class="st1" cx="13.1" cy="64.5" r="2.9"/>
	<path class="st1" d="M18.8,54.5c-2.3-0.7-4.7,0.5-5.4,2.8c-0.1,0.4-0.2,0.9-0.2,1.3l0,0v3.1c0,0,1,0,1.8,0.6s1,1.4,1,1.4l3-1
		c1.2-0.4,2.3-1.4,2.7-2.7C22.3,57.6,21,55.2,18.8,54.5z"/>
	<path class="st1" d="M5.4,56c-1.4,1.9-1,4.6,0.9,6c0.4,0.3,0.8,0.5,1.2,0.6l0,0l3,1c0,0,0.3-0.9,1.1-1.5s1.6-0.5,1.6-0.5l0-3.1
		c0-1.3-0.6-2.6-1.8-3.4C9.4,53.7,6.8,54.1,5.4,56L5.4,56z"/>
	<path class="st1" d="M2.7,69.3c1.4,1.9,4.1,2.3,6,0.9c0.4-0.3,0.7-0.6,0.9-0.9l0,0l1.8-2.5c0,0-0.8-0.6-1.1-1.5s0-1.7,0-1.7l-3-0.9
		c-1.2-0.4-2.7-0.2-3.8,0.6C1.7,64.7,1.3,67.4,2.7,69.3L2.7,69.3z"/>
	<path class="st1" d="M14.5,75.9c2.3-0.7,3.5-3.2,2.8-5.4c-0.1-0.4-0.3-0.8-0.6-1.2l0,0l-1.8-2.5c0,0-0.8,0.6-1.8,0.6
		s-1.6-0.6-1.6-0.6l-1.8,2.5c-0.8,1.1-1,2.5-0.6,3.8C9.8,75.4,12.2,76.6,14.5,75.9L14.5,75.9z"/>
	<path class="st1" d="M24.4,66.8c0-2.4-1.9-4.3-4.3-4.3c-0.5,0-0.9,0.1-1.3,0.2l0,0l-3,1c0,0,0.3,0.9,0,1.8s-1,1.3-1,1.3l1.8,2.5
		c0.8,1.1,2,1.7,3.5,1.7C22.5,71.1,24.4,69.1,24.4,66.8L24.4,66.8z"/>
	<circle class="st1" cx="13.1" cy="64.5" r="3.5"/>
</g>
<g>
	<circle class="st1" cx="39.1" cy="64.5" r="2.9"/>
	<path class="st1" d="M44.7,54.5c-2.3-0.7-4.7,0.5-5.4,2.8c-0.1,0.4-0.2,0.9-0.2,1.3l0,0v3.1c0,0,1,0,1.8,0.6s1,1.4,1,1.4l3-1
		c1.2-0.4,2.3-1.4,2.7-2.7C48.2,57.6,47,55.2,44.7,54.5z"/>
	<path class="st1" d="M31.3,56c-1.4,1.9-1,4.6,0.9,6c0.4,0.3,0.8,0.5,1.2,0.6l0,0l3,1c0,0,0.3-0.9,1.1-1.5s1.6-0.5,1.6-0.5l0-3.1
		c0-1.3-0.6-2.6-1.8-3.4C35.4,53.7,32.7,54.1,31.3,56L31.3,56z"/>
	<path class="st1" d="M28.6,69.3c1.4,1.9,4.1,2.3,6,0.9c0.4-0.3,0.7-0.6,0.9-0.9l0,0l1.8-2.5c0,0-0.8-0.6-1.1-1.5s0-1.7,0-1.7
		l-3-0.9c-1.2-0.4-2.7-0.2-3.8,0.6C27.6,64.7,27.2,67.4,28.6,69.3L28.6,69.3z"/>
	<path class="st1" d="M40.4,75.9c2.3-0.7,3.5-3.2,2.8-5.4c-0.1-0.4-0.3-0.8-0.6-1.2l0,0l-1.8-2.5c0,0-0.8,0.6-1.8,0.6
		s-1.6-0.6-1.6-0.6l-1.8,2.5c-0.8,1.1-1,2.5-0.6,3.8C35.7,75.4,38.1,76.6,40.4,75.9L40.4,75.9z"/>
	<path class="st1" d="M50.4,66.8c0-2.4-1.9-4.3-4.3-4.3c-0.5,0-0.9,0.1-1.3,0.2l0,0l-3,1c0,0,0.3,0.9,0,1.8s-1,1.3-1,1.3l1.8,2.5
		c0.8,1.1,2,1.7,3.5,1.7C48.4,71.1,50.3,69.1,50.4,66.8L50.4,66.8z"/>
	<circle class="st1" cx="39.1" cy="64.5" r="3.5"/>
</g>
<g>
	<circle class="st1" cx="65" cy="64.5" r="2.9"/>
	<path class="st1" d="M70.6,54.5c-2.3-0.7-4.7,0.5-5.4,2.8c-0.1,0.4-0.2,0.9-0.2,1.3l0,0v3.1c0,0,1,0,1.8,0.6s1,1.4,1,1.4l2.9-1
		c1.2-0.4,2.3-1.4,2.7-2.7C74.1,57.6,72.9,55.2,70.6,54.5z"/>
	<path class="st1" d="M57.2,56c-1.4,1.9-1,4.6,1,6c0.4,0.3,0.8,0.5,1.2,0.6l0,0l3,1c0,0,0.3-0.9,1.1-1.5s1.6-0.5,1.6-0.5l0-3.1
		c0-1.3-0.6-2.6-1.8-3.4C61.3,53.7,58.6,54.1,57.2,56L57.2,56z"/>
	<path class="st1" d="M54.5,69.3c1.4,1.9,4.1,2.3,6,0.9c0.4-0.3,0.7-0.6,0.9-0.9l0,0l1.8-2.5c0,0-0.8-0.6-1.1-1.5s0-1.7,0-1.7
		l-3-0.9c-1.2-0.4-2.7-0.2-3.8,0.6C53.6,64.7,53.1,67.4,54.5,69.3L54.5,69.3z"/>
	<path class="st1" d="M66.3,75.9c2.3-0.7,3.5-3.2,2.8-5.4c-0.1-0.4-0.3-0.8-0.6-1.2l0,0l-1.8-2.5c0,0-0.8,0.6-1.8,0.6
		s-1.6-0.6-1.6-0.6l-1.8,2.5c-0.8,1.1-1,2.5-0.6,3.8C61.6,75.4,64.1,76.6,66.3,75.9L66.3,75.9z"/>
	<path class="st1" d="M76.3,66.8c0-2.4-1.9-4.3-4.3-4.3c-0.4,0-0.9,0.1-1.3,0.2l0,0l-3,1c0,0,0.3,0.9,0,1.8s-1,1.3-1,1.3l1.8,2.5
		c0.8,1.1,2,1.7,3.4,1.7C74.3,71.1,76.3,69.1,76.3,66.8L76.3,66.8z"/>
	<circle class="st1" cx="65" cy="64.5" r="3.5"/>
</g>
<g>
	<circle class="st1" cx="90.9" cy="64.5" r="2.9"/>
	<path class="st1" d="M96.5,54.5c-2.3-0.7-4.7,0.5-5.4,2.8c-0.1,0.4-0.2,0.9-0.2,1.3l0,0v3.1c0,0,1,0,1.8,0.6s1,1.4,1,1.4l2.9-1
		c1.2-0.4,2.3-1.4,2.7-2.7C100,57.6,98.8,55.2,96.5,54.5z"/>
	<path class="st1" d="M83.1,56c-1.4,1.9-1,4.6,0.9,6c0.4,0.3,0.8,0.5,1.2,0.6l0,0l3,1c0,0,0.3-0.9,1.1-1.5s1.6-0.5,1.6-0.5l0-3.1
		c0-1.3-0.6-2.6-1.8-3.4C87.2,53.7,84.5,54.1,83.1,56L83.1,56z"/>
	<path class="st1" d="M80.5,69.3c1.4,1.9,4.1,2.3,6,0.9c0.4-0.3,0.7-0.6,0.9-0.9l0,0l1.8-2.5c0,0-0.8-0.6-1.1-1.5s0-1.7,0-1.7
		l-3-0.9c-1.2-0.4-2.7-0.2-3.8,0.6C79.5,64.7,79.1,67.4,80.5,69.3L80.5,69.3z"/>
	<path class="st1" d="M92.2,75.9c2.3-0.7,3.5-3.2,2.8-5.4c-0.1-0.4-0.3-0.8-0.6-1.2l0,0l-1.8-2.5c0,0-0.8,0.6-1.8,0.6
		s-1.6-0.6-1.6-0.6l-1.8,2.5c-0.8,1.1-1,2.5-0.6,3.8C87.6,75.4,90,76.6,92.2,75.9L92.2,75.9z"/>
	<path class="st1" d="M102.2,66.8c0-2.4-1.9-4.3-4.3-4.3c-0.4,0-0.9,0.1-1.3,0.2l0,0l-3,1c0,0,0.3,0.9,0,1.8s-1,1.3-1,1.3l1.8,2.5
		c0.8,1.1,2,1.7,3.4,1.7C100.3,71.1,102.2,69.1,102.2,66.8L102.2,66.8z"/>
	<circle class="st1" cx="90.9" cy="64.5" r="3.5"/>
</g>
<g>
	<circle class="st1" cx="116.8" cy="64.5" r="2.9"/>
	<path class="st1" d="M122.5,54.5c-2.3-0.7-4.7,0.5-5.4,2.8c-0.1,0.4-0.2,0.9-0.2,1.3l0,0v3.1c0,0,1,0,1.8,0.6s1,1.4,1,1.4l2.9-1
		c1.2-0.4,2.3-1.4,2.7-2.7C126,57.6,124.7,55.2,122.5,54.5z"/>
	<path class="st1" d="M109,56c-1.4,1.9-1,4.6,0.9,6c0.4,0.3,0.8,0.5,1.2,0.6l0,0l3,1c0,0,0.3-0.9,1.1-1.5s1.6-0.5,1.6-0.5l0-3.1
		c0-1.3-0.6-2.6-1.8-3.4C113.1,53.7,110.4,54.1,109,56L109,56z"/>
	<path class="st1" d="M106.4,69.3c1.4,1.9,4.1,2.3,6,0.9c0.4-0.3,0.7-0.6,0.9-0.9l0,0l1.8-2.5c0,0-0.8-0.6-1.1-1.5s0-1.7,0-1.7
		l-3-0.9c-1.2-0.4-2.7-0.2-3.8,0.6C105.4,64.7,105,67.4,106.4,69.3L106.4,69.3z"/>
	<path class="st1" d="M118.2,75.9c2.3-0.7,3.5-3.2,2.8-5.4c-0.1-0.4-0.3-0.8-0.6-1.2l0,0l-1.8-2.5c0,0-0.8,0.6-1.8,0.6
		s-1.6-0.6-1.6-0.6l-1.8,2.5c-0.8,1.1-1,2.5-0.6,3.8C113.5,75.4,115.9,76.6,118.2,75.9L118.2,75.9z"/>
	<path class="st1" d="M128.1,66.8c0-2.4-1.9-4.3-4.3-4.3c-0.4,0-0.9,0.1-1.3,0.2l0,0l-3,1c0,0,0.3,0.9,0,1.8s-1,1.3-1,1.3l1.8,2.5
		c0.8,1.1,2,1.7,3.4,1.7C126.2,71.1,128.1,69.1,128.1,66.8L128.1,66.8z"/>
	<circle class="st1" cx="116.8" cy="64.5" r="3.5"/>
</g>
<g>
	<circle class="st1" cx="-2.4" cy="90.4" r="2.9"/>
	<path class="st1" d="M3.2,80.4c-2.3-0.7-4.7,0.5-5.4,2.8c-0.1,0.4-0.2,0.9-0.2,1.3l0,0v3.1c0,0,1,0,1.8,0.6s1,1.4,1,1.4l3-1
		c1.2-0.4,2.3-1.4,2.7-2.7C6.7,83.5,5.5,81.1,3.2,80.4z"/>
	<path class="st1" d="M-1.1,101.8c2.3-0.7,3.5-3.2,2.8-5.4c-0.1-0.4-0.3-0.8-0.6-1.2l0,0l-1.8-2.5c0,0-0.8,0.6-1.8,0.6
		s-1.6-0.6-1.6-0.6l-1.8,2.5c-0.8,1.1-1,2.5-0.6,3.8C-5.8,101.3-3.3,102.5-1.1,101.8L-1.1,101.8z"/>
	<path class="st1" d="M8.9,92.7c0-2.4-1.9-4.3-4.3-4.3c-0.4,0-0.9,0.1-1.3,0.2l0,0l-3,1c0,0,0.3,0.9,0,1.8s-1,1.3-1,1.3l1.8,2.5
		c0.8,1.1,2,1.7,3.5,1.7C6.9,97,8.9,95.1,8.9,92.7L8.9,92.7z"/>
	<circle class="st1" cx="-2.4" cy="90.4" r="3.5"/>
</g>
<g>
	<circle class="st1" cx="23.5" cy="90.4" r="2.9"/>
	<path class="st1" d="M29.1,80.4c-2.3-0.7-4.7,0.5-5.4,2.8c-0.1,0.4-0.2,0.9-0.2,1.3l0,0v3.1c0,0,1,0,1.8,0.6s1,1.4,1,1.4l3-1
		c1.2-0.4,2.3-1.4,2.7-2.7C32.6,83.5,31.4,81.1,29.1,80.4z"/>
	<path class="st1" d="M15.7,82c-1.4,1.9-1,4.6,0.9,6c0.4,0.3,0.8,0.5,1.2,0.6l0,0l3,1c0,0,0.3-0.9,1.1-1.5s1.6-0.5,1.6-0.5l0-3.1
		c0-1.3-0.6-2.6-1.8-3.4C19.8,79.6,17.1,80,15.7,82L15.7,82z"/>
	<path class="st1" d="M13.1,95.2c1.4,1.9,4.1,2.3,6,0.9c0.4-0.3,0.7-0.6,0.9-0.9l0,0l1.8-2.5c0,0-0.8-0.6-1.1-1.5s0-1.7,0-1.7
		l-3-0.9c-1.2-0.4-2.7-0.2-3.8,0.6C12.1,90.6,11.7,93.3,13.1,95.2L13.1,95.2z"/>
	<path class="st1" d="M24.8,101.8c2.3-0.7,3.5-3.2,2.8-5.4c-0.1-0.4-0.3-0.8-0.6-1.2l0,0l-1.8-2.5c0,0-0.8,0.6-1.8,0.6
		s-1.6-0.6-1.6-0.6L20,95.2c-0.8,1.1-1,2.5-0.6,3.8C20.2,101.3,22.6,102.5,24.8,101.8L24.8,101.8z"/>
	<path class="st1" d="M34.8,92.7c0-2.4-1.9-4.3-4.3-4.3c-0.5,0-0.9,0.1-1.3,0.2l0,0l-3,1c0,0,0.3,0.9,0,1.8s-1,1.3-1,1.3l1.8,2.5
		c0.8,1.1,2,1.7,3.5,1.7C32.9,97,34.8,95.1,34.8,92.7L34.8,92.7z"/>
	<circle class="st1" cx="23.5" cy="90.4" r="3.5"/>
</g>
<g>
	<circle class="st1" cx="49.4" cy="90.4" r="2.9"/>
	<path class="st1" d="M55.1,80.4c-2.3-0.7-4.7,0.5-5.4,2.8c-0.1,0.4-0.2,0.9-0.2,1.3l0,0v3.1c0,0,1,0,1.8,0.6s1,1.4,1,1.4l3-1
		c1.2-0.4,2.3-1.4,2.7-2.7C58.6,83.5,57.3,81.1,55.1,80.4z"/>
	<path class="st1" d="M41.6,82c-1.4,1.9-1,4.6,1,6c0.4,0.3,0.8,0.5,1.2,0.6l0,0l3,1c0,0,0.3-0.9,1.1-1.5s1.6-0.5,1.6-0.5l0-3.1
		c0-1.3-0.6-2.6-1.8-3.4C45.7,79.6,43,80,41.6,82L41.6,82z"/>
	<path class="st1" d="M39,95.2c1.4,1.9,4.1,2.3,6,0.9c0.4-0.3,0.7-0.6,0.9-0.9l0,0l1.8-2.5c0,0-0.8-0.6-1.1-1.5s0-1.7,0-1.7l-3-0.9
		c-1.2-0.4-2.7-0.2-3.8,0.6C38,90.6,37.6,93.3,39,95.2L39,95.2z"/>
	<path class="st1" d="M50.8,101.8c2.3-0.7,3.5-3.2,2.8-5.4c-0.1-0.4-0.3-0.8-0.6-1.2l0,0l-1.8-2.5c0,0-0.8,0.6-1.8,0.6
		s-1.6-0.6-1.6-0.6l-1.8,2.5c-0.8,1.1-1,2.5-0.6,3.8C46.1,101.3,48.5,102.5,50.8,101.8L50.8,101.8z"/>
	<path class="st1" d="M60.7,92.7c0-2.4-1.9-4.3-4.3-4.3c-0.5,0-0.9,0.1-1.3,0.2l0,0l-3,1c0,0,0.3,0.9,0,1.8s-1,1.3-1,1.3l1.8,2.5
		c0.8,1.1,2,1.7,3.5,1.7C58.8,97,60.7,95.1,60.7,92.7L60.7,92.7z"/>
	<circle class="st1" cx="49.4" cy="90.4" r="3.5"/>
</g>
<g>
	<circle class="st1" cx="75.4" cy="90.4" r="2.9"/>
	<path class="st1" d="M81,80.4c-2.3-0.7-4.7,0.5-5.4,2.8c-0.1,0.4-0.2,0.9-0.2,1.3l0,0v3.1c0,0,1,0,1.8,0.6s1,1.4,1,1.4l2.9-1
		c1.2-0.4,2.3-1.4,2.7-2.7C84.5,83.5,83.2,81.1,81,80.4z"/>
	<path class="st1" d="M67.6,82c-1.4,1.9-1,4.6,0.9,6c0.4,0.3,0.8,0.5,1.2,0.6l0,0l3,1c0,0,0.3-0.9,1.1-1.5s1.6-0.5,1.6-0.5l0-3.1
		c0-1.3-0.6-2.6-1.8-3.4C71.7,79.6,69,80,67.6,82L67.6,82z"/>
	<path class="st1" d="M64.9,95.2c1.4,1.9,4.1,2.3,6,0.9c0.4-0.3,0.7-0.6,0.9-0.9l0,0l1.8-2.5c0,0-0.8-0.6-1.1-1.5s0-1.7,0-1.7
		l-3-0.9c-1.2-0.4-2.7-0.2-3.8,0.6C63.9,90.6,63.5,93.3,64.9,95.2L64.9,95.2z"/>
	<path class="st1" d="M76.7,101.8c2.3-0.7,3.5-3.2,2.8-5.4c-0.1-0.4-0.3-0.8-0.6-1.2l0,0L77,92.7c0,0-0.8,0.6-1.8,0.6
		s-1.6-0.6-1.6-0.6l-1.8,2.5c-0.8,1.1-1,2.5-0.6,3.8C72,101.3,74.4,102.5,76.7,101.8L76.7,101.8z"/>
	<path class="st1" d="M86.6,92.7c0-2.4-1.9-4.3-4.3-4.3c-0.4,0-0.9,0.1-1.3,0.2l0,0l-3,1c0,0,0.3,0.9,0,1.8s-1,1.3-1,1.3l1.8,2.5
		c0.8,1.1,2,1.7,3.4,1.7C84.7,97,86.6,95.1,86.6,92.7L86.6,92.7z"/>
	<circle class="st1" cx="75.4" cy="90.4" r="3.5"/>
</g>
<g>
	<circle class="st1" cx="101.3" cy="90.4" r="2.9"/>
	<path class="st1" d="M106.9,80.4c-2.3-0.7-4.7,0.5-5.4,2.8c-0.1,0.4-0.2,0.9-0.2,1.3l0,0v3.1c0,0,1,0,1.8,0.6s1,1.4,1,1.4l2.9-1
		c1.2-0.4,2.3-1.4,2.7-2.7C110.4,83.5,109.2,81.1,106.9,80.4z"/>
	<path class="st1" d="M93.5,82c-1.4,1.9-1,4.6,0.9,6c0.4,0.3,0.8,0.5,1.2,0.6l0,0l3,1c0,0,0.3-0.9,1.1-1.5s1.6-0.5,1.6-0.5l0-3.1
		c0-1.3-0.6-2.6-1.8-3.4C97.6,79.6,94.9,80,93.5,82L93.5,82z"/>
	<path class="st1" d="M90.8,95.2c1.4,1.9,4.1,2.3,6,0.9c0.4-0.3,0.7-0.6,0.9-0.9l0,0l1.8-2.5c0,0-0.8-0.6-1.1-1.5s0-1.7,0-1.7
		l-3-0.9c-1.2-0.4-2.7-0.2-3.8,0.6C89.9,90.6,89.4,93.3,90.8,95.2L90.8,95.2z"/>
	<path class="st1" d="M102.6,101.8c2.3-0.7,3.5-3.2,2.8-5.4c-0.1-0.4-0.3-0.8-0.6-1.2l0,0l-1.8-2.5c0,0-0.8,0.6-1.8,0.6
		s-1.6-0.6-1.6-0.6l-1.8,2.5c-0.8,1.1-1,2.5-0.6,3.8C97.9,101.3,100.4,102.5,102.6,101.8L102.6,101.8z"/>
	<path class="st1" d="M112.6,92.7c0-2.4-1.9-4.3-4.3-4.3c-0.4,0-0.9,0.1-1.3,0.2l0,0l-3,1c0,0,0.3,0.9,0,1.8s-1,1.3-1,1.3l1.8,2.5
		c0.8,1.1,2,1.7,3.4,1.7C110.6,97,112.6,95.1,112.6,92.7L112.6,92.7z"/>
	<circle class="st1" cx="101.3" cy="90.4" r="3.5"/>
</g>
<g>
	<circle class="st1" cx="127.2" cy="90.4" r="2.9"/>
	<path class="st1" d="M132.8,80.4c-2.3-0.7-4.7,0.5-5.4,2.8c-0.1,0.4-0.2,0.9-0.2,1.3l0,0v3.1c0,0,1,0,1.7,0.6c0.8,0.6,1,1.4,1,1.4
		l2.9-1c1.2-0.4,2.3-1.4,2.7-2.7C136.3,83.5,135.1,81.1,132.8,80.4z"/>
	<path class="st1" d="M119.4,82c-1.4,1.9-1,4.6,0.9,6c0.4,0.3,0.8,0.5,1.2,0.6l0,0l3,1c0,0,0.3-0.9,1.1-1.5s1.6-0.5,1.6-0.5l0-3.1
		c0-1.3-0.6-2.6-1.8-3.4C123.5,79.6,120.8,80,119.4,82L119.4,82z"/>
	<path class="st1" d="M116.8,95.2c1.4,1.9,4.1,2.3,6,0.9c0.4-0.3,0.7-0.6,0.9-0.9l0,0l1.8-2.5c0,0-0.8-0.6-1.1-1.5s0-1.7,0-1.7
		l-3-0.9c-1.2-0.4-2.7-0.2-3.8,0.6C115.8,90.6,115.4,93.3,116.8,95.2L116.8,95.2z"/>
	<path class="st1" d="M128.5,101.8c2.3-0.7,3.5-3.2,2.8-5.4c-0.1-0.4-0.3-0.8-0.6-1.2l0,0l-1.8-2.5c0,0-0.8,0.6-1.8,0.6
		s-1.6-0.6-1.6-0.6l-1.8,2.5c-0.8,1.1-1,2.5-0.6,3.8C123.9,101.3,126.3,102.5,128.5,101.8L128.5,101.8z"/>
	<path class="st1" d="M138.5,92.7c0-2.4-1.9-4.3-4.3-4.3c-0.4,0-0.9,0.1-1.3,0.2l0,0l-3,1c0,0,0.3,0.9,0,1.8s-1,1.3-1,1.3l1.8,2.5
		c0.8,1.1,2,1.7,3.4,1.7C136.5,97,138.5,95.1,138.5,92.7L138.5,92.7z"/>
	<circle class="st1" cx="127.2" cy="90.4" r="3.5"/>
</g>
<g>
	<circle class="st1" cx="8" cy="116.3" r="2.9"/>
	<path class="st1" d="M13.6,106.3c-2.3-0.7-4.7,0.5-5.4,2.8C8,109.5,8,109.9,8,110.3l0,0v3.1c0,0,1,0,1.8,0.6s1,1.4,1,1.4l2.9-1
		c1.2-0.4,2.3-1.4,2.7-2.7C17.1,109.5,15.9,107,13.6,106.3z"/>
	<path class="st1" d="M0.2,107.9c-1.4,1.9-1,4.6,1,6c0.4,0.3,0.8,0.5,1.2,0.6l0,0l3,1c0,0,0.3-0.9,1.1-1.5s1.6-0.5,1.6-0.5l0-3.1
		c0-1.3-0.6-2.6-1.8-3.4C4.3,105.5,1.6,106,0.2,107.9L0.2,107.9z"/>
	<path class="st1" d="M-2.5,121.1c1.4,1.9,4.1,2.3,6,0.9c0.4-0.3,0.7-0.6,0.9-0.9l0,0l1.8-2.5c0,0-0.8-0.6-1.1-1.5s0-1.7,0-1.7
		l-3-0.9c-1.2-0.4-2.7-0.2-3.8,0.6C-3.5,116.5-3.9,119.2-2.5,121.1L-2.5,121.1z"/>
	<path class="st1" d="M9.3,127.7c2.3-0.7,3.5-3.2,2.8-5.4c-0.1-0.4-0.3-0.8-0.6-1.2l0,0l-1.8-2.5c0,0-0.8,0.6-1.8,0.6
		s-1.6-0.6-1.6-0.6l-1.8,2.5c-0.8,1.1-1,2.5-0.6,3.8C4.6,127.2,7,128.5,9.3,127.7L9.3,127.7z"/>
	<path class="st1" d="M19.2,118.6c0-2.4-1.9-4.3-4.3-4.3c-0.4,0-0.9,0.1-1.3,0.2l0,0l-3,1c0,0,0.3,0.9,0,1.8s-1,1.3-1,1.3l1.8,2.5
		c0.8,1.1,2,1.7,3.4,1.7C17.3,122.9,19.2,121,19.2,118.6L19.2,118.6z"/>
	<circle class="st1" cx="8" cy="116.3" r="3.5"/>
</g>
<g>
	<circle class="st1" cx="33.9" cy="116.3" r="2.9"/>
	<path class="st1" d="M39.5,106.3c-2.3-0.7-4.7,0.5-5.4,2.8c-0.1,0.4-0.2,0.9-0.2,1.3l0,0v3.1c0,0,1,0,1.8,0.6s1,1.4,1,1.4l3-1
		c1.2-0.4,2.3-1.4,2.7-2.7C43,109.5,41.8,107,39.5,106.3z"/>
	<path class="st1" d="M26.1,107.9c-1.4,1.9-1,4.6,1,6c0.4,0.3,0.8,0.5,1.2,0.6l0,0l3,1c0,0,0.3-0.9,1.1-1.5s1.6-0.5,1.6-0.5l0-3.1
		c0-1.3-0.6-2.6-1.8-3.4C30.2,105.5,27.5,106,26.1,107.9L26.1,107.9z"/>
	<path class="st1" d="M23.4,121.1c1.4,1.9,4.1,2.3,6,0.9c0.4-0.3,0.7-0.6,0.9-0.9l0,0l1.8-2.5c0,0-0.8-0.6-1.1-1.5s0-1.7,0-1.7
		l-3-0.9c-1.2-0.4-2.7-0.2-3.8,0.6C22.5,116.5,22,119.2,23.4,121.1L23.4,121.1z"/>
	<path class="st1" d="M35.2,127.7c2.3-0.7,3.5-3.2,2.8-5.4c-0.1-0.4-0.3-0.8-0.6-1.2l0,0l-1.8-2.5c0,0-0.8,0.6-1.8,0.6
		s-1.6-0.6-1.6-0.6l-1.8,2.5c-0.8,1.1-1,2.5-0.6,3.8C30.5,127.2,33,128.5,35.2,127.7L35.2,127.7z"/>
	<path class="st1" d="M45.2,118.6c0-2.4-1.9-4.3-4.3-4.3c-0.5,0-0.9,0.1-1.3,0.2l0,0l-3,1c0,0,0.3,0.9,0,1.8s-1,1.3-1,1.3l1.8,2.5
		c0.8,1.1,2,1.7,3.5,1.7C43.2,122.9,45.2,121,45.2,118.6L45.2,118.6z"/>
	<circle class="st1" cx="33.9" cy="116.3" r="3.5"/>
</g>
<g>
	<circle class="st1" cx="59.8" cy="116.3" r="2.9"/>
	<path class="st1" d="M65.4,106.3c-2.3-0.7-4.7,0.5-5.4,2.8c-0.1,0.4-0.2,0.9-0.2,1.3l0,0v3.1c0,0,1,0,1.8,0.6s1,1.4,1,1.4l2.9-1
		c1.2-0.4,2.3-1.4,2.7-2.7C68.9,109.5,67.7,107,65.4,106.3z"/>
	<path class="st1" d="M52,107.9c-1.4,1.9-1,4.6,1,6c0.4,0.3,0.8,0.5,1.2,0.6l0,0l3,1c0,0,0.3-0.9,1.1-1.5s1.6-0.5,1.6-0.5l0-3.1
		c0-1.3-0.6-2.6-1.8-3.4C56.1,105.5,53.4,106,52,107.9L52,107.9z"/>
	<path class="st1" d="M49.4,121.1c1.4,1.9,4.1,2.3,6,0.9c0.4-0.3,0.7-0.6,0.9-0.9l0,0l1.8-2.5c0,0-0.8-0.6-1.1-1.5s0-1.7,0-1.7
		l-3-0.9c-1.2-0.4-2.7-0.2-3.8,0.6C48.4,116.5,48,119.2,49.4,121.1L49.4,121.1z"/>
	<path class="st1" d="M61.1,127.7c2.3-0.7,3.5-3.2,2.8-5.4c-0.1-0.4-0.3-0.8-0.6-1.2l0,0l-1.8-2.5c0,0-0.8,0.6-1.8,0.6
		s-1.6-0.6-1.6-0.6l-1.8,2.5c-0.8,1.1-1,2.5-0.6,3.8C56.5,127.2,58.9,128.5,61.1,127.7L61.1,127.7z"/>
	<path class="st1" d="M71.1,118.6c0-2.4-1.9-4.3-4.3-4.3c-0.4,0-0.9,0.1-1.3,0.2l0,0l-3,1c0,0,0.3,0.9,0,1.8s-1,1.3-1,1.3l1.8,2.5
		c0.8,1.1,2,1.7,3.4,1.7C69.1,122.9,71.1,121,71.1,118.6L71.1,118.6z"/>
	<circle class="st1" cx="59.8" cy="116.3" r="3.5"/>
</g>
<g>
	<circle class="st1" cx="85.7" cy="116.3" r="2.9"/>
	<path class="st1" d="M91.4,106.3c-2.3-0.7-4.7,0.5-5.4,2.8c-0.1,0.4-0.2,0.9-0.2,1.3l0,0v3.1c0,0,1,0,1.8,0.6s1,1.4,1,1.4l2.9-1
		c1.2-0.4,2.3-1.4,2.7-2.7C94.9,109.5,93.6,107,91.4,106.3z"/>
	<path class="st1" d="M77.9,107.9c-1.4,1.9-1,4.6,0.9,6c0.4,0.3,0.8,0.5,1.2,0.6l0,0l3,1c0,0,0.3-0.9,1.1-1.5s1.6-0.5,1.6-0.5l0-3.1
		c0-1.3-0.6-2.6-1.8-3.4C82,105.5,79.3,106,77.9,107.9L77.9,107.9z"/>
	<path class="st1" d="M75.3,121.1c1.4,1.9,4.1,2.3,6,0.9c0.4-0.3,0.7-0.6,0.9-0.9l0,0l1.8-2.5c0,0-0.8-0.6-1.1-1.5s0-1.7,0-1.7
		l-3-0.9c-1.2-0.4-2.7-0.2-3.8,0.6C74.3,116.5,73.9,119.2,75.3,121.1L75.3,121.1z"/>
	<path class="st1" d="M87.1,127.7c2.3-0.7,3.5-3.2,2.8-5.4c-0.1-0.4-0.3-0.8-0.6-1.2l0,0l-1.8-2.5c0,0-0.8,0.6-1.8,0.6
		s-1.6-0.6-1.6-0.6l-1.8,2.5c-0.8,1.1-1,2.5-0.6,3.8C82.4,127.2,84.8,128.5,87.1,127.7L87.1,127.7z"/>
	<path class="st1" d="M97,118.6c0-2.4-1.9-4.3-4.3-4.3c-0.4,0-0.9,0.1-1.3,0.2l0,0l-3,1c0,0,0.3,0.9,0,1.8s-1,1.3-1,1.3l1.8,2.5
		c0.8,1.1,2,1.7,3.4,1.7C95.1,122.9,97,121,97,118.6L97,118.6z"/>
	<circle class="st1" cx="85.7" cy="116.3" r="3.5"/>
</g>
<g>
	<circle class="st1" cx="111.6" cy="116.3" r="2.9"/>
	<path class="st1" d="M117.3,106.3c-2.3-0.7-4.7,0.5-5.4,2.8c-0.1,0.4-0.2,0.9-0.2,1.3l0,0v3.1c0,0,1,0,1.8,0.6s1,1.4,1,1.4l2.9-1
		c1.2-0.4,2.3-1.4,2.7-2.7C120.8,109.5,119.5,107,117.3,106.3z"/>
	<path class="st1" d="M103.9,107.9c-1.4,1.9-1,4.6,0.9,6c0.4,0.3,0.8,0.5,1.2,0.6l0,0l3,1c0,0,0.3-0.9,1.1-1.5s1.6-0.5,1.6-0.5
		l0-3.1c0-1.3-0.6-2.6-1.8-3.4C108,105.5,105.3,106,103.9,107.9L103.9,107.9z"/>
	<path class="st1" d="M101.2,121.1c1.4,1.9,4.1,2.3,6,0.9c0.4-0.3,0.7-0.6,0.9-0.9l0,0l1.8-2.5c0,0-0.8-0.6-1.1-1.5s0-1.7,0-1.7
		l-3-0.9c-1.2-0.4-2.7-0.2-3.8,0.6C100.2,116.5,99.8,119.2,101.2,121.1L101.2,121.1z"/>
	<path class="st1" d="M113,127.7c2.3-0.7,3.5-3.2,2.8-5.4c-0.1-0.4-0.3-0.8-0.6-1.2l0,0l-1.8-2.5c0,0-0.8,0.6-1.8,0.6
		s-1.6-0.6-1.6-0.6l-1.8,2.5c-0.8,1.1-1,2.5-0.6,3.8C108.3,127.2,110.7,128.5,113,127.7L113,127.7z"/>
	<path class="st1" d="M122.9,118.6c0-2.4-1.9-4.3-4.3-4.3c-0.4,0-0.9,0.1-1.3,0.2l0,0l-3,1c0,0,0.3,0.9,0,1.8s-1,1.3-1,1.3l1.8,2.5
		c0.8,1.1,2,1.7,3.4,1.7C121,122.9,122.9,121,122.9,118.6L122.9,118.6z"/>
	<circle class="st1" cx="111.6" cy="116.3" r="3.5"/>
</g>
<g>
	<path class="st1" d="M129.8,107.9c-1.4,1.9-1,4.6,0.9,6c0.4,0.3,0.8,0.5,1.2,0.6l0,0l3,1c0,0,0.3-0.9,1.1-1.5s1.6-0.5,1.6-0.5
		l0-3.1c0-1.3-0.6-2.6-1.8-3.4C133.9,105.5,131.2,106,129.8,107.9L129.8,107.9z"/>
	<path class="st1" d="M127.1,121.1c1.4,1.9,4.1,2.3,6,0.9c0.4-0.3,0.7-0.6,0.9-0.9l0,0l1.8-2.5c0,0-0.8-0.6-1.1-1.5s0-1.7,0-1.7
		l-3-0.9c-1.2-0.4-2.7-0.2-3.8,0.6C126.1,116.5,125.7,119.2,127.1,121.1L127.1,121.1z"/>
</g>
</svg>
