<?xml version="1.0" encoding="utf-8"?>
<!-- Generator: Adobe Illustrator 27.9.4, SVG Export Plug-In . SVG Version: 9.03 Build 54784)  -->
<svg version="1.1" id="Layer_2" xmlns="http://www.w3.org/2000/svg" xmlns:xlink="http://www.w3.org/1999/xlink" x="0px" y="0px"
	 viewBox="0 0 48.2 48.1" style="enable-background:new 0 0 48.2 48.1;" xml:space="preserve">
<style type="text/css">
	.st0{fill:none;stroke:#5199C7;stroke-width:0.5;stroke-linecap:round;}
	.st1{fill:none;}
</style>
<g transform="translate(-1347.146 -316.146)">
	<path id="Path_3-8_00000155121503006825885810000001054883552535029167_" class="st0" d="M1347.1,318.8c3,0,2.7-2.2,5.8-2.2
		c2.7,0,3,2.2,6.2,2.2c3.1,0,3.1-2.2,6.2-2.2c2.9,0,3.4,2.2,6,2.2c2.8,0,3.1-2.2,6.3-2.2c2.5,0,2.9,2.2,5.8,2.2
		c2.7,0,3.1-2.2,5.9-2.2c2.8,0,3.3,2.2,6.2,2.2h-0.1c3,0,2.7-2.2,5.8-2.2c2.7,0,3,2.2,6.2,2.2c3.1,0,3.1-2.2,6.2-2.2
		c2.9,0,3.4,2.2,6,2.2c2.8,0,3.1-2.2,6.3-2.2c2.5,0,2.9,2.2,5.8,2.2c2.7,0,3.1-2.2,5.9-2.2c2.8,0,3.3,2.2,6.2,2.2"/>
</g>
<g transform="translate(-1347.146 -316.146)">
	<path id="Path_3-8_00000014631239375874371400000012737149892427756456_" class="st0" d="M1347.1,322.6c3,0,2.7-2.2,5.8-2.2
		c2.7,0,3,2.2,6.2,2.2c3.1,0,3.1-2.2,6.2-2.2c2.9,0,3.4,2.2,6,2.2c2.8,0,3.1-2.2,6.3-2.2c2.5,0,2.9,2.2,5.8,2.2
		c2.7,0,3.1-2.2,5.9-2.2c2.8,0,3.3,2.2,6.2,2.2h-0.1c3,0,2.7-2.2,5.8-2.2c2.7,0,3,2.2,6.2,2.2c3.1,0,3.1-2.2,6.2-2.2
		c2.9,0,3.4,2.2,6,2.2c2.8,0,3.1-2.2,6.3-2.2c2.5,0,2.9,2.2,5.8,2.2c2.7,0,3.1-2.2,5.9-2.2c2.8,0,3.3,2.2,6.2,2.2"/>
</g>
<g transform="translate(-1347.146 -316.146)">
	<path id="Path_3-8_00000011014539039340330020000013252558379822734979_" class="st0" d="M1347.1,326.5c3,0,2.7-2.2,5.8-2.2
		c2.7,0,3,2.2,6.2,2.2c3.1,0,3.1-2.2,6.2-2.2c2.9,0,3.4,2.2,6,2.2c2.8,0,3.1-2.2,6.3-2.2c2.5,0,2.9,2.2,5.8,2.2
		c2.7,0,3.1-2.2,5.9-2.2c2.8,0,3.3,2.2,6.2,2.2h-0.1c3,0,2.7-2.2,5.8-2.2c2.7,0,3,2.2,6.2,2.2c3.1,0,3.1-2.2,6.2-2.2
		c2.9,0,3.4,2.2,6,2.2c2.8,0,3.1-2.2,6.3-2.2c2.5,0,2.9,2.2,5.8,2.2c2.7,0,3.1-2.2,5.9-2.2c2.8,0,3.3,2.2,6.2,2.2"/>
</g>
<g transform="translate(-1347.146 -316.146)">
	<path id="Path_3-8_00000128479479714595528240000011409208705082504101_" class="st0" d="M1347.1,330.1c3,0,2.7-2.2,5.8-2.2
		c2.7,0,3,2.2,6.2,2.2c3.1,0,3.1-2.2,6.2-2.2c2.9,0,3.4,2.2,6,2.2c2.8,0,3.1-2.2,6.3-2.2c2.5,0,2.9,2.2,5.8,2.2
		c2.7,0,3.1-2.2,5.9-2.2c2.8,0,3.3,2.2,6.2,2.2h-0.1c3,0,2.7-2.2,5.8-2.2c2.7,0,3,2.2,6.2,2.2c3.1,0,3.1-2.2,6.2-2.2
		c2.9,0,3.4,2.2,6,2.2c2.8,0,3.1-2.2,6.3-2.2c2.5,0,2.9,2.2,5.8,2.2c2.7,0,3.1-2.2,5.9-2.2c2.8,0,3.3,2.2,6.2,2.2"/>
</g>
<g transform="translate(-1347.146 -316.146)">
	<path id="Path_3-8_00000048491627325864978210000002572069611773105835_" class="st0" d="M1347.1,333.9c3,0,2.7-2.2,5.8-2.2
		c2.7,0,3,2.2,6.2,2.2c3.1,0,3.1-2.2,6.2-2.2c2.9,0,3.4,2.2,6,2.2c2.8,0,3.1-2.2,6.3-2.2c2.5,0,2.9,2.2,5.8,2.2
		c2.7,0,3.1-2.2,5.9-2.2c2.8,0,3.3,2.2,6.2,2.2h-0.1c3,0,2.7-2.2,5.8-2.2c2.7,0,3,2.2,6.2,2.2c3.1,0,3.1-2.2,6.2-2.2
		c2.9,0,3.4,2.2,6,2.2c2.8,0,3.1-2.2,6.3-2.2c2.5,0,2.9,2.2,5.8,2.2c2.7,0,3.1-2.2,5.9-2.2c2.8,0,3.3,2.2,6.2,2.2"/>
</g>
<g transform="translate(-1347.146 -316.146)">
	<path id="Path_3-8_00000005247291803435404540000013601796457768990908_" class="st0" d="M1347.1,337.6c3,0,2.7-2.2,5.8-2.2
		c2.7,0,3,2.2,6.2,2.2c3.1,0,3.1-2.2,6.2-2.2c2.9,0,3.4,2.2,6,2.2c2.8,0,3.1-2.2,6.3-2.2c2.5,0,2.9,2.2,5.8,2.2
		c2.7,0,3.1-2.2,5.9-2.2c2.8,0,3.3,2.2,6.2,2.2h-0.1c3,0,2.7-2.2,5.8-2.2c2.7,0,3,2.2,6.2,2.2c3.1,0,3.1-2.2,6.2-2.2
		c2.9,0,3.4,2.2,6,2.2c2.8,0,3.1-2.2,6.3-2.2c2.5,0,2.9,2.2,5.8,2.2c2.7,0,3.1-2.2,5.9-2.2c2.8,0,3.3,2.2,6.2,2.2"/>
</g>
<g transform="translate(-1347.146 -316.146)">
	<path id="Path_3-8_00000011732326834493215780000017298052790138734261_" class="st0" d="M1347.1,341.5c3,0,2.7-2.2,5.8-2.2
		c2.7,0,3,2.2,6.2,2.2c3.1,0,3.1-2.2,6.2-2.2c2.9,0,3.4,2.2,6,2.2c2.8,0,3.1-2.2,6.3-2.2c2.5,0,2.9,2.2,5.8,2.2
		c2.7,0,3.1-2.2,5.9-2.2c2.8,0,3.3,2.2,6.2,2.2h-0.1c3,0,2.7-2.2,5.8-2.2c2.7,0,3,2.2,6.2,2.2c3.1,0,3.1-2.2,6.2-2.2
		c2.9,0,3.4,2.2,6,2.2c2.8,0,3.1-2.2,6.3-2.2c2.5,0,2.9,2.2,5.8,2.2c2.7,0,3.1-2.2,5.9-2.2c2.8,0,3.3,2.2,6.2,2.2"/>
</g>
<g transform="translate(-1347.146 -316.146)">
	<path id="Path_3-8_00000058568500058842355600000011809280809045475478_" class="st0" d="M1347.1,345.2c3,0,2.7-2.2,5.8-2.2
		c2.7,0,3,2.2,6.2,2.2c3.1,0,3.1-2.2,6.2-2.2c2.9,0,3.4,2.2,6,2.2c2.8,0,3.1-2.2,6.3-2.2c2.5,0,2.9,2.2,5.8,2.2
		c2.7,0,3.1-2.2,5.9-2.2c2.8,0,3.3,2.2,6.2,2.2h-0.1c3,0,2.7-2.2,5.8-2.2c2.7,0,3,2.2,6.2,2.2c3.1,0,3.1-2.2,6.2-2.2
		c2.9,0,3.4,2.2,6,2.2c2.8,0,3.1-2.2,6.3-2.2c2.5,0,2.9,2.2,5.8,2.2c2.7,0,3.1-2.2,5.9-2.2c2.8,0,3.3,2.2,6.2,2.2"/>
</g>
<g transform="translate(-1347.146 -316.146)">
	<path id="Path_3-8_00000087388850171145310540000003751507114156076688_" class="st0" d="M1347.1,348.9c3,0,2.7-2.2,5.8-2.2
		c2.7,0,3,2.2,6.2,2.2c3.1,0,3.1-2.2,6.2-2.2c2.9,0,3.4,2.2,6,2.2c2.8,0,3.1-2.2,6.3-2.2c2.5,0,2.9,2.2,5.8,2.2
		c2.7,0,3.1-2.2,5.9-2.2c2.8,0,3.3,2.2,6.2,2.2h-0.1c3,0,2.7-2.2,5.8-2.2c2.7,0,3,2.2,6.2,2.2c3.1,0,3.1-2.2,6.2-2.2
		c2.9,0,3.4,2.2,6,2.2c2.8,0,3.1-2.2,6.3-2.2c2.5,0,2.9,2.2,5.8,2.2c2.7,0,3.1-2.2,5.9-2.2c2.8,0,3.3,2.2,6.2,2.2"/>
</g>
<g transform="translate(-1347.146 -316.146)">
	<path id="Path_3-8_00000134971429869500363760000014277009433166617481_" class="st0" d="M1347.1,352.7c3,0,2.7-2.2,5.8-2.2
		c2.7,0,3,2.2,6.2,2.2c3.1,0,3.1-2.2,6.2-2.2c2.9,0,3.4,2.2,6,2.2c2.8,0,3.1-2.2,6.3-2.2c2.5,0,2.9,2.2,5.8,2.2
		c2.7,0,3.1-2.2,5.9-2.2c2.8,0,3.3,2.2,6.2,2.2h-0.1c3,0,2.7-2.2,5.8-2.2c2.7,0,3,2.2,6.2,2.2c3.1,0,3.1-2.2,6.2-2.2
		c2.9,0,3.4,2.2,6,2.2c2.8,0,3.1-2.2,6.3-2.2c2.5,0,2.9,2.2,5.8,2.2c2.7,0,3.1-2.2,5.9-2.2c2.8,0,3.3,2.2,6.2,2.2"/>
</g>
<g transform="translate(-1347.146 -316.146)">
	<path id="Path_3-8_00000179604166662473971240000016279736320095525797_" class="st0" d="M1347.1,356.3c3,0,2.7-2.2,5.8-2.2
		c2.7,0,3,2.2,6.2,2.2c3.1,0,3.1-2.2,6.2-2.2c2.9,0,3.4,2.2,6,2.2c2.8,0,3.1-2.2,6.3-2.2c2.5,0,2.9,2.2,5.8,2.2
		c2.7,0,3.1-2.2,5.9-2.2c2.8,0,3.3,2.2,6.2,2.2h-0.1c3,0,2.7-2.2,5.8-2.2c2.7,0,3,2.2,6.2,2.2c3.1,0,3.1-2.2,6.2-2.2
		c2.9,0,3.4,2.2,6,2.2c2.8,0,3.1-2.2,6.3-2.2c2.5,0,2.9,2.2,5.8,2.2c2.7,0,3.1-2.2,5.9-2.2c2.8,0,3.3,2.2,6.2,2.2"/>
</g>
<g transform="translate(-1347.146 -316.146)">
	<path id="Path_3-8_00000066508093710192296530000017654431747494420927_" class="st0" d="M1347.1,360c3,0,2.7-2.2,5.8-2.2
		c2.7,0,3,2.2,6.2,2.2c3.1,0,3.1-2.2,6.2-2.2c2.9,0,3.4,2.2,6,2.2c2.8,0,3.1-2.2,6.3-2.2c2.5,0,2.9,2.2,5.8,2.2
		c2.7,0,3.1-2.2,5.9-2.2c2.8,0,3.3,2.2,6.2,2.2h-0.1c3,0,2.7-2.2,5.8-2.2c2.7,0,3,2.2,6.2,2.2c3.1,0,3.1-2.2,6.2-2.2
		c2.9,0,3.4,2.2,6,2.2c2.8,0,3.1-2.2,6.3-2.2c2.5,0,2.9,2.2,5.8,2.2c2.7,0,3.1-2.2,5.9-2.2c2.8,0,3.3,2.2,6.2,2.2"/>
</g>
<g transform="translate(-1347.146 -316.146)">
	<path id="Path_3-8_00000008867552551701985860000003944870561777878404_" class="st0" d="M1347.1,363.7c3,0,2.7-2.2,5.8-2.2
		c2.7,0,3,2.2,6.2,2.2c3.1,0,3.1-2.2,6.2-2.2c2.9,0,3.4,2.2,6,2.2c2.8,0,3.1-2.2,6.3-2.2c2.5,0,2.9,2.2,5.8,2.2
		c2.7,0,3.1-2.2,5.9-2.2c2.8,0,3.3,2.2,6.2,2.2h-0.1c3,0,2.7-2.2,5.8-2.2c2.7,0,3,2.2,6.2,2.2c3.1,0,3.1-2.2,6.2-2.2
		c2.9,0,3.4,2.2,6,2.2c2.8,0,3.1-2.2,6.3-2.2c2.5,0,2.9,2.2,5.8,2.2c2.7,0,3.1-2.2,5.9-2.2c2.8,0,3.3,2.2,6.2,2.2"/>
</g>
<rect x="18.4" y="-1.8" class="st1" width="41.8" height="42"/>
</svg>
