<?xml version="1.0" encoding="utf-8"?>
<!-- Generator: Adobe Illustrator 27.9.4, SVG Export Plug-In . SVG Version: 9.03 Build 54784)  -->
<svg version="1.1" id="Layer_2" xmlns="http://www.w3.org/2000/svg" xmlns:xlink="http://www.w3.org/1999/xlink" x="0px" y="0px"
	 viewBox="0 0 48.2 48.1" style="enable-background:new 0 0 48.2 48.1;" xml:space="preserve">
<style type="text/css">
	.st0{fill:none;stroke:#5199C7;stroke-width:0.5;stroke-linecap:round;}
	.st1{fill:none;}
</style>
<g transform="translate(-1347.146 -316.146)">
	<path id="Path_3-8_00000155121503006825885810000001054883552535029167_" class="st0" d="M1325.8,321.3c3.5,0,3.2-2.5,6.7-2.5
		c3.2,0,3.5,2.5,7.2,2.5c3.5,0,3.6-2.5,7.2-2.5c3.4,0,3.9,2.5,6.9,2.5c3.3,0,3.6-2.5,7.3-2.5c2.9,0,3.4,2.5,6.7,2.5
		c3.2,0,3.6-2.5,6.8-2.5c3.3,0,3.8,2.5,7.2,2.5h-0.1c3.5,0,3.2-2.5,6.7-2.5c3.2,0,3.5,2.5,7.2,2.5c3.5,0,3.6-2.5,7.2-2.5
		c3.4,0,3.9,2.5,6.9,2.5c3.3,0,3.6-2.5,7.3-2.5c2.9,0,3.4,2.5,6.7,2.5c3.2,0,3.6-2.5,6.8-2.5c3.3,0,3.8,2.5,7.2,2.5"/>
</g>
<g transform="translate(-1347.146 -316.146)">
	<path id="Path_3-8_00000014631239375874371400000012737149892427756456_" class="st0" d="M1325.8,325.6c3.5,0,3.2-2.5,6.7-2.5
		c3.2,0,3.5,2.5,7.2,2.5c3.5,0,3.6-2.5,7.2-2.5c3.4,0,3.9,2.5,6.9,2.5c3.3,0,3.6-2.5,7.3-2.5c2.9,0,3.4,2.5,6.7,2.5
		c3.2,0,3.6-2.5,6.8-2.5c3.3,0,3.8,2.5,7.2,2.5h-0.1c3.5,0,3.2-2.5,6.7-2.5c3.2,0,3.5,2.5,7.2,2.5c3.5,0,3.6-2.5,7.2-2.5
		c3.4,0,3.9,2.5,6.9,2.5c3.3,0,3.6-2.5,7.3-2.5c2.9,0,3.4,2.5,6.7,2.5c3.2,0,3.6-2.5,6.8-2.5c3.3,0,3.8,2.5,7.2,2.5"/>
</g>
<g transform="translate(-1347.146 -316.146)">
	<path id="Path_3-8_00000011014539039340330020000013252558379822734979_" class="st0" d="M1325.8,329.9c3.5,0,3.2-2.5,6.7-2.5
		c3.2,0,3.5,2.5,7.2,2.5c3.5,0,3.6-2.5,7.2-2.5c3.4,0,3.9,2.5,6.9,2.5c3.3,0,3.6-2.5,7.3-2.5c2.9,0,3.4,2.5,6.7,2.5
		c3.2,0,3.6-2.5,6.8-2.5c3.3,0,3.8,2.5,7.2,2.5h-0.1c3.5,0,3.2-2.5,6.7-2.5c3.2,0,3.5,2.5,7.2,2.5c3.5,0,3.6-2.5,7.2-2.5
		c3.4,0,3.9,2.5,6.9,2.5c3.3,0,3.6-2.5,7.3-2.5c2.9,0,3.4,2.5,6.7,2.5c3.2,0,3.6-2.5,6.8-2.5c3.3,0,3.8,2.5,7.2,2.5"/>
</g>
<g transform="translate(-1347.146 -316.146)">
	<path id="Path_3-8_00000128479479714595528240000011409208705082504101_" class="st0" d="M1325.8,334.1c3.5,0,3.2-2.5,6.7-2.5
		c3.2,0,3.5,2.5,7.2,2.5c3.5,0,3.6-2.5,7.2-2.5c3.4,0,3.9,2.5,6.9,2.5c3.3,0,3.6-2.5,7.3-2.5c2.9,0,3.4,2.5,6.7,2.5
		c3.2,0,3.6-2.5,6.8-2.5c3.3,0,3.8,2.5,7.2,2.5h-0.1c3.5,0,3.2-2.5,6.7-2.5c3.2,0,3.5,2.5,7.2,2.5c3.5,0,3.6-2.5,7.2-2.5
		c3.4,0,3.9,2.5,6.9,2.5c3.3,0,3.6-2.5,7.3-2.5c2.9,0,3.4,2.5,6.7,2.5c3.2,0,3.6-2.5,6.8-2.5c3.3,0,3.8,2.5,7.2,2.5"/>
</g>
<g transform="translate(-1347.146 -316.146)">
	<path id="Path_3-8_00000048491627325864978210000002572069611773105835_" class="st0" d="M1325.8,338.4c3.5,0,3.2-2.5,6.7-2.5
		c3.2,0,3.5,2.5,7.2,2.5c3.5,0,3.6-2.5,7.2-2.5c3.4,0,3.9,2.5,6.9,2.5c3.3,0,3.6-2.5,7.3-2.5c2.9,0,3.4,2.5,6.7,2.5
		c3.2,0,3.6-2.5,6.8-2.5c3.3,0,3.8,2.5,7.2,2.5h-0.1c3.5,0,3.2-2.5,6.7-2.5c3.2,0,3.5,2.5,7.2,2.5c3.5,0,3.6-2.5,7.2-2.5
		c3.4,0,3.9,2.5,6.9,2.5c3.3,0,3.6-2.5,7.3-2.5c2.9,0,3.4,2.5,6.7,2.5c3.2,0,3.6-2.5,6.8-2.5c3.3,0,3.8,2.5,7.2,2.5"/>
</g>
<g transform="translate(-1347.146 -316.146)">
	<path id="Path_3-8_00000005247291803435404540000013601796457768990908_" class="st0" d="M1325.8,342.6c3.5,0,3.2-2.5,6.7-2.5
		c3.2,0,3.5,2.5,7.2,2.5c3.5,0,3.6-2.5,7.2-2.5c3.4,0,3.9,2.5,6.9,2.5c3.3,0,3.6-2.5,7.3-2.5c2.9,0,3.4,2.5,6.7,2.5
		c3.2,0,3.6-2.5,6.8-2.5c3.3,0,3.8,2.5,7.2,2.5h-0.1c3.5,0,3.2-2.5,6.7-2.5c3.2,0,3.5,2.5,7.2,2.5c3.5,0,3.6-2.5,7.2-2.5
		c3.4,0,3.9,2.5,6.9,2.5c3.3,0,3.6-2.5,7.3-2.5c2.9,0,3.4,2.5,6.7,2.5c3.2,0,3.6-2.5,6.8-2.5c3.3,0,3.8,2.5,7.2,2.5"/>
</g>
<g transform="translate(-1347.146 -316.146)">
	<path id="Path_3-8_00000011732326834493215780000017298052790138734261_" class="st0" d="M1325.8,347.1c3.5,0,3.2-2.5,6.7-2.5
		c3.2,0,3.5,2.5,7.2,2.5c3.5,0,3.6-2.5,7.2-2.5c3.4,0,3.9,2.5,6.9,2.5c3.3,0,3.6-2.5,7.3-2.5c2.9,0,3.4,2.5,6.7,2.5
		c3.2,0,3.6-2.5,6.8-2.5c3.3,0,3.8,2.5,7.2,2.5h-0.1c3.5,0,3.2-2.5,6.7-2.5c3.2,0,3.5,2.5,7.2,2.5c3.5,0,3.6-2.5,7.2-2.5
		c3.4,0,3.9,2.5,6.9,2.5c3.3,0,3.6-2.5,7.3-2.5c2.9,0,3.4,2.5,6.7,2.5c3.2,0,3.6-2.5,6.8-2.5c3.3,0,3.8,2.5,7.2,2.5"/>
</g>
<g transform="translate(-1347.146 -316.146)">
	<path id="Path_3-8_00000058568500058842355600000011809280809045475478_" class="st0" d="M1325.8,351.3c3.5,0,3.2-2.5,6.7-2.5
		c3.2,0,3.5,2.5,7.2,2.5c3.5,0,3.6-2.5,7.2-2.5c3.4,0,3.9,2.5,6.9,2.5c3.3,0,3.6-2.5,7.3-2.5c2.9,0,3.4,2.5,6.7,2.5
		c3.2,0,3.6-2.5,6.8-2.5c3.3,0,3.8,2.5,7.2,2.5h-0.1c3.5,0,3.2-2.5,6.7-2.5c3.2,0,3.5,2.5,7.2,2.5c3.5,0,3.6-2.5,7.2-2.5
		c3.4,0,3.9,2.5,6.9,2.5c3.3,0,3.6-2.5,7.3-2.5c2.9,0,3.4,2.5,6.7,2.5c3.2,0,3.6-2.5,6.8-2.5c3.3,0,3.8,2.5,7.2,2.5"/>
</g>
<g transform="translate(-1347.146 -316.146)">
	<path id="Path_3-8_00000087388850171145310540000003751507114156076688_" class="st0" d="M1325.8,355.5c3.5,0,3.2-2.5,6.7-2.5
		c3.2,0,3.5,2.5,7.2,2.5c3.5,0,3.6-2.5,7.2-2.5c3.4,0,3.9,2.5,6.9,2.5c3.3,0,3.6-2.5,7.3-2.5c2.9,0,3.4,2.5,6.7,2.5
		c3.2,0,3.6-2.5,6.8-2.5c3.3,0,3.8,2.5,7.2,2.5h-0.1c3.5,0,3.2-2.5,6.7-2.5c3.2,0,3.5,2.5,7.2,2.5c3.5,0,3.6-2.5,7.2-2.5
		c3.4,0,3.9,2.5,6.9,2.5c3.3,0,3.6-2.5,7.3-2.5c2.9,0,3.4,2.5,6.7,2.5c3.2,0,3.6-2.5,6.8-2.5c3.3,0,3.8,2.5,7.2,2.5"/>
</g>
<g transform="translate(-1347.146 -316.146)">
	<path id="Path_3-8_00000134971429869500363760000014277009433166617481_" class="st0" d="M1325.8,359.8c3.5,0,3.2-2.5,6.7-2.5
		c3.2,0,3.5,2.5,7.2,2.5c3.5,0,3.6-2.5,7.2-2.5c3.4,0,3.9,2.5,6.9,2.5c3.3,0,3.6-2.5,7.3-2.5c2.9,0,3.4,2.5,6.7,2.5
		c3.2,0,3.6-2.5,6.8-2.5c3.3,0,3.8,2.5,7.2,2.5h-0.1c3.5,0,3.2-2.5,6.7-2.5c3.2,0,3.5,2.5,7.2,2.5c3.5,0,3.6-2.5,7.2-2.5
		c3.4,0,3.9,2.5,6.9,2.5c3.3,0,3.6-2.5,7.3-2.5c2.9,0,3.4,2.5,6.7,2.5c3.2,0,3.6-2.5,6.8-2.5c3.3,0,3.8,2.5,7.2,2.5"/>
</g>
<g transform="translate(-1347.146 -316.146)">
	<path id="Path_3-8_00000179604166662473971240000016279736320095525797_" class="st0" d="M1325.8,364c3.5,0,3.2-2.5,6.7-2.5
		c3.2,0,3.5,2.5,7.2,2.5c3.5,0,3.6-2.5,7.2-2.5c3.4,0,3.9,2.5,6.9,2.5c3.3,0,3.6-2.5,7.3-2.5c2.9,0,3.4,2.5,6.7,2.5
		c3.2,0,3.6-2.5,6.8-2.5c3.3,0,3.8,2.5,7.2,2.5h-0.1c3.5,0,3.2-2.5,6.7-2.5c3.2,0,3.5,2.5,7.2,2.5c3.5,0,3.6-2.5,7.2-2.5
		c3.4,0,3.9,2.5,6.9,2.5c3.3,0,3.6-2.5,7.3-2.5c2.9,0,3.4,2.5,6.7,2.5c3.2,0,3.6-2.5,6.8-2.5c3.3,0,3.8,2.5,7.2,2.5"/>
</g>
<rect class="st1" width="48.5" height="47.9"/>
</svg>
