<?xml version="1.0" encoding="utf-8"?>
<!-- Generator: Adobe Illustrator 27.9.4, SVG Export Plug-In . SVG Version: 9.03 Build 54784)  -->
<svg version="1.1" id="Layer_2" xmlns="http://www.w3.org/2000/svg" xmlns:xlink="http://www.w3.org/1999/xlink" x="0px" y="0px"
	 viewBox="0 0 48 37" style="enable-background:new 0 0 48 37;" xml:space="preserve">
<style type="text/css">
	.st0{fill:none;stroke:#70AC00;stroke-width:0.5;stroke-linecap:round;stroke-miterlimit:10;}
</style>
<line class="st0" x1="2.5" y1="12.2" x2="23.1" y2="12.2"/>
<line class="st0" x1="9.5" y1="13.5" x2="21.3" y2="13.5"/>
<line class="st0" x1="4.6" y1="15" x2="13.3" y2="15"/>
<line class="st0" x1="11.5" y1="16.4" x2="15.4" y2="16.4"/>
<path class="st0" d="M5.9,7.2c2.6,0,4.3,2.6,4.3,5"/>
<path class="st0" d="M7.4,3.7c2.7,1.6,4.2,4.2,4.2,8.5"/>
<path class="st0" d="M19.5,7.2c-2.6,0-4.3,2.6-4.3,5"/>
<path class="st0" d="M17.8,3.7c-2.7,1.6-4.1,4.2-4.1,8.5"/>
<line class="st0" x1="12.7" y1="0.9" x2="12.7" y2="12.2"/>
<line class="st0" x1="26.4" y1="12.2" x2="47.1" y2="12.2"/>
<line class="st0" x1="33.4" y1="13.5" x2="45.3" y2="13.5"/>
<line class="st0" x1="28.5" y1="15" x2="37.2" y2="15"/>
<line class="st0" x1="35.4" y1="16.4" x2="39.4" y2="16.4"/>
<path class="st0" d="M29.8,7.2c2.6,0,4.3,2.6,4.3,5"/>
<path class="st0" d="M31.3,3.7c2.7,1.6,4.2,4.2,4.2,8.5"/>
<path class="st0" d="M43.4,7.2c-2.6,0-4.3,2.6-4.3,5"/>
<path class="st0" d="M41.8,3.7c-2.7,1.6-4.1,4.2-4.1,8.5"/>
<line class="st0" x1="36.7" y1="0.9" x2="36.7" y2="12.2"/>
<line class="st0" x1="-9.8" y1="30.9" x2="10.8" y2="30.9"/>
<line class="st0" x1="-2.8" y1="32.3" x2="9" y2="32.3"/>
<line class="st0" x1="-7.7" y1="33.8" x2="1" y2="33.8"/>
<line class="st0" x1="-0.8" y1="35.1" x2="3.1" y2="35.1"/>
<path class="st0" d="M-6.4,26c2.6,0,4.3,2.6,4.3,5"/>
<path class="st0" d="M-4.9,22.4c2.7,1.6,4.2,4.2,4.2,8.5"/>
<path class="st0" d="M7.2,26c-2.6,0-4.3,2.6-4.3,5"/>
<path class="st0" d="M5.5,22.4c-2.7,1.6-4.1,4.2-4.1,8.5"/>
<line class="st0" x1="0.4" y1="19.6" x2="0.4" y2="30.9"/>
<line class="st0" x1="37.7" y1="30.9" x2="58.3" y2="30.9"/>
<line class="st0" x1="44.7" y1="32.3" x2="56.6" y2="32.3"/>
<line class="st0" x1="39.8" y1="33.8" x2="48.5" y2="33.8"/>
<line class="st0" x1="46.7" y1="35.1" x2="50.6" y2="35.1"/>
<path class="st0" d="M41.1,26c2.6,0,4.3,2.6,4.3,5"/>
<path class="st0" d="M42.6,22.4c2.7,1.6,4.2,4.2,4.2,8.5"/>
<path class="st0" d="M54.7,26c-2.6,0-4.3,2.6-4.3,5"/>
<path class="st0" d="M53.1,22.4C50.3,24,49,26.6,49,30.9"/>
<line class="st0" x1="48" y1="19.6" x2="48" y2="30.9"/>
<line class="st0" x1="14.1" y1="30.9" x2="34.8" y2="30.9"/>
<line class="st0" x1="21.1" y1="32.3" x2="33" y2="32.3"/>
<line class="st0" x1="16.2" y1="33.8" x2="24.9" y2="33.8"/>
<line class="st0" x1="23.1" y1="35.1" x2="27.1" y2="35.1"/>
<path class="st0" d="M17.5,26c2.6,0,4.3,2.6,4.3,5"/>
<path class="st0" d="M19,22.4c2.7,1.6,4.2,4.2,4.2,8.5"/>
<path class="st0" d="M31.1,26c-2.6,0-4.3,2.6-4.3,5"/>
<path class="st0" d="M29.5,22.4c-2.7,1.6-4.1,4.2-4.1,8.5"/>
<line class="st0" x1="24.4" y1="19.6" x2="24.4" y2="30.9"/>
</svg>
